STARTFONT 2.1
COMMENT
COMMENT Converted from OpenType font "BarlowCondensed-Regular.ttf" by "otf2bdf 3.0".
COMMENT
FONT -FreeType-Barlow Condensed-Medium-R-Normal--42-300-100-100-P-137-ISO10646-1
SIZE 30 100 100
FONTBOUNDINGBOX 59 54 -18 -9
STARTPROPERTIES 19
FOUNDRY "FreeType"
FAMILY_NAME "Barlow Condensed"
WEIGHT_NAME "Medium"
SLANT "R"
SETWIDTH_NAME "Normal"
ADD_STYLE_NAME ""
PIXEL_SIZE 42
POINT_SIZE 300
RESOLUTION_X 100
RESOLUTION_Y 100
SPACING "P"
AVERAGE_WIDTH 137
CHARSET_REGISTRY "ISO10646"
CHARSET_ENCODING "1"
FONT_ASCENT 42
FONT_DESCENT 8
COPYRIGHT "Copyright 2017 The Barlow Project Authors (https://github.com/jpt/barlow)"
_OTF_FONTFILE "BarlowCondensed-Regular.ttf"
_OTF_PSNAME "BarlowCondensed-Regular"
ENDPROPERTIES
CHARS 525
STARTCHAR 0000
ENCODING 0
SWIDTH 0 0
DWIDTH 0 0
BBX 0 0 0 0
BITMAP
ENDCHAR
STARTCHAR 000D
ENCODING 13
SWIDTH 192 0
DWIDTH 8 0
BBX 0 0 0 0
BITMAP
ENDCHAR
STARTCHAR 0020
ENCODING 32
SWIDTH 192 0
DWIDTH 8 0
BBX 0 0 0 0
BITMAP
ENDCHAR
STARTCHAR 0021
ENCODING 33
SWIDTH 240 0
DWIDTH 10 0
BBX 5 29 3 0
BITMAP
70
70
70
70
70
70
70
70
70
70
70
70
70
70
70
70
70
60
60
00
00
00
00
00
70
F0
F8
F0
70
ENDCHAR
STARTCHAR 0022
ENCODING 34
SWIDTH 240 0
DWIDTH 10 0
BBX 8 8 1 21
BITMAP
E7
E7
E7
E7
E7
E7
E7
E6
ENDCHAR
STARTCHAR 0023
ENCODING 35
SWIDTH 600 0
DWIDTH 25 0
BBX 20 27 2 1
BITMAP
0180C0
0381C0
0381C0
0381C0
0381C0
0701C0
0701C0
0701C0
3FFFF0
3FFFF0
3FFFF0
0F0380
0E0380
0E0380
0E0700
0E0700
0E0700
7FFFE0
FFFFE0
FFFFE0
1C0F00
1C0E00
1C0E00
1C0E00
1C0E00
380E00
380E00
ENDCHAR
STARTCHAR 0024
ENCODING 36
SWIDTH 408 0
DWIDTH 17 0
BBX 14 36 2 -4
BITMAP
0300
0300
0300
0300
1FC0
7FF0
70F0
E038
E038
E038
E038
E038
E000
F000
7800
7C00
3E00
0F00
07C0
03E0
00F0
0078
0038
003C
E01C
E01C
E01C
E038
F038
7878
3FF0
1FE0
0700
0300
0300
0300
ENDCHAR
STARTCHAR 0025
ENCODING 37
SWIDTH 792 0
DWIDTH 33 0
BBX 27 29 3 0
BITMAP
1F000C00
3FC01800
70E01800
C0603000
C0303000
C0306000
C030E000
C060C000
70E1C000
3FC18000
1F038000
00030000
00060000
00060000
000C0000
000C0000
00180000
00381E00
00307F00
0070E180
0060C0C0
00E180C0
00C18060
01C18060
018180C0
0301C0C0
0300E1C0
06007F80
0E003E00
ENDCHAR
STARTCHAR 0026
ENCODING 38
SWIDTH 552 0
DWIDTH 23 0
BBX 19 29 2 0
BITMAP
07C000
1FF000
3FF800
383800
383800
701C00
701C00
703800
383800
387800
1CF000
1FE000
0FC000
078000
0F8000
1F8000
3DC000
78E000
F0F0C0
E071C0
E03B80
E01F80
E01F00
E00E00
E01F00
F03F80
7FFB80
3FF1C0
0FC1E0
ENDCHAR
STARTCHAR 0027
ENCODING 39
SWIDTH 120 0
DWIDTH 5 0
BBX 3 8 1 21
BITMAP
E0
E0
E0
E0
E0
E0
E0
E0
ENDCHAR
STARTCHAR 0028
ENCODING 40
SWIDTH 216 0
DWIDTH 9 0
BBX 7 36 0 -4
BITMAP
0E
1C
1C
3C
38
38
78
70
70
70
70
F0
F0
E0
E0
E0
E0
E0
E0
E0
E0
E0
E0
F0
F0
F0
70
70
70
78
78
38
38
1C
1C
1E
ENDCHAR
STARTCHAR 0029
ENCODING 41
SWIDTH 216 0
DWIDTH 9 0
BBX 6 36 3 -4
BITMAP
C0
E0
E0
70
70
78
38
38
38
3C
3C
1C
1C
1C
1C
1C
1C
1C
1C
1C
1C
1C
1C
1C
1C
3C
3C
38
38
38
78
70
70
70
E0
E0
ENDCHAR
STARTCHAR 002A
ENCODING 42
SWIDTH 360 0
DWIDTH 15 0
BBX 13 14 1 16
BITMAP
0200
0200
0200
C218
F278
3FE0
0F80
0F80
3FE0
7278
E238
0200
0200
0200
ENDCHAR
STARTCHAR 002B
ENCODING 43
SWIDTH 432 0
DWIDTH 18 0
BBX 16 15 1 6
BITMAP
0180
0180
0180
0180
0180
0180
FFFF
FFFF
7FFF
0180
0180
0180
0180
0180
0180
ENDCHAR
STARTCHAR 002C
ENCODING 44
SWIDTH 168 0
DWIDTH 7 0
BBX 4 10 2 -3
BITMAP
70
60
60
E0
E0
E0
C0
C0
C0
C0
ENDCHAR
STARTCHAR 002D
ENCODING 45
SWIDTH 312 0
DWIDTH 13 0
BBX 11 3 1 12
BITMAP
7FC0
FFE0
FFE0
ENDCHAR
STARTCHAR 002E
ENCODING 46
SWIDTH 192 0
DWIDTH 8 0
BBX 4 5 2 0
BITMAP
E0
F0
F0
F0
E0
ENDCHAR
STARTCHAR 002F
ENCODING 47
SWIDTH 336 0
DWIDTH 14 0
BBX 11 29 1 0
BITMAP
00E0
01C0
01C0
01C0
0380
0380
0380
0380
0700
0700
0700
0700
0E00
0E00
0E00
0C00
1C00
1C00
1C00
3800
3800
3800
3800
7000
7000
7000
7000
E000
E000
ENDCHAR
STARTCHAR 0030
ENCODING 48
SWIDTH 456 0
DWIDTH 19 0
BBX 14 29 2 0
BITMAP
0FC0
1FF0
3FF8
7838
701C
E01C
E01C
E01C
E01C
E01C
E01C
E01C
E01C
E01C
E01C
E01C
E01C
E01C
E01C
E01C
E01C
E01C
E01C
E01C
701C
7838
3FF8
1FF0
0FC0
ENDCHAR
STARTCHAR 0031
ENCODING 49
SWIDTH 264 0
DWIDTH 11 0
BBX 8 29 0 0
BITMAP
0F
3F
7F
FF
47
07
07
07
07
07
07
07
07
07
07
07
07
07
07
07
07
07
07
07
07
07
07
07
07
ENDCHAR
STARTCHAR 0032
ENCODING 50
SWIDTH 408 0
DWIDTH 17 0
BBX 14 29 2 0
BITMAP
0F80
3FC0
7FE0
F0F0
E070
E038
E038
E038
E038
0078
0070
0070
00F0
00E0
01E0
01C0
0380
0780
0700
0F00
0E00
1C00
3C00
3800
7800
F000
FFF8
FFFC
FFFC
ENDCHAR
STARTCHAR 0033
ENCODING 51
SWIDTH 408 0
DWIDTH 17 0
BBX 13 29 2 0
BITMAP
FFF8
FFF8
FFF8
00F0
00E0
01E0
01C0
0380
0780
0700
0F00
1F80
0FE0
00E0
0070
0070
0030
0038
0038
0038
E038
E038
E038
E038
E070
F070
7FE0
3FC0
1F80
ENDCHAR
STARTCHAR 0034
ENCODING 52
SWIDTH 408 0
DWIDTH 17 0
BBX 15 29 1 0
BITMAP
0380
0380
0780
0700
0700
0F00
0E00
0E00
1E00
1C00
1C00
3C00
381C
381C
781C
701C
701C
F01C
FFFE
FFFE
FFFE
001C
001C
001C
001C
001C
001C
001C
001C
ENDCHAR
STARTCHAR 0035
ENCODING 53
SWIDTH 408 0
DWIDTH 17 0
BBX 14 29 2 0
BITMAP
FFF8
FFF8
FFF0
E000
E000
E000
E000
E000
E000
E000
E000
E7C0
EFE0
FFF0
F078
F038
E038
0038
0038
001C
0018
0038
E038
E038
7038
7078
7FF0
3FE0
0FC0
ENDCHAR
STARTCHAR 0036
ENCODING 54
SWIDTH 408 0
DWIDTH 17 0
BBX 14 29 2 0
BITMAP
0F80
3FE0
7FF0
7070
7038
E038
E038
E038
E000
E000
E300
EFE0
FFF0
F870
F038
F038
E038
E038
E01C
E01C
E01C
E03C
E038
7038
7038
7878
3FF0
1FE0
0FC0
ENDCHAR
STARTCHAR 0037
ENCODING 55
SWIDTH 360 0
DWIDTH 15 0
BBX 14 29 1 0
BITMAP
FFFC
FFFC
FFF8
C038
C038
0038
0070
0070
0070
00F0
00E0
00E0
00E0
01E0
01C0
01C0
01C0
0380
0380
0380
0780
0700
0700
0700
0F00
0E00
0E00
0E00
1C00
ENDCHAR
STARTCHAR 0038
ENCODING 56
SWIDTH 432 0
DWIDTH 18 0
BBX 13 29 2 0
BITMAP
0FC0
3FE0
7FF0
7078
F038
E038
E038
E038
E038
E038
7038
7870
3FE0
1FC0
3FF0
7070
7038
E038
E038
E038
E038
E038
E038
E038
7038
7870
3FF0
1FE0
0F80
ENDCHAR
STARTCHAR 0039
ENCODING 57
SWIDTH 408 0
DWIDTH 17 0
BBX 14 29 1 0
BITMAP
0FC0
3FE0
3FF0
7878
7038
F038
E038
E01C
E01C
E01C
E01C
E03C
703C
703C
787C
3FFC
1FDC
0F9C
001C
001C
001C
701C
701C
7038
7038
7878
3FF0
1FE0
0FC0
ENDCHAR
STARTCHAR 003A
ENCODING 58
SWIDTH 216 0
DWIDTH 9 0
BBX 5 19 2 0
BITMAP
70
F8
F8
F8
70
00
00
00
00
00
00
00
00
00
70
F8
F8
F8
70
ENDCHAR
STARTCHAR 003B
ENCODING 59
SWIDTH 192 0
DWIDTH 8 0
BBX 4 22 2 -3
BITMAP
60
F0
F0
F0
60
00
00
00
00
00
00
00
00
60
60
60
E0
E0
E0
C0
C0
C0
ENDCHAR
STARTCHAR 003C
ENCODING 60
SWIDTH 432 0
DWIDTH 18 0
BBX 16 17 1 3
BITMAP
0003
000F
003F
00FC
03F0
0F80
3E00
F800
E000
F800
3E00
0F80
03F0
00FC
003F
000F
0003
ENDCHAR
STARTCHAR 003D
ENCODING 61
SWIDTH 432 0
DWIDTH 18 0
BBX 16 11 1 8
BITMAP
FFFF
FFFF
0000
0000
0000
0000
0000
0000
0000
FFFF
FFFF
ENDCHAR
STARTCHAR 003E
ENCODING 62
SWIDTH 432 0
DWIDTH 18 0
BBX 16 17 1 3
BITMAP
E000
F800
7E00
1F80
07E0
01F8
007E
001F
0007
001F
007E
01F8
07E0
1F80
7E00
F800
E000
ENDCHAR
STARTCHAR 003F
ENCODING 63
SWIDTH 360 0
DWIDTH 15 0
BBX 13 29 1 0
BITMAP
0F80
3FE0
3FF0
7070
7038
E038
E038
E038
E038
0038
0078
00F0
01E0
03C0
0380
0700
0700
0700
0700
0700
0600
0000
0000
0000
0700
0F00
0F80
0F00
0700
ENDCHAR
STARTCHAR 0040
ENCODING 64
SWIDTH 768 0
DWIDTH 32 0
BBX 28 29 2 -4
BITMAP
000FF000
007FFC00
01FFFE00
03C00F80
07800380
0E0001C0
1C0000E0
180E60E0
383FE060
3039E060
7070C070
6060C070
6060C070
E060C070
C060C060
C060C060
C0E1C060
C0C1C0E0
C0E1C0C0
E0E3E3C0
E07FFF80
607E7F00
70081800
38000000
3C002000
1F007000
0FFFE000
03FFC000
00FE0000
ENDCHAR
STARTCHAR 0041
ENCODING 65
SWIDTH 408 0
DWIDTH 17 0
BBX 16 29 1 0
BITMAP
0380
0380
07C0
07C0
07C0
06C0
0EE0
0EE0
0EE0
0C60
0C60
1C70
1C70
1C70
1830
3838
3838
3838
3838
301C
701C
7FFC
7FFC
701C
E00E
E00E
E00E
E00E
E007
ENDCHAR
STARTCHAR 0042
ENCODING 66
SWIDTH 456 0
DWIDTH 19 0
BBX 14 29 3 0
BITMAP
FFC0
FFE0
FFF0
E078
E03C
E01C
E01C
E01C
E01C
E01C
E01C
E038
E078
FFF0
FFE0
FFF0
E078
E03C
E01C
E01C
E01C
E01C
E01C
E01C
E03C
E038
FFF8
FFF0
FFC0
ENDCHAR
STARTCHAR 0043
ENCODING 67
SWIDTH 456 0
DWIDTH 19 0
BBX 15 29 2 0
BITMAP
0FC0
1FF0
3FF8
783C
701C
E01C
E01C
E01E
E000
E000
E000
E000
E000
E000
E000
E000
E000
E000
E000
E000
E000
E01E
E01C
E01C
701C
783C
3FF8
1FF0
0FC0
ENDCHAR
STARTCHAR 0044
ENCODING 68
SWIDTH 456 0
DWIDTH 19 0
BBX 14 29 3 0
BITMAP
FFC0
FFE0
FFF0
E078
E038
E01C
E01C
E01C
E01C
E01C
E01C
E01C
E01C
E01C
E01C
E01C
E01C
E01C
E01C
E01C
E01C
E01C
E01C
E01C
E038
E078
FFF0
FFE0
FFC0
ENDCHAR
STARTCHAR 0045
ENCODING 69
SWIDTH 432 0
DWIDTH 18 0
BBX 13 29 3 0
BITMAP
FFF8
FFF8
FFF8
E000
E000
E000
E000
E000
E000
E000
E000
E000
E000
FF80
FFC0
FFC0
E000
E000
E000
E000
E000
E000
E000
E000
E000
E000
FFF8
FFF8
FFF8
ENDCHAR
STARTCHAR 0046
ENCODING 70
SWIDTH 408 0
DWIDTH 17 0
BBX 13 29 3 0
BITMAP
FFF8
FFF8
FFF8
E000
E000
E000
E000
E000
E000
E000
E000
E000
E000
FF80
FFC0
FFC0
E000
E000
E000
E000
E000
E000
E000
E000
E000
E000
E000
E000
E000
ENDCHAR
STARTCHAR 0047
ENCODING 71
SWIDTH 456 0
DWIDTH 19 0
BBX 14 29 2 0
BITMAP
0FC0
1FF0
3FF8
783C
701C
E01C
E01C
E01C
E01C
E000
E000
E000
E000
E000
E0FC
E1FC
E1FC
E01C
E01C
E01C
E01C
E01C
E01C
E01C
701C
783C
3FF8
1FF0
0FC0
ENDCHAR
STARTCHAR 0048
ENCODING 72
SWIDTH 480 0
DWIDTH 20 0
BBX 14 29 3 0
BITMAP
E01C
E01C
E01C
E01C
E01C
E01C
E01C
E01C
E01C
E01C
E01C
E01C
E01C
FFFC
FFFC
FFFC
E01C
E01C
E01C
E01C
E01C
E01C
E01C
E01C
E01C
E01C
E01C
E01C
E01C
ENDCHAR
STARTCHAR 0049
ENCODING 73
SWIDTH 216 0
DWIDTH 9 0
BBX 3 29 3 0
BITMAP
E0
E0
E0
E0
E0
E0
E0
E0
E0
E0
E0
E0
E0
E0
E0
E0
E0
E0
E0
E0
E0
E0
E0
E0
E0
E0
E0
E0
E0
ENDCHAR
STARTCHAR 004A
ENCODING 74
SWIDTH 432 0
DWIDTH 18 0
BBX 14 29 1 0
BITMAP
001C
001C
001C
001C
001C
001C
001C
001C
001C
001C
001C
001C
001C
001C
001C
001C
001C
001C
E01C
E01C
E01C
E01C
E01C
E01C
E038
7078
7FF0
3FE0
0FC0
ENDCHAR
STARTCHAR 004B
ENCODING 75
SWIDTH 456 0
DWIDTH 19 0
BBX 15 29 3 0
BITMAP
E01C
E03C
E038
E078
E070
E0E0
E0E0
E1C0
E3C0
E380
E780
E700
EF00
FF00
FF80
FB80
F1C0
F1C0
E1E0
E0E0
E0E0
E070
E070
E038
E038
E03C
E01C
E01E
E00E
ENDCHAR
STARTCHAR 004C
ENCODING 76
SWIDTH 408 0
DWIDTH 17 0
BBX 13 29 3 0
BITMAP
E000
E000
E000
E000
E000
E000
E000
E000
E000
E000
E000
E000
E000
E000
E000
E000
E000
E000
E000
E000
E000
E000
E000
E000
E000
E000
FFF8
FFF8
FFF8
ENDCHAR
STARTCHAR 004D
ENCODING 77
SWIDTH 528 0
DWIDTH 22 0
BBX 16 29 3 0
BITMAP
E007
F00F
F00F
F81F
F81F
FC3F
FC3F
EE77
EE77
E7E7
E7E7
E3C7
E3C7
E187
E187
E107
E007
E007
E007
E007
E007
E007
E007
E007
E007
E007
E007
E007
E007
ENDCHAR
STARTCHAR 004E
ENCODING 78
SWIDTH 504 0
DWIDTH 21 0
BBX 15 29 3 0
BITMAP
E00E
F00E
F00E
F80E
F80E
F80E
FC0E
FC0E
EC0E
EE0E
EE0E
E70E
E70E
E70E
E38E
E38E
E18E
E1CE
E1CE
E0EE
E0EE
E06E
E07E
E07E
E03E
E03E
E03E
E01E
E01E
ENDCHAR
STARTCHAR 004F
ENCODING 79
SWIDTH 456 0
DWIDTH 19 0
BBX 15 29 2 0
BITMAP
07C0
1FF0
3FF8
783C
701C
E00E
E00E
E00E
E00E
E00E
E00E
E00E
E00E
E00E
E00E
E00E
E00E
E00E
E00E
E00E
E00E
E00E
E00E
E00E
701C
783C
3FF8
1FF0
0FC0
ENDCHAR
STARTCHAR 0050
ENCODING 80
SWIDTH 432 0
DWIDTH 18 0
BBX 14 29 3 0
BITMAP
FFC0
FFE0
FFF0
E078
E038
E01C
E01C
E01C
E01C
E01C
E01C
E038
E078
FFF0
FFF0
FFC0
E000
E000
E000
E000
E000
E000
E000
E000
E000
E000
E000
E000
E000
ENDCHAR
STARTCHAR 0051
ENCODING 81
SWIDTH 432 0
DWIDTH 18 0
BBX 14 34 2 -5
BITMAP
0FC0
1FF0
3FF8
7838
701C
E01C
E01C
E01C
E01C
E01C
E01C
E01C
E01C
E01C
E01C
E01C
E01C
E01C
E01C
E01C
E01C
E01C
E01C
E01C
701C
703C
7878
3FF0
1FE0
0380
0380
0380
0380
0380
ENDCHAR
STARTCHAR 0052
ENCODING 82
SWIDTH 432 0
DWIDTH 18 0
BBX 14 29 3 0
BITMAP
FFC0
FFE0
FFF0
E078
E03C
E01C
E01C
E01C
E01C
E01C
E01C
E038
E078
FFF0
FFE0
FFC0
E1C0
E1C0
E0E0
E0E0
E0E0
E070
E070
E070
E038
E038
E038
E01C
E01C
ENDCHAR
STARTCHAR 0053
ENCODING 83
SWIDTH 408 0
DWIDTH 17 0
BBX 14 29 2 0
BITMAP
0F80
3FE0
7FF0
F078
E038
E038
E038
E038
E018
E000
7000
7800
3C00
1F00
0F80
03C0
01F0
00F0
0078
0038
C01C
E01C
E01C
E018
E038
7078
7FF0
3FE0
0FC0
ENDCHAR
STARTCHAR 0054
ENCODING 84
SWIDTH 432 0
DWIDTH 18 0
BBX 15 29 1 0
BITMAP
FFFE
FFFE
7FFE
0380
0380
0380
0380
0380
0380
0380
0380
0380
0380
0380
0380
0380
0380
0380
0380
0380
0380
0380
0380
0380
0380
0380
0380
0380
0380
ENDCHAR
STARTCHAR 0055
ENCODING 85
SWIDTH 480 0
DWIDTH 20 0
BBX 14 29 3 0
BITMAP
E01C
E01C
E01C
E01C
E01C
E01C
E01C
E01C
E01C
E01C
E01C
E01C
E01C
E01C
E01C
E01C
E01C
E01C
E01C
E01C
E01C
E01C
E01C
E01C
E038
7038
7FF0
3FE0
0FC0
ENDCHAR
STARTCHAR 0056
ENCODING 86
SWIDTH 432 0
DWIDTH 18 0
BBX 16 29 1 0
BITMAP
F007
7007
700E
700E
700E
780E
380E
381C
381C
381C
1C1C
1C18
1C38
1C38
1C38
0E38
0E30
0E70
0E70
0670
0770
0760
07E0
07E0
03E0
03C0
03C0
03C0
03C0
ENDCHAR
STARTCHAR 0057
ENCODING 87
SWIDTH 624 0
DWIDTH 26 0
BBX 24 29 1 0
BITMAP
E01807
E01C07
703C0E
703C0E
703C0E
703C0E
703C0E
383E0C
387E1C
38761C
38661C
38661C
18661C
1C6718
1C6738
1CE338
1CE338
0CC338
0EC330
0EC3B0
0EC3F0
0FC1F0
0FC1F0
0781F0
0781E0
0781E0
0781E0
0781E0
0380E0
ENDCHAR
STARTCHAR 0058
ENCODING 88
SWIDTH 432 0
DWIDTH 18 0
BBX 15 29 2 0
BITMAP
E01E
E01C
E01C
7038
7038
3870
3870
3870
1CE0
1CE0
0EC0
0FC0
0780
0780
0780
0780
0780
0FC0
0FC0
1CE0
1CE0
1870
3870
3870
7038
7038
E01C
E01C
E01E
ENDCHAR
STARTCHAR 0059
ENCODING 89
SWIDTH 432 0
DWIDTH 18 0
BBX 15 29 1 0
BITMAP
F00E
700E
701C
381C
381C
3838
1C38
1C38
0C70
0E70
0E60
06E0
07E0
07C0
03C0
03C0
0380
0380
0380
0380
0380
0380
0380
0380
0380
0380
0380
0380
0380
ENDCHAR
STARTCHAR 005A
ENCODING 90
SWIDTH 384 0
DWIDTH 16 0
BBX 14 29 1 0
BITMAP
FFFC
FFFC
7FFC
0038
0038
0078
0070
00F0
00E0
00E0
01C0
01C0
03C0
0380
0380
0700
0700
0E00
0E00
1E00
1C00
1C00
3800
3800
7000
7000
FFF8
FFFC
FFFC
ENDCHAR
STARTCHAR 005B
ENCODING 91
SWIDTH 312 0
DWIDTH 13 0
BBX 7 37 1 -5
BITMAP
FE
FE
FE
E0
E0
E0
E0
E0
E0
E0
E0
E0
E0
E0
E0
E0
E0
E0
E0
E0
E0
E0
E0
E0
E0
E0
E0
E0
E0
E0
E0
E0
E0
E0
FE
FE
FE
ENDCHAR
STARTCHAR 005C
ENCODING 92
SWIDTH 336 0
DWIDTH 14 0
BBX 11 29 2 0
BITMAP
E000
7000
7000
7000
7000
3800
3800
3800
1C00
1C00
1C00
1C00
0E00
0E00
0E00
0E00
0700
0700
0700
0300
0380
0380
0380
01C0
01C0
01C0
01C0
00E0
00E0
ENDCHAR
STARTCHAR 005D
ENCODING 93
SWIDTH 312 0
DWIDTH 13 0
BBX 8 37 4 -5
BITMAP
7E
FF
FF
07
07
07
07
07
07
07
07
07
07
07
07
07
07
07
07
07
07
07
07
07
07
07
07
07
07
07
07
07
07
07
7F
FF
FF
ENDCHAR
STARTCHAR 005E
ENCODING 94
SWIDTH 408 0
DWIDTH 17 0
BBX 14 16 1 13
BITMAP
0380
0780
0780
07C0
0EC0
0CC0
0CE0
1C60
1870
1870
3830
3038
3038
7018
601C
E01C
ENDCHAR
STARTCHAR 005F
ENCODING 95
SWIDTH 384 0
DWIDTH 16 0
BBX 14 3 1 0
BITMAP
FFF8
FFFC
FFFC
ENDCHAR
STARTCHAR 0060
ENCODING 96
SWIDTH 192 0
DWIDTH 8 0
BBX 5 6 1 24
BITMAP
C0
60
70
30
38
18
ENDCHAR
STARTCHAR 0061
ENCODING 97
SWIDTH 408 0
DWIDTH 17 0
BBX 13 21 2 0
BITMAP
0F80
3FE0
7FF0
7070
F038
E038
0038
0038
03F8
1FF8
7FF8
F838
E038
E038
E038
E038
E038
F078
FFF8
7FF8
1F38
ENDCHAR
STARTCHAR 0062
ENCODING 98
SWIDTH 432 0
DWIDTH 18 0
BBX 13 29 3 0
BITMAP
E000
E000
E000
E000
E000
E000
E000
E000
EF80
FFE0
FFF0
F0F0
E070
E078
E038
E038
E038
E038
E038
E038
E038
E038
E038
E038
E070
F0F0
FFF0
FFE0
EF80
ENDCHAR
STARTCHAR 0063
ENCODING 99
SWIDTH 408 0
DWIDTH 17 0
BBX 13 21 2 0
BITMAP
0F80
3FE0
7FF0
7078
E038
E038
E000
E000
E000
E000
E000
E000
E000
E000
E000
E038
E038
7078
7FF0
3FE0
0F80
ENDCHAR
STARTCHAR 0064
ENCODING 100
SWIDTH 432 0
DWIDTH 18 0
BBX 13 29 2 0
BITMAP
0038
0038
0038
0038
0038
0038
0038
0038
1F38
3FF8
7FF8
7078
E038
E038
E038
E038
E038
E038
E038
E038
E038
E038
E038
E038
E038
7078
7FF8
3FF8
1F38
ENDCHAR
STARTCHAR 0065
ENCODING 101
SWIDTH 408 0
DWIDTH 17 0
BBX 13 21 2 0
BITMAP
0FC0
3FE0
7FF0
7078
E038
E038
E038
E038
E038
FFF8
FFF8
FFF8
E000
E000
E000
E038
E038
7078
7FF0
3FE0
0F80
ENDCHAR
STARTCHAR 0066
ENCODING 102
SWIDTH 288 0
DWIDTH 12 0
BBX 9 29 1 0
BITMAP
0780
0F80
1F80
1C00
1C00
3800
3800
3800
FF80
FF80
7F80
3800
3800
3800
3800
3800
3800
3800
3800
3800
3800
3800
3800
3800
3800
3800
3800
3800
3800
ENDCHAR
STARTCHAR 0067
ENCODING 103
SWIDTH 408 0
DWIDTH 17 0
BBX 13 29 2 -8
BITMAP
1F38
3FF8
7FF8
7078
E038
E038
E038
E038
E038
E038
E038
E038
E038
E038
E038
E038
E038
F078
7FF8
3FB8
1F38
0038
0038
0038
0070
00F0
0FE0
0FC0
0F00
ENDCHAR
STARTCHAR 0068
ENCODING 104
SWIDTH 432 0
DWIDTH 18 0
BBX 12 29 3 0
BITMAP
E000
E000
E000
E000
E000
E000
E000
E000
E780
FFE0
FFF0
F0F0
E070
E070
E070
E070
E070
E070
E070
E070
E070
E070
E070
E070
E070
E070
E070
E070
E070
ENDCHAR
STARTCHAR 0069
ENCODING 105
SWIDTH 216 0
DWIDTH 9 0
BBX 5 29 2 0
BITMAP
70
F0
F8
F0
70
00
00
00
70
70
70
70
70
70
70
70
70
70
70
70
70
70
70
70
70
70
70
70
70
ENDCHAR
STARTCHAR 006A
ENCODING 106
SWIDTH 192 0
DWIDTH 8 0
BBX 7 37 -1 -8
BITMAP
0C
1E
1E
1E
0C
00
00
00
0E
0E
0E
0E
0E
0E
0E
0E
0E
0E
0E
0E
0E
0E
0E
0E
0E
0E
0E
0E
0E
0E
0C
1C
1C
1C
FC
F8
E0
ENDCHAR
STARTCHAR 006B
ENCODING 107
SWIDTH 408 0
DWIDTH 17 0
BBX 13 29 3 0
BITMAP
E000
E000
E000
E000
E000
E000
E000
E000
E070
E0E0
E1E0
E1C0
E380
E700
E700
EF00
FF00
FB80
FB80
F180
E1C0
E1C0
E0C0
E0E0
E0E0
E070
E070
E070
E038
ENDCHAR
STARTCHAR 006C
ENCODING 108
SWIDTH 192 0
DWIDTH 8 0
BBX 3 29 2 0
BITMAP
E0
E0
E0
E0
E0
E0
E0
E0
E0
E0
E0
E0
E0
E0
E0
E0
E0
E0
E0
E0
E0
E0
E0
E0
E0
E0
E0
E0
E0
ENDCHAR
STARTCHAR 006D
ENCODING 109
SWIDTH 648 0
DWIDTH 27 0
BBX 22 21 3 0
BITMAP
CF83E0
DFC7F0
FFEFF8
F0F838
E07838
E0701C
C0701C
C0701C
C0701C
C0701C
C0701C
C0701C
C0701C
C0701C
C0701C
C0701C
C0701C
C0701C
C0701C
C0701C
C0701C
ENDCHAR
STARTCHAR 006E
ENCODING 110
SWIDTH 432 0
DWIDTH 18 0
BBX 12 21 3 0
BITMAP
E780
FFE0
FFF0
F0F0
E070
E070
E070
E070
E070
E070
E070
E070
E070
E070
E070
E070
E070
E070
E070
E070
E070
ENDCHAR
STARTCHAR 006F
ENCODING 111
SWIDTH 408 0
DWIDTH 17 0
BBX 13 21 2 0
BITMAP
0FC0
3FE0
7FF0
7078
E038
E038
E038
E038
E038
E038
E038
E038
E038
E038
E038
E038
E038
7078
7FF0
3FE0
0F80
ENDCHAR
STARTCHAR 0070
ENCODING 112
SWIDTH 432 0
DWIDTH 18 0
BBX 13 29 3 -8
BITMAP
E780
FFE0
FFF0
F070
E078
E038
E038
E038
E038
E038
E038
E038
E038
E038
E038
E038
E078
F070
FFF0
FFE0
E780
E000
E000
E000
E000
E000
E000
E000
E000
ENDCHAR
STARTCHAR 0071
ENCODING 113
SWIDTH 432 0
DWIDTH 18 0
BBX 13 29 2 -8
BITMAP
1F38
3FF8
7FF8
7078
E038
E038
E038
E038
E038
E038
E038
E038
E038
E038
E038
E038
E038
F078
7FF8
3FF8
1F38
0038
0038
0038
0038
0038
0038
0038
0038
ENDCHAR
STARTCHAR 0072
ENCODING 114
SWIDTH 288 0
DWIDTH 12 0
BBX 9 21 3 0
BITMAP
E780
FF00
FF00
F000
E000
E000
E000
E000
E000
E000
E000
E000
E000
E000
E000
E000
E000
E000
E000
E000
E000
ENDCHAR
STARTCHAR 0073
ENCODING 115
SWIDTH 384 0
DWIDTH 16 0
BBX 12 21 2 0
BITMAP
1F80
7FC0
7FE0
F0F0
E070
E070
E000
E000
7800
3E00
1F80
07E0
01E0
0070
0070
E070
E070
E070
7FF0
7FE0
1F80
ENDCHAR
STARTCHAR 0074
ENCODING 116
SWIDTH 264 0
DWIDTH 11 0
BBX 9 26 1 0
BITMAP
3800
3800
3800
3800
3800
FF80
FF80
FF80
3800
3800
3800
3800
3800
3800
3800
3800
3800
3800
3800
3800
3800
3800
3C00
1F00
1F80
0F80
ENDCHAR
STARTCHAR 0075
ENCODING 117
SWIDTH 432 0
DWIDTH 18 0
BBX 13 21 2 0
BITMAP
E038
E038
E038
E038
E038
E038
E038
E038
E038
E038
E038
E038
E038
E038
E038
E038
F038
7078
7FF8
3FF8
1F38
ENDCHAR
STARTCHAR 0076
ENCODING 118
SWIDTH 384 0
DWIDTH 16 0
BBX 14 21 1 0
BITMAP
E01C
F038
7038
7038
7038
7070
3870
3870
3870
38E0
1CE0
1CE0
1CE0
1CC0
0DC0
0FC0
0FC0
0F80
0780
0780
0780
ENDCHAR
STARTCHAR 0077
ENCODING 119
SWIDTH 552 0
DWIDTH 23 0
BBX 21 21 1 0
BITMAP
E07038
E07038
E07038
607830
70F870
70F870
70D870
30D870
30D860
39DCE0
398CE0
398CE0
198CC0
198CC0
1F8FC0
1F07C0
0F07C0
0F0780
0F0780
0F0780
0E0380
ENDCHAR
STARTCHAR 0078
ENCODING 120
SWIDTH 384 0
DWIDTH 16 0
BBX 14 21 1 0
BITMAP
E03C
F038
7078
7870
3870
1CE0
1CE0
0FC0
0FC0
0780
0780
0780
0FC0
0FC0
1CE0
1CE0
38F0
7870
7078
F038
E03C
ENDCHAR
STARTCHAR 0079
ENCODING 121
SWIDTH 360 0
DWIDTH 15 0
BBX 14 29 1 -8
BITMAP
E03C
E038
E038
7038
7070
7070
7070
3870
3860
38E0
38E0
18E0
1CC0
1DC0
1DC0
0DC0
0F80
0F80
0780
0780
0700
0700
0700
0600
0E00
0E00
7C00
7C00
7000
ENDCHAR
STARTCHAR 007A
ENCODING 122
SWIDTH 360 0
DWIDTH 15 0
BBX 13 21 1 0
BITMAP
7FF8
7FF8
7FF8
0070
00F0
01E0
01C0
03C0
0380
0780
0700
0F00
0E00
1E00
1C00
3C00
7800
7000
FFF0
FFF8
FFF8
ENDCHAR
STARTCHAR 007B
ENCODING 123
SWIDTH 264 0
DWIDTH 11 0
BBX 9 37 1 -5
BITMAP
0F80
1F80
1F80
1C00
1C00
1C00
1C00
1C00
1C00
1C00
1C00
1C00
1C00
1C00
3C00
3800
3800
F800
E000
F800
3800
3800
1C00
1C00
1C00
1C00
1C00
1C00
1C00
1C00
1C00
1C00
1C00
1C00
1F80
1F80
0F80
ENDCHAR
STARTCHAR 007C
ENCODING 124
SWIDTH 144 0
DWIDTH 6 0
BBX 3 35 1 -3
BITMAP
60
E0
E0
E0
E0
E0
E0
E0
E0
E0
E0
E0
E0
E0
E0
E0
E0
E0
E0
E0
E0
E0
E0
E0
E0
E0
E0
E0
E0
E0
E0
E0
E0
E0
E0
ENDCHAR
STARTCHAR 007D
ENCODING 125
SWIDTH 264 0
DWIDTH 11 0
BBX 9 37 1 -5
BITMAP
F800
FC00
FE00
1E00
0E00
0E00
0E00
0E00
0E00
0E00
0E00
0E00
0E00
0E00
0E00
0E00
0F00
0780
0380
0780
0F00
0E00
0E00
0E00
0E00
0E00
0E00
0E00
0E00
0E00
0E00
0E00
0E00
1E00
FC00
FC00
F800
ENDCHAR
STARTCHAR 007E
ENCODING 126
SWIDTH 456 0
DWIDTH 19 0
BBX 17 5 1 10
BITMAP
1E0000
3F8380
7FFF00
E0FF00
203C00
ENDCHAR
STARTCHAR 00A0
ENCODING 160
SWIDTH 192 0
DWIDTH 8 0
BBX 0 0 0 0
BITMAP
ENDCHAR
STARTCHAR 00A1
ENCODING 161
SWIDTH 240 0
DWIDTH 10 0
BBX 5 29 3 0
BITMAP
70
F0
F8
F0
70
00
00
00
00
00
60
60
60
70
70
70
70
70
70
70
70
70
70
70
70
70
70
70
70
ENDCHAR
STARTCHAR 00A2
ENCODING 162
SWIDTH 408 0
DWIDTH 17 0
BBX 13 28 2 0
BITMAP
0700
0700
0700
0700
1FE0
3FF0
7870
F038
E038
E038
E000
E000
E000
E000
E000
E000
E000
E000
E038
E038
F038
7870
7FF0
1FE0
0700
0700
0700
0700
ENDCHAR
STARTCHAR 00A3
ENCODING 163
SWIDTH 504 0
DWIDTH 21 0
BBX 17 29 3 0
BITMAP
01F000
07FC00
07FE00
0E0E00
0E0700
1C0700
1C0000
1C0000
1C0000
1C0000
1C0000
1C0000
1C0000
1C0000
FFF000
FFF000
FFF000
1C0000
1C0000
1C0000
1C0000
1C0000
1C0000
1C0000
180000
380000
7FFF00
7FFF80
7FFF80
ENDCHAR
STARTCHAR 00A4
ENCODING 164
SWIDTH 504 0
DWIDTH 21 0
BBX 19 19 1 3
BITMAP
600060
F1F0E0
7FFDC0
3FFF80
1C0700
380380
380380
7001C0
7001C0
7001C0
7001C0
7001C0
380380
3C0780
1E0F80
3FFFC0
77FDE0
E0C0E0
400040
ENDCHAR
STARTCHAR 00A5
ENCODING 165
SWIDTH 528 0
DWIDTH 22 0
BBX 16 29 3 0
BITMAP
F00E
700E
701C
381C
381C
3838
1C38
1C38
1C70
0E70
0E60
06E0
07E0
07C0
03C0
FFFF
FFFE
0380
0380
0380
FFFF
FFFE
0380
0380
0380
0380
0380
0380
0380
ENDCHAR
STARTCHAR 00A6
ENCODING 166
SWIDTH 144 0
DWIDTH 6 0
BBX 3 34 1 -3
BITMAP
E0
E0
E0
E0
E0
E0
E0
E0
E0
E0
E0
E0
E0
E0
E0
00
00
00
00
E0
E0
E0
E0
E0
E0
E0
E0
E0
E0
E0
E0
E0
E0
E0
ENDCHAR
STARTCHAR 00A7
ENCODING 167
SWIDTH 384 0
DWIDTH 16 0
BBX 12 37 2 -8
BITMAP
1F80
3FC0
7FE0
F0F0
E070
E070
E070
E000
E000
7000
7800
3E00
1F80
3FE0
79E0
F070
E070
E070
E070
E070
E070
E070
70E0
7FE0
3F80
0FC0
03E0
00E0
0070
0070
E070
E070
E070
F0F0
7FE0
3FC0
1F80
ENDCHAR
STARTCHAR 00A8
ENCODING 168
SWIDTH 312 0
DWIDTH 13 0
BBX 11 5 1 25
BITMAP
71C0
F3E0
FBE0
F3E0
71C0
ENDCHAR
STARTCHAR 00A9
ENCODING 169
SWIDTH 840 0
DWIDTH 35 0
BBX 30 30 2 0
BITMAP
000FE000
007FFC00
01F01F00
03800380
060001C0
0C0000E0
18000070
38000030
30038018
600FC018
600C600C
600C600C
C00C000C
C00C000C
C00C0004
C00C0004
C00C000C
C00C000C
600C600C
600C600C
600FE018
3007C018
30000038
18000030
1C000060
0E0000C0
07800380
01E00F00
007FFC00
001FF000
ENDCHAR
STARTCHAR 00AA
ENCODING 170
SWIDTH 288 0
DWIDTH 12 0
BBX 9 18 1 11
BITMAP
3E00
7F00
E380
C180
0180
0180
3F80
7F80
E180
C180
C180
C380
FF80
3D80
0000
0000
FF80
FF80
ENDCHAR
STARTCHAR 00AB
ENCODING 171
SWIDTH 480 0
DWIDTH 20 0
BBX 13 14 3 4
BITMAP
0E38
0C38
1C70
38E0
30E0
71C0
E380
E380
71C0
30E0
38E0
1C70
0C38
0E38
ENDCHAR
STARTCHAR 00AC
ENCODING 172
SWIDTH 432 0
DWIDTH 18 0
BBX 16 7 1 8
BITMAP
7FFF
FFFF
FFFF
0003
0003
0003
0003
ENDCHAR
STARTCHAR 00AD
ENCODING 173
SWIDTH 312 0
DWIDTH 13 0
BBX 11 3 1 12
BITMAP
7FC0
FFE0
FFE0
ENDCHAR
STARTCHAR 00AE
ENCODING 174
SWIDTH 432 0
DWIDTH 18 0
BBX 16 16 1 13
BITMAP
07E0
1FF8
380C
6006
63C3
C263
C261
C3C1
C2C1
C241
C243
6222
6006
380C
1FF8
07E0
ENDCHAR
STARTCHAR 00AF
ENCODING 175
SWIDTH 480 0
DWIDTH 20 0
BBX 8 3 6 24
BITMAP
FF
FF
FF
ENDCHAR
STARTCHAR 00B0
ENCODING 176
SWIDTH 360 0
DWIDTH 15 0
BBX 13 14 1 20
BITMAP
0200
1FC0
3FE0
7070
E030
C018
C018
C018
C018
E038
7070
7FF0
3FE0
0F80
ENDCHAR
STARTCHAR 00B1
ENCODING 177
SWIDTH 432 0
DWIDTH 18 0
BBX 16 21 1 1
BITMAP
0180
0180
0180
0180
0180
0180
FFFF
FFFF
7FFF
0180
0180
0180
0180
0180
0180
0000
0000
0000
0000
FFFF
FFFF
ENDCHAR
STARTCHAR 00B2
ENCODING 178
SWIDTH 240 0
DWIDTH 10 0
BBX 9 18 1 18
BITMAP
3C00
7E00
E700
C300
C300
C300
0300
0700
0600
0E00
0C00
1C00
3800
3000
7000
E000
FF80
FF80
ENDCHAR
STARTCHAR 00B3
ENCODING 179
SWIDTH 264 0
DWIDTH 11 0
BBX 8 18 1 19
BITMAP
FF
FF
07
06
0E
1C
18
3E
07
03
03
03
C3
C3
C3
E3
7E
3C
ENDCHAR
STARTCHAR 00B4
ENCODING 180
SWIDTH 192 0
DWIDTH 8 0
BBX 5 6 1 24
BITMAP
18
38
30
70
60
C0
ENDCHAR
STARTCHAR 00B5
ENCODING 181
SWIDTH 432 0
DWIDTH 18 0
BBX 12 29 3 -8
BITMAP
E070
E070
E070
E070
E070
E070
E070
E070
E070
E070
E070
E070
E070
E070
E070
E070
E070
E0F0
FFF0
FFF0
FE70
E000
E000
E000
E000
E000
E000
E000
E000
ENDCHAR
STARTCHAR 00B6
ENCODING 182
SWIDTH 480 0
DWIDTH 20 0
BBX 16 37 1 -8
BITMAP
07FF
1FFF
3FFF
3F87
7F87
7F87
7F87
FF87
FF87
FF87
FF87
FF87
7F87
7F87
7F87
3F87
1F87
0F87
0387
0187
0187
0187
0187
0187
0187
0187
0187
0187
0187
0187
0187
0187
0187
0187
0187
0187
0187
ENDCHAR
STARTCHAR 00B7
ENCODING 183
SWIDTH 192 0
DWIDTH 8 0
BBX 4 5 2 9
BITMAP
70
F0
F0
F0
60
ENDCHAR
STARTCHAR 00B8
ENCODING 184
SWIDTH 120 0
DWIDTH 5 0
BBX 5 8 0 -8
BITMAP
60
30
18
18
18
18
F8
F0
ENDCHAR
STARTCHAR 00B9
ENCODING 185
SWIDTH 144 0
DWIDTH 6 0
BBX 4 17 1 18
BITMAP
70
F0
30
30
30
30
30
30
30
30
30
30
30
30
30
30
30
ENDCHAR
STARTCHAR 00BA
ENCODING 186
SWIDTH 288 0
DWIDTH 12 0
BBX 10 18 1 11
BITMAP
1E00
7F00
6380
E180
E180
E180
E180
E180
E180
E180
E180
6380
7F00
3E00
0000
0000
FFC0
FFC0
ENDCHAR
STARTCHAR 00BB
ENCODING 187
SWIDTH 480 0
DWIDTH 20 0
BBX 14 14 3 4
BITMAP
E380
71C0
38E0
3860
1C70
0E38
0E1C
0F18
0E38
1C70
3860
38E0
71C0
E380
ENDCHAR
STARTCHAR 00BC
ENCODING 188
SWIDTH 672 0
DWIDTH 28 0
BBX 26 29 1 0
BITMAP
70000C00
F0001800
30003800
30003000
30006000
30006000
3000C000
3001C000
30018000
30030000
30070000
30060400
300C0E00
301C0C00
30181C00
30301800
30701800
00603800
00E03000
00C03180
01807180
03806180
03007FC0
06007FC0
0E000180
0C000180
18000180
38000180
30000180
ENDCHAR
STARTCHAR 00BD
ENCODING 189
SWIDTH 672 0
DWIDTH 28 0
BBX 26 29 1 0
BITMAP
70000C00
F0001800
30003800
30003000
30006000
30006000
3000C000
3001C000
30018000
30030000
30070000
30060E00
300C3F80
301C3180
30187180
303071C0
307061C0
00600180
00E00180
00C00380
01800300
03800700
03000E00
06000E00
0E001C00
0C003800
18003800
38007FC0
30007FC0
ENDCHAR
STARTCHAR 00BE
ENCODING 190
SWIDTH 744 0
DWIDTH 31 0
BBX 29 30 1 0
BITMAP
FF000000
FF000180
07000300
06000700
0E000600
1C000C00
18001C00
3E001800
07003000
03007000
03006000
0300C000
C300C080
C3018180
C3038180
E3030380
7E060300
3C0E0300
000C0700
00180600
00380630
00300E30
00600C30
00600FF8
00C00FF8
01C00030
01800030
03000030
07000030
06000030
ENDCHAR
STARTCHAR 00BF
ENCODING 191
SWIDTH 360 0
DWIDTH 15 0
BBX 13 29 1 -8
BITMAP
0380
0780
07C0
0780
0380
0000
0000
0000
0300
0380
0380
0380
0380
0700
0F00
1E00
3C00
7800
7000
7000
E038
E038
E038
E038
7038
7870
7FF0
3FE0
0F80
ENDCHAR
STARTCHAR 00C0
ENCODING 192
SWIDTH 408 0
DWIDTH 17 0
BBX 16 38 1 0
BITMAP
1800
0C00
0E00
0600
0300
0380
0000
0000
0000
0380
0380
07C0
07C0
07C0
06C0
0EE0
0EE0
0EE0
0C60
0C60
1C70
1C70
1C70
1830
3838
3838
3838
3838
301C
701C
7FFC
7FFC
701C
E00E
E00E
E00E
E00E
E007
ENDCHAR
STARTCHAR 00C1
ENCODING 193
SWIDTH 408 0
DWIDTH 17 0
BBX 16 38 1 0
BITMAP
0060
00E0
01C0
0180
0380
0300
0000
0000
0000
0380
0380
07C0
07C0
07C0
06C0
0EE0
0EE0
0EE0
0C60
0C60
1C70
1C70
1C70
1830
3838
3838
3838
3838
301C
701C
7FFC
7FFC
701C
E00E
E00E
E00E
E00E
E007
ENDCHAR
STARTCHAR 00C2
ENCODING 194
SWIDTH 408 0
DWIDTH 17 0
BBX 16 37 1 0
BITMAP
0380
07C0
0EE0
0C60
1C70
0000
0000
0000
0380
0380
07C0
07C0
07C0
06C0
0EE0
0EE0
0EE0
0C60
0C60
1C70
1C70
1C70
1830
3838
3838
3838
3838
301C
701C
7FFC
7FFC
701C
E00E
E00E
E00E
E00E
E007
ENDCHAR
STARTCHAR 00C3
ENCODING 195
SWIDTH 408 0
DWIDTH 17 0
BBX 16 37 1 0
BITMAP
0F08
1FF8
1FF8
10F0
0000
0000
0000
0000
0380
0380
07C0
07C0
07C0
06C0
0EE0
0EE0
0EE0
0C60
0C60
1C70
1C70
1C70
1830
3838
3838
3838
3838
301C
701C
7FFC
7FFC
701C
E00E
E00E
E00E
E00E
E007
ENDCHAR
STARTCHAR 00C4
ENCODING 196
SWIDTH 408 0
DWIDTH 17 0
BBX 16 38 1 0
BITMAP
1C70
3EF8
3EF8
3EF8
1C70
0000
0000
0000
0000
0380
0380
07C0
07C0
07C0
06C0
0EE0
0EE0
0EE0
0C60
0C60
1C70
1C70
1C70
1830
3838
3838
3838
3838
301C
701C
7FFC
7FFC
701C
E00E
E00E
E00E
E00E
E007
ENDCHAR
STARTCHAR 00C5
ENCODING 197
SWIDTH 408 0
DWIDTH 17 0
BBX 16 41 1 0
BITMAP
07C0
0FE0
0C70
1830
1830
1830
0C70
0FE0
07C0
0000
0000
0000
0380
0380
07C0
07C0
07C0
06C0
0EE0
0EE0
0EE0
0C60
0C60
1C70
1C70
1C70
1830
3838
3838
3838
3838
301C
701C
7FFC
7FFC
701C
E00E
E00E
E00E
E00E
E007
ENDCHAR
STARTCHAR 00C6
ENCODING 198
SWIDTH 696 0
DWIDTH 29 0
BBX 26 29 1 0
BITMAP
000FFFC0
000FFFC0
001FFFC0
001F0000
003F0000
003F0000
00770000
00770000
00E70000
00E70000
00E70000
01C70000
01C70000
0387FE00
0387FE00
0707FE00
07070000
0F070000
0E070000
0E070000
1C070000
1FFF0000
3FFF0000
3FFF0000
78070000
70070000
7007FFC0
E007FFC0
E007FFC0
ENDCHAR
STARTCHAR 00C7
ENCODING 199
SWIDTH 456 0
DWIDTH 19 0
BBX 15 37 2 -8
BITMAP
0FC0
1FF0
3FF8
783C
701C
E01C
E01C
E01E
E000
E000
E000
E000
E000
E000
E000
E000
E000
E000
E000
E000
E000
E00C
E01E
E01C
F01C
701C
7838
3FF8
1FF0
0780
0180
00C0
00C0
00C0
00C0
03C0
0780
ENDCHAR
STARTCHAR 00C8
ENCODING 200
SWIDTH 432 0
DWIDTH 18 0
BBX 13 38 3 0
BITMAP
3000
1800
1C00
0C00
0600
0700
0000
0000
0000
FFF8
FFF8
FFF8
E000
E000
E000
E000
E000
E000
E000
E000
E000
E000
FF80
FFC0
FFC0
E000
E000
E000
E000
E000
E000
E000
E000
E000
E000
FFF8
FFF8
FFF8
ENDCHAR
STARTCHAR 00C9
ENCODING 201
SWIDTH 432 0
DWIDTH 18 0
BBX 13 38 3 0
BITMAP
00C0
01C0
0180
0300
0700
0600
0000
0000
0000
FFF8
FFF8
FFF8
E000
E000
E000
E000
E000
E000
E000
E000
E000
E000
FF80
FFC0
FFC0
E000
E000
E000
E000
E000
E000
E000
E000
E000
E000
FFF8
FFF8
FFF8
ENDCHAR
STARTCHAR 00CA
ENCODING 202
SWIDTH 432 0
DWIDTH 18 0
BBX 13 37 3 0
BITMAP
0700
0F80
1DC0
18C0
38E0
0000
0000
0000
FFF8
FFF8
FFF8
E000
E000
E000
E000
E000
E000
E000
E000
E000
E000
FF80
FFC0
FFC0
E000
E000
E000
E000
E000
E000
E000
E000
E000
E000
FFF8
FFF8
FFF8
ENDCHAR
STARTCHAR 00CB
ENCODING 203
SWIDTH 432 0
DWIDTH 18 0
BBX 13 38 3 0
BITMAP
38E0
7CF0
7DF0
7CF0
38E0
0000
0000
0000
0000
FFF8
FFF8
FFF8
E000
E000
E000
E000
E000
E000
E000
E000
E000
E000
FF80
FFC0
FFC0
E000
E000
E000
E000
E000
E000
E000
E000
E000
E000
FFF8
FFF8
FFF8
ENDCHAR
STARTCHAR 00CC
ENCODING 204
SWIDTH 216 0
DWIDTH 9 0
BBX 6 38 0 0
BITMAP
C0
60
70
30
38
18
00
00
00
1C
1C
1C
1C
1C
1C
1C
1C
1C
1C
1C
1C
1C
1C
1C
1C
1C
1C
1C
1C
1C
1C
1C
1C
1C
1C
1C
1C
1C
ENDCHAR
STARTCHAR 00CD
ENCODING 205
SWIDTH 216 0
DWIDTH 9 0
BBX 5 38 3 0
BITMAP
18
38
70
60
E0
C0
00
00
00
E0
E0
E0
E0
E0
E0
E0
E0
E0
E0
E0
E0
E0
E0
E0
E0
E0
E0
E0
E0
E0
E0
E0
E0
E0
E0
E0
E0
E0
ENDCHAR
STARTCHAR 00CE
ENCODING 206
SWIDTH 216 0
DWIDTH 9 0
BBX 9 37 0 0
BITMAP
1C00
3E00
7700
6300
E380
0000
0000
0000
1C00
1C00
1C00
1C00
1C00
1C00
1C00
1C00
1C00
1C00
1C00
1C00
1C00
1C00
1C00
1C00
1C00
1C00
1C00
1C00
1C00
1C00
1C00
1C00
1C00
1C00
1C00
1C00
1C00
ENDCHAR
STARTCHAR 00CF
ENCODING 207
SWIDTH 216 0
DWIDTH 9 0
BBX 11 38 -1 0
BITMAP
71C0
FBE0
FBE0
FBE0
71C0
0000
0000
0000
0000
0E00
0E00
0E00
0E00
0E00
0E00
0E00
0E00
0E00
0E00
0E00
0E00
0E00
0E00
0E00
0E00
0E00
0E00
0E00
0E00
0E00
0E00
0E00
0E00
0E00
0E00
0E00
0E00
0E00
ENDCHAR
STARTCHAR 00D0
ENCODING 208
SWIDTH 504 0
DWIDTH 21 0
BBX 16 29 3 0
BITMAP
3FE0
3FF8
3FFC
381E
380E
380E
3807
3807
3807
3807
3807
3807
3807
FF07
FF07
3807
3807
3807
3807
3807
3807
3807
3807
380E
380E
381E
3FFC
3FF8
3FF0
ENDCHAR
STARTCHAR 00D1
ENCODING 209
SWIDTH 504 0
DWIDTH 21 0
BBX 15 37 3 0
BITMAP
0F08
1FF8
3FF8
10E0
0000
0000
0000
0000
E00E
F00E
F00E
F80E
F80E
F80E
FC0E
FC0E
EC0E
EE0E
EE0E
E70E
E70E
E70E
E38E
E38E
E18E
E1CE
E1CE
E0EE
E0EE
E06E
E07E
E07E
E03E
E03E
E03E
E01E
E01E
ENDCHAR
STARTCHAR 00D2
ENCODING 210
SWIDTH 456 0
DWIDTH 19 0
BBX 15 38 2 0
BITMAP
1800
0C00
0E00
0600
0700
0300
0000
0000
0000
07C0
1FF0
3FF8
783C
701C
E00E
E00E
E00E
E00E
E00E
E00E
E00E
E00E
E00E
E00E
E00E
E00E
E00E
E00E
E00E
E00E
E00E
E00E
E00E
701C
783C
3FF8
1FF0
0FC0
ENDCHAR
STARTCHAR 00D3
ENCODING 211
SWIDTH 456 0
DWIDTH 19 0
BBX 15 38 2 0
BITMAP
0060
00E0
01C0
0180
0380
0300
0000
0000
0000
07C0
1FF0
3FF8
783C
701C
E00E
E00E
E00E
E00E
E00E
E00E
E00E
E00E
E00E
E00E
E00E
E00E
E00E
E00E
E00E
E00E
E00E
E00E
E00E
701C
783C
3FF8
1FF0
0FC0
ENDCHAR
STARTCHAR 00D4
ENCODING 212
SWIDTH 456 0
DWIDTH 19 0
BBX 15 37 2 0
BITMAP
0380
07C0
0EE0
0C60
1C70
0000
0000
0000
07C0
1FF0
3FF8
783C
701C
E00E
E00E
E00E
E00E
E00E
E00E
E00E
E00E
E00E
E00E
E00E
E00E
E00E
E00E
E00E
E00E
E00E
E00E
E00E
701C
783C
3FF8
1FF0
0FC0
ENDCHAR
STARTCHAR 00D5
ENCODING 213
SWIDTH 456 0
DWIDTH 19 0
BBX 15 37 2 0
BITMAP
0F08
1FF8
1FF8
10F0
0000
0000
0000
0000
07C0
1FF0
3FF8
783C
701C
E00E
E00E
E00E
E00E
E00E
E00E
E00E
E00E
E00E
E00E
E00E
E00E
E00E
E00E
E00E
E00E
E00E
E00E
E00E
701C
783C
3FF8
1FF0
0FC0
ENDCHAR
STARTCHAR 00D6
ENCODING 214
SWIDTH 456 0
DWIDTH 19 0
BBX 15 38 2 0
BITMAP
1C70
3EF8
3EF8
3EF8
1C70
0000
0000
0000
0000
07C0
1FF0
3FF8
783C
701C
E00E
E00E
E00E
E00E
E00E
E00E
E00E
E00E
E00E
E00E
E00E
E00E
E00E
E00E
E00E
E00E
E00E
E00E
E00E
701C
783C
3FF8
1FF0
0FC0
ENDCHAR
STARTCHAR 00D7
ENCODING 215
SWIDTH 360 0
DWIDTH 15 0
BBX 13 12 1 7
BITMAP
6010
F038
3870
1CE0
0FC0
0780
0780
0FC0
1CE0
3870
F038
6010
ENDCHAR
STARTCHAR 00D8
ENCODING 216
SWIDTH 528 0
DWIDTH 22 0
BBX 15 31 2 -1
BITMAP
0004
07CE
1FFC
3FFC
783C
701C
E03E
E03E
E03E
E06E
E06E
E0EE
E0CE
E1CE
E18E
E38E
E30E
E30E
E60E
E60E
EE0E
EC0E
FC0E
F80E
F80E
701C
783C
7FF8
7FF0
E7E0
C000
ENDCHAR
STARTCHAR 00D9
ENCODING 217
SWIDTH 480 0
DWIDTH 20 0
BBX 14 38 3 0
BITMAP
1800
1C00
0C00
0E00
0600
0300
0000
0000
0000
E01C
E01C
E01C
E01C
E01C
E01C
E01C
E01C
E01C
E01C
E01C
E01C
E01C
E01C
E01C
E01C
E01C
E01C
E01C
E01C
E01C
E01C
E01C
E01C
E038
7038
7FF0
3FE0
0FC0
ENDCHAR
STARTCHAR 00DA
ENCODING 218
SWIDTH 480 0
DWIDTH 20 0
BBX 14 38 3 0
BITMAP
00C0
01C0
0180
0380
0300
0600
0000
0000
0000
E01C
E01C
E01C
E01C
E01C
E01C
E01C
E01C
E01C
E01C
E01C
E01C
E01C
E01C
E01C
E01C
E01C
E01C
E01C
E01C
E01C
E01C
E01C
E01C
E038
7038
7FF0
3FE0
0FC0
ENDCHAR
STARTCHAR 00DB
ENCODING 219
SWIDTH 480 0
DWIDTH 20 0
BBX 14 37 3 0
BITMAP
0780
0F80
0DC0
1CE0
3860
0000
0000
0000
E01C
E01C
E01C
E01C
E01C
E01C
E01C
E01C
E01C
E01C
E01C
E01C
E01C
E01C
E01C
E01C
E01C
E01C
E01C
E01C
E01C
E01C
E01C
E01C
E038
7038
7FF0
3FE0
0FC0
ENDCHAR
STARTCHAR 00DC
ENCODING 220
SWIDTH 480 0
DWIDTH 20 0
BBX 14 38 3 0
BITMAP
3860
3CF0
7CF0
3CF0
3860
0000
0000
0000
0000
E01C
E01C
E01C
E01C
E01C
E01C
E01C
E01C
E01C
E01C
E01C
E01C
E01C
E01C
E01C
E01C
E01C
E01C
E01C
E01C
E01C
E01C
E01C
E01C
E038
7038
7FF0
3FE0
0FC0
ENDCHAR
STARTCHAR 00DD
ENCODING 221
SWIDTH 432 0
DWIDTH 18 0
BBX 15 38 1 0
BITMAP
0060
00E0
00C0
01C0
0180
0300
0000
0000
0000
F00E
700E
701C
381C
381C
3838
1C38
1C38
0C70
0E70
0E60
06E0
07E0
07C0
03C0
03C0
0380
0380
0380
0380
0380
0380
0380
0380
0380
0380
0380
0380
0380
ENDCHAR
STARTCHAR 00DE
ENCODING 222
SWIDTH 432 0
DWIDTH 18 0
BBX 14 29 3 0
BITMAP
E000
E000
E000
E000
E000
E000
FF00
FFE0
FFF0
E078
E038
E03C
E01C
E01C
E01C
E01C
E01C
E01C
E038
E078
FFF0
FFE0
FF00
E000
E000
E000
E000
E000
E000
ENDCHAR
STARTCHAR 00DF
ENCODING 223
SWIDTH 432 0
DWIDTH 18 0
BBX 13 29 3 0
BITMAP
1F80
3FC0
7FE0
F0F0
E070
E070
E038
E038
E038
E070
E070
E070
E7E0
E7C0
E7E0
E0F0
E070
E070
E038
E038
E038
E038
E038
E038
E070
E0F0
EFE0
EFC0
EF80
ENDCHAR
STARTCHAR 00E0
ENCODING 224
SWIDTH 408 0
DWIDTH 17 0
BBX 13 30 2 0
BITMAP
3000
1800
1C00
0C00
0600
0700
0000
0000
0000
0F80
3FE0
7FF0
7070
F038
E038
0038
0038
03F8
1FF8
7FF8
F838
E038
E038
E038
E038
E038
F078
FFF8
7FF8
1F38
ENDCHAR
STARTCHAR 00E1
ENCODING 225
SWIDTH 408 0
DWIDTH 17 0
BBX 13 30 2 0
BITMAP
00C0
01C0
0380
0300
0700
0600
0000
0000
0000
0F80
3FE0
7FF0
7070
F038
E038
0038
0038
03F8
1FF8
7FF8
F838
E038
E038
E038
E038
E038
F078
FFF8
7FF8
1F38
ENDCHAR
STARTCHAR 00E2
ENCODING 226
SWIDTH 408 0
DWIDTH 17 0
BBX 13 29 2 0
BITMAP
0700
0F80
1DC0
18C0
38E0
0000
0000
0000
0F80
3FE0
7FF0
7070
F038
E038
0038
0038
03F8
1FF8
7FF8
F838
E038
E038
E038
E038
E038
F078
FFF8
7FF8
1F38
ENDCHAR
STARTCHAR 00E3
ENCODING 227
SWIDTH 408 0
DWIDTH 17 0
BBX 13 29 2 0
BITMAP
1E10
3FF0
3FF0
21E0
0000
0000
0000
0000
0F80
3FE0
7FF0
7070
F038
E038
0038
0038
03F8
1FF8
7FF8
F838
E038
E038
E038
E038
E038
F078
FFF8
7FF8
1F38
ENDCHAR
STARTCHAR 00E4
ENCODING 228
SWIDTH 408 0
DWIDTH 17 0
BBX 13 30 2 0
BITMAP
38E0
7CF0
7DF0
7CF0
38E0
0000
0000
0000
0000
0F80
3FE0
7FF0
7070
F038
E038
0038
0038
03F8
1FF8
7FF8
F838
E038
E038
E038
E038
E038
F078
FFF8
7FF8
1F38
ENDCHAR
STARTCHAR 00E5
ENCODING 229
SWIDTH 408 0
DWIDTH 17 0
BBX 13 33 2 0
BITMAP
0780
1FC0
18E0
3060
3060
3060
18E0
1FC0
0F80
0000
0000
0000
0F80
3FE0
7FF0
7070
F038
E038
0038
0038
03F8
1FF8
7FF8
F838
E038
E038
E038
E038
E038
F078
FFF8
7FF8
1F38
ENDCHAR
STARTCHAR 00E6
ENCODING 230
SWIDTH 648 0
DWIDTH 27 0
BBX 23 21 2 0
BITMAP
0F83F0
3FC7F8
7FEFFC
F07C1E
E03C0E
E0380E
00380E
00380E
00380E
1FFFFE
7FFFFE
7FFFFE
F03800
E03800
E03800
E03806
E03C0E
E07C1E
FFEFFC
7FC7F8
1F03F0
ENDCHAR
STARTCHAR 00E7
ENCODING 231
SWIDTH 408 0
DWIDTH 17 0
BBX 13 29 2 -8
BITMAP
0F80
3FE0
7FF0
7078
E038
E038
E038
E000
E000
E000
E000
E000
E000
E000
E000
E038
E038
F038
78F0
7FF0
3FE0
0700
0300
0180
0180
01C0
0180
0780
0700
ENDCHAR
STARTCHAR 00E8
ENCODING 232
SWIDTH 408 0
DWIDTH 17 0
BBX 13 30 2 0
BITMAP
3000
1800
1C00
0C00
0E00
0600
0000
0000
0000
0FC0
3FE0
7FF0
7078
E038
E038
E038
E038
E038
FFF8
FFF8
FFF8
E000
E000
E000
E038
E038
7078
7FF0
3FE0
0F80
ENDCHAR
STARTCHAR 00E9
ENCODING 233
SWIDTH 408 0
DWIDTH 17 0
BBX 13 30 2 0
BITMAP
00C0
01C0
0380
0300
0700
0600
0000
0000
0000
0FC0
3FE0
7FF0
7078
E038
E038
E038
E038
E038
FFF8
FFF8
FFF8
E000
E000
E000
E038
E038
7078
7FF0
3FE0
0F80
ENDCHAR
STARTCHAR 00EA
ENCODING 234
SWIDTH 408 0
DWIDTH 17 0
BBX 13 29 2 0
BITMAP
0700
0F80
1DC0
18C0
38E0
0000
0000
0000
0FC0
3FE0
7FF0
7078
E038
E038
E038
E038
E038
FFF8
FFF8
FFF8
E000
E000
E000
E038
E038
7078
7FF0
3FE0
0F80
ENDCHAR
STARTCHAR 00EB
ENCODING 235
SWIDTH 408 0
DWIDTH 17 0
BBX 13 30 2 0
BITMAP
38E0
7DF0
7DF0
7DF0
38E0
0000
0000
0000
0000
0FC0
3FE0
7FF0
7078
E038
E038
E038
E038
E038
FFF8
FFF8
FFF8
E000
E000
E000
E038
E038
7078
7FF0
3FE0
0F80
ENDCHAR
STARTCHAR 00EC
ENCODING 236
SWIDTH 168 0
DWIDTH 7 0
BBX 6 30 -1 0
BITMAP
C0
60
70
30
18
1C
00
00
00
1C
1C
1C
1C
1C
1C
1C
1C
1C
1C
1C
1C
1C
1C
1C
1C
1C
1C
1C
1C
1C
ENDCHAR
STARTCHAR 00ED
ENCODING 237
SWIDTH 168 0
DWIDTH 7 0
BBX 5 30 2 0
BITMAP
18
38
70
60
E0
C0
00
00
00
E0
E0
E0
E0
E0
E0
E0
E0
E0
E0
E0
E0
E0
E0
E0
E0
E0
E0
E0
E0
E0
ENDCHAR
STARTCHAR 00EE
ENCODING 238
SWIDTH 168 0
DWIDTH 7 0
BBX 9 29 -1 0
BITMAP
1C00
3E00
7700
6300
E380
0000
0000
0000
1C00
1C00
1C00
1C00
1C00
1C00
1C00
1C00
1C00
1C00
1C00
1C00
1C00
1C00
1C00
1C00
1C00
1C00
1C00
1C00
1C00
ENDCHAR
STARTCHAR 00EF
ENCODING 239
SWIDTH 168 0
DWIDTH 7 0
BBX 11 30 -2 0
BITMAP
71C0
FBE0
FBE0
FBE0
71C0
0000
0000
0000
0000
0E00
0E00
0E00
0E00
0E00
0E00
0E00
0E00
0E00
0E00
0E00
0E00
0E00
0E00
0E00
0E00
0E00
0E00
0E00
0E00
0E00
ENDCHAR
STARTCHAR 00F0
ENCODING 240
SWIDTH 432 0
DWIDTH 18 0
BBX 14 29 2 0
BITMAP
0700
0380
039C
01F8
0FE0
0CE0
0070
0070
0FB0
3FF8
7FF8
7078
E038
E038
E038
E038
E038
E038
E038
E038
E038
E038
E038
E038
E038
7078
7FF0
3FE0
0F80
ENDCHAR
STARTCHAR 00F1
ENCODING 241
SWIDTH 432 0
DWIDTH 18 0
BBX 12 29 3 0
BITMAP
1C00
3E60
3FE0
23C0
0080
0000
0000
0000
E780
FFE0
FFF0
F0F0
E070
E070
E070
E070
E070
E070
E070
E070
E070
E070
E070
E070
E070
E070
E070
E070
E070
ENDCHAR
STARTCHAR 00F2
ENCODING 242
SWIDTH 408 0
DWIDTH 17 0
BBX 13 30 2 0
BITMAP
3000
1800
1C00
0C00
0600
0700
0000
0000
0000
0FC0
3FE0
7FF0
7078
E038
E038
E038
E038
E038
E038
E038
E038
E038
E038
E038
E038
E038
7078
7FF0
3FE0
0F80
ENDCHAR
STARTCHAR 00F3
ENCODING 243
SWIDTH 408 0
DWIDTH 17 0
BBX 13 30 2 0
BITMAP
00C0
01C0
0180
0300
0700
0600
0000
0000
0000
0FC0
3FE0
7FF0
7078
E038
E038
E038
E038
E038
E038
E038
E038
E038
E038
E038
E038
E038
7078
7FF0
3FE0
0F80
ENDCHAR
STARTCHAR 00F4
ENCODING 244
SWIDTH 408 0
DWIDTH 17 0
BBX 13 29 2 0
BITMAP
0700
0F80
1DC0
18C0
38E0
0000
0000
0000
0FC0
3FE0
7FF0
7078
E038
E038
E038
E038
E038
E038
E038
E038
E038
E038
E038
E038
E038
7078
7FF0
3FE0
0F80
ENDCHAR
STARTCHAR 00F5
ENCODING 245
SWIDTH 408 0
DWIDTH 17 0
BBX 13 29 2 0
BITMAP
1E10
3FF8
3FF0
21E0
0000
0000
0000
0000
0FC0
3FE0
7FF0
7078
E038
E038
E038
E038
E038
E038
E038
E038
E038
E038
E038
E038
E038
7078
7FF0
3FE0
0F80
ENDCHAR
STARTCHAR 00F6
ENCODING 246
SWIDTH 408 0
DWIDTH 17 0
BBX 13 30 2 0
BITMAP
38E0
7CF0
7DF0
7CF0
38E0
0000
0000
0000
0000
0FC0
3FE0
7FF0
7078
E038
E038
E038
E038
E038
E038
E038
E038
E038
E038
E038
E038
E038
7078
7FF0
3FE0
0F80
ENDCHAR
STARTCHAR 00F7
ENCODING 247
SWIDTH 432 0
DWIDTH 18 0
BBX 16 17 1 5
BITMAP
01C0
03C0
03C0
01C0
0000
0000
0000
7FFF
FFFF
FFFF
0000
0000
0000
01C0
03C0
03C0
01C0
ENDCHAR
STARTCHAR 00F8
ENCODING 248
SWIDTH 432 0
DWIDTH 18 0
BBX 13 25 2 -2
BITMAP
0010
0018
0FF8
3FF0
7FF0
7078
F0F8
E0F8
E1F8
E1F8
E3B8
E3B8
E338
E738
E638
EE38
EC38
FC38
F838
7878
7FF0
7FE0
7FC0
E000
2000
ENDCHAR
STARTCHAR 00F9
ENCODING 249
SWIDTH 432 0
DWIDTH 18 0
BBX 13 30 2 0
BITMAP
3800
1800
1C00
0E00
0600
0700
0000
0000
0000
E038
E038
E038
E038
E038
E038
E038
E038
E038
E038
E038
E038
E038
E038
E038
E038
F038
7078
7FF8
3FF8
1F38
ENDCHAR
STARTCHAR 00FA
ENCODING 250
SWIDTH 432 0
DWIDTH 18 0
BBX 13 30 2 0
BITMAP
00C0
01C0
0180
0300
0700
0600
0000
0000
0000
E038
E038
E038
E038
E038
E038
E038
E038
E038
E038
E038
E038
E038
E038
E038
E038
F038
7078
7FF8
3FF8
1F38
ENDCHAR
STARTCHAR 00FB
ENCODING 251
SWIDTH 432 0
DWIDTH 18 0
BBX 13 29 2 0
BITMAP
0780
0F80
1DC0
18E0
38E0
0000
0000
0000
E038
E038
E038
E038
E038
E038
E038
E038
E038
E038
E038
E038
E038
E038
E038
E038
F038
7078
7FF8
3FF8
1F38
ENDCHAR
STARTCHAR 00FC
ENCODING 252
SWIDTH 432 0
DWIDTH 18 0
BBX 13 30 2 0
BITMAP
38E0
7CF0
7DF0
7CF0
38E0
0000
0000
0000
0000
E038
E038
E038
E038
E038
E038
E038
E038
E038
E038
E038
E038
E038
E038
E038
E038
F038
7078
7FF8
3FF8
1F38
ENDCHAR
STARTCHAR 00FD
ENCODING 253
SWIDTH 360 0
DWIDTH 15 0
BBX 14 38 1 -8
BITMAP
00C0
01C0
0180
0300
0700
0600
0000
0000
0000
E03C
E038
E038
7038
7070
7070
7070
3870
3860
38E0
38E0
18E0
1CC0
1DC0
1DC0
0DC0
0F80
0F80
0780
0780
0700
0700
0700
0600
0E00
0E00
7C00
7C00
7000
ENDCHAR
STARTCHAR 00FE
ENCODING 254
SWIDTH 408 0
DWIDTH 17 0
BBX 13 37 2 -8
BITMAP
E000
E000
E000
E000
E000
E000
E000
E000
E7C0
EFF0
FFF0
F078
F038
E038
E038
E038
E038
E038
E038
E038
E038
E038
E038
E038
F038
F078
FFF0
EFF0
E7C0
E000
E000
E000
E000
E000
E000
E000
E000
ENDCHAR
STARTCHAR 00FF
ENCODING 255
SWIDTH 360 0
DWIDTH 15 0
BBX 14 38 1 -8
BITMAP
38E0
7CF0
7DF0
7CF0
38E0
0000
0000
0000
0000
E03C
E038
E038
7038
7070
7070
7070
3870
3860
38E0
38E0
18E0
1CC0
1DC0
1DC0
0DC0
0F80
0F80
0780
0780
0700
0700
0700
0600
0E00
0E00
7C00
7C00
7000
ENDCHAR
STARTCHAR 0100
ENCODING 256
SWIDTH 408 0
DWIDTH 17 0
BBX 16 35 1 0
BITMAP
0FE0
1FF0
1FF0
0000
0000
0000
0380
0380
07C0
07C0
07C0
06C0
0EE0
0EE0
0EE0
0C60
0C60
1C70
1C70
1C70
1830
3838
3838
3838
3838
301C
701C
7FFC
7FFC
701C
E00E
E00E
E00E
E00E
E007
ENDCHAR
STARTCHAR 0101
ENCODING 257
SWIDTH 408 0
DWIDTH 17 0
BBX 13 27 2 0
BITMAP
1FC0
3FE0
3FE0
0000
0000
0000
0F80
3FE0
7FF0
7070
F038
E038
0038
0038
03F8
1FF8
7FF8
F838
E038
E038
E038
E038
E038
F078
FFF8
7FF8
1F38
ENDCHAR
STARTCHAR 0102
ENCODING 258
SWIDTH 408 0
DWIDTH 17 0
BBX 16 36 1 0
BITMAP
0810
1830
0C70
0FE0
07C0
0000
0000
0380
0380
07C0
07C0
07C0
06C0
0EE0
0EE0
0EE0
0C60
0C60
1C70
1C70
1C70
1830
3838
3838
3838
3838
301C
701C
7FFC
7FFC
701C
E00E
E00E
E00E
E00E
E007
ENDCHAR
STARTCHAR 0103
ENCODING 259
SWIDTH 408 0
DWIDTH 17 0
BBX 13 28 2 0
BITMAP
1020
3060
18E0
1FC0
0F80
0000
0000
0F80
3FE0
7FF0
7070
F038
E038
0038
0038
03F8
1FF8
7FF8
F838
E038
E038
E038
E038
E038
F078
FFF8
7FF8
1F38
ENDCHAR
STARTCHAR 0104
ENCODING 260
SWIDTH 408 0
DWIDTH 17 0
BBX 16 37 1 -8
BITMAP
0380
0380
07C0
07C0
07C0
06C0
0EE0
0EE0
0EE0
0C60
0C60
1C70
1C70
1C70
1830
3838
3838
3838
3838
301C
701C
7FFC
7FFC
701C
E00E
E00E
E00E
E00E
E007
0002
0006
000C
0018
0018
001C
000F
0007
ENDCHAR
STARTCHAR 0105
ENCODING 261
SWIDTH 408 0
DWIDTH 17 0
BBX 14 28 2 -7
BITMAP
0F80
3FE0
7FF0
7078
F038
E038
0038
0038
03F8
1FF8
7FF8
F838
E038
E038
E038
E038
E038
F078
FFF8
7FB8
1F38
0030
0060
0060
0060
0060
0078
003C
ENDCHAR
STARTCHAR 0106
ENCODING 262
SWIDTH 456 0
DWIDTH 19 0
BBX 15 38 2 0
BITMAP
0060
00C0
01C0
0180
0380
0300
0000
0000
0000
0FC0
1FF0
3FF8
783C
701C
E01C
E01C
E01E
E000
E000
E000
E000
E000
E000
E000
E000
E000
E000
E000
E000
E000
E01E
E01C
E01C
701C
783C
3FF8
1FF0
0FC0
ENDCHAR
STARTCHAR 0107
ENCODING 263
SWIDTH 408 0
DWIDTH 17 0
BBX 13 30 2 0
BITMAP
00C0
01C0
0180
0300
0700
0600
0000
0000
0000
0F80
3FE0
7FF0
7078
E038
E038
E000
E000
E000
E000
E000
E000
E000
E000
E000
E038
E038
7078
7FF0
3FE0
0F80
ENDCHAR
STARTCHAR 0108
ENCODING 264
SWIDTH 456 0
DWIDTH 19 0
BBX 15 37 2 0
BITMAP
0780
07C0
0EE0
0C60
1C70
0000
0000
0000
0FC0
1FF0
3FF8
783C
701C
E01C
E01C
E01E
E000
E000
E000
E000
E000
E000
E000
E000
E000
E000
E000
E000
E000
E01E
E01C
E01C
701C
783C
3FF8
1FF0
0FC0
ENDCHAR
STARTCHAR 0109
ENCODING 265
SWIDTH 408 0
DWIDTH 17 0
BBX 13 29 2 0
BITMAP
0700
0F80
1DC0
18C0
38E0
0000
0000
0000
0F80
3FE0
7FF0
7078
E038
E038
E000
E000
E000
E000
E000
E000
E000
E000
E000
E038
E038
7078
7FF0
3FE0
0F80
ENDCHAR
STARTCHAR 010A
ENCODING 266
SWIDTH 456 0
DWIDTH 19 0
BBX 15 38 2 0
BITMAP
0380
07C0
07C0
07C0
0380
0000
0000
0000
0000
0FC0
1FF0
3FF8
783C
701C
E01C
E01C
E01E
E000
E000
E000
E000
E000
E000
E000
E000
E000
E000
E000
E000
E000
E01E
E01C
E01C
701C
783C
3FF8
1FF0
0FC0
ENDCHAR
STARTCHAR 010B
ENCODING 267
SWIDTH 408 0
DWIDTH 17 0
BBX 13 30 2 0
BITMAP
0700
0F80
0F80
0F80
0700
0000
0000
0000
0000
0F80
3FE0
7FF0
7078
E038
E038
E000
E000
E000
E000
E000
E000
E000
E000
E000
E038
E038
7078
7FF0
3FE0
0F80
ENDCHAR
STARTCHAR 010C
ENCODING 268
SWIDTH 456 0
DWIDTH 19 0
BBX 15 37 2 0
BITMAP
1C70
0C60
0EE0
07C0
0380
0000
0000
0000
0FC0
1FF0
3FF8
783C
701C
E01C
E01C
E01E
E000
E000
E000
E000
E000
E000
E000
E000
E000
E000
E000
E000
E000
E01E
E01C
E01C
701C
783C
3FF8
1FF0
0FC0
ENDCHAR
STARTCHAR 010D
ENCODING 269
SWIDTH 408 0
DWIDTH 17 0
BBX 13 29 2 0
BITMAP
38E0
18E0
1DC0
0F80
0780
0000
0000
0000
0F80
3FE0
7FF0
7078
E038
E038
E000
E000
E000
E000
E000
E000
E000
E000
E000
E038
E038
7078
7FF0
3FE0
0F80
ENDCHAR
STARTCHAR 010E
ENCODING 270
SWIDTH 456 0
DWIDTH 19 0
BBX 14 37 3 0
BITMAP
38E0
18C0
1DC0
0F80
0700
0000
0000
0000
FFC0
FFE0
FFF0
E078
E038
E01C
E01C
E01C
E01C
E01C
E01C
E01C
E01C
E01C
E01C
E01C
E01C
E01C
E01C
E01C
E01C
E01C
E01C
E01C
E038
E078
FFF0
FFE0
FFC0
ENDCHAR
STARTCHAR 010F
ENCODING 271
SWIDTH 432 0
DWIDTH 18 0
BBX 21 30 2 0
BITMAP
000018
003830
003870
003860
0038E0
0038C0
003800
003800
003800
1F3800
3FF800
7FF800
707800
E03800
E03800
E03800
E03800
E03800
E03800
E03800
E03800
E03800
E03800
E03800
E03800
E03800
707800
7FF800
3FF800
1F3800
ENDCHAR
STARTCHAR 0110
ENCODING 272
SWIDTH 504 0
DWIDTH 21 0
BBX 16 29 3 0
BITMAP
3FE0
3FF8
3FFC
381E
380E
380E
3807
3807
3807
3807
3807
3807
3807
FF07
FF07
3807
3807
3807
3807
3807
3807
3807
3807
380E
380E
381E
3FFC
3FF8
3FF0
ENDCHAR
STARTCHAR 0111
ENCODING 273
SWIDTH 432 0
DWIDTH 18 0
BBX 15 29 2 0
BITMAP
0038
0038
0038
0FFE
0FFE
0FFE
0038
0038
1F38
3FF8
7FF8
7078
E038
E038
E038
E038
E038
E038
E038
E038
E038
E038
E038
E038
E038
7078
7FF8
3FF8
1F38
ENDCHAR
STARTCHAR 0112
ENCODING 274
SWIDTH 432 0
DWIDTH 18 0
BBX 13 35 3 0
BITMAP
1FC0
3FE0
3FE0
0000
0000
0000
FFF8
FFF8
FFF8
E000
E000
E000
E000
E000
E000
E000
E000
E000
E000
FF80
FFC0
FFC0
E000
E000
E000
E000
E000
E000
E000
E000
E000
E000
FFF8
FFF8
FFF8
ENDCHAR
STARTCHAR 0113
ENCODING 275
SWIDTH 408 0
DWIDTH 17 0
BBX 13 29 2 0
BITMAP
1FC0
3FE0
3FE0
0000
0000
0000
0000
0000
0FC0
3FE0
7FF0
7078
E038
E038
E038
E038
E038
FFF8
FFF8
FFF8
E000
E000
E000
E038
E038
7078
7FF0
3FE0
0F80
ENDCHAR
STARTCHAR 0116
ENCODING 278
SWIDTH 432 0
DWIDTH 18 0
BBX 13 38 3 0
BITMAP
0700
0F80
0F80
0F80
0700
0000
0000
0000
0000
FFF8
FFF8
FFF8
E000
E000
E000
E000
E000
E000
E000
E000
E000
E000
FF80
FFC0
FFC0
E000
E000
E000
E000
E000
E000
E000
E000
E000
E000
FFF8
FFF8
FFF8
ENDCHAR
STARTCHAR 0117
ENCODING 279
SWIDTH 408 0
DWIDTH 17 0
BBX 13 30 2 0
BITMAP
0700
0F80
0F80
0F80
0700
0000
0000
0000
0000
0FC0
3FE0
7FF0
7078
E038
E038
E038
E038
E038
FFF8
FFF8
FFF8
E000
E000
E000
E038
E038
7078
7FF0
3FE0
0F80
ENDCHAR
STARTCHAR 0118
ENCODING 280
SWIDTH 432 0
DWIDTH 18 0
BBX 13 36 3 -7
BITMAP
FFF8
FFF8
FFF8
E000
E000
E000
E000
E000
E000
E000
E000
E000
E000
FF80
FFC0
FFC0
E000
E000
E000
E000
E000
E000
E000
E000
E000
E000
FFF8
FFF8
FFF8
0600
0C00
0C00
1C00
1C00
0C00
0F00
ENDCHAR
STARTCHAR 0119
ENCODING 281
SWIDTH 408 0
DWIDTH 17 0
BBX 13 29 2 -8
BITMAP
0F80
3FE0
7FF0
7078
F038
E038
E038
E038
E038
FFF8
FFF8
FFF8
E000
E000
E000
E000
E038
F038
7870
7FF0
3FE0
0F00
0E00
0C00
0C00
0C00
0C00
0F00
0700
ENDCHAR
STARTCHAR 011A
ENCODING 282
SWIDTH 432 0
DWIDTH 18 0
BBX 13 37 3 0
BITMAP
38E0
18E0
1DC0
0F80
0780
0000
0000
0000
FFF8
FFF8
FFF8
E000
E000
E000
E000
E000
E000
E000
E000
E000
E000
FF80
FFC0
FFC0
E000
E000
E000
E000
E000
E000
E000
E000
E000
E000
FFF8
FFF8
FFF8
ENDCHAR
STARTCHAR 011B
ENCODING 283
SWIDTH 408 0
DWIDTH 17 0
BBX 13 29 2 0
BITMAP
38E0
18C0
1DC0
0F80
0700
0000
0000
0000
0FC0
3FE0
7FF0
7078
E038
E038
E038
E038
E038
FFF8
FFF8
FFF8
E000
E000
E000
E038
E038
7078
7FF0
3FE0
0F80
ENDCHAR
STARTCHAR 011C
ENCODING 284
SWIDTH 456 0
DWIDTH 19 0
BBX 14 37 2 0
BITMAP
0780
07C0
0EE0
0C60
1C70
0000
0000
0000
0FC0
1FF0
3FF8
783C
701C
E01C
E01C
E01C
E01C
E000
E000
E000
E000
E000
E0FC
E1FC
E1FC
E01C
E01C
E01C
E01C
E01C
E01C
E01C
701C
783C
3FF8
1FF0
0FC0
ENDCHAR
STARTCHAR 011D
ENCODING 285
SWIDTH 408 0
DWIDTH 17 0
BBX 13 37 2 -8
BITMAP
0700
0F80
1DC0
18C0
38E0
0000
0000
0000
1F38
3FF8
7FF8
7078
E038
E038
E038
E038
E038
E038
E038
E038
E038
E038
E038
E038
E038
F078
7FF8
3FB8
1F38
0038
0038
0038
0070
00F0
0FE0
0FC0
0F00
ENDCHAR
STARTCHAR 011E
ENCODING 286
SWIDTH 456 0
DWIDTH 19 0
BBX 14 36 2 0
BITMAP
1020
1830
1C60
0FE0
0780
0000
0000
0FC0
1FF0
3FF8
783C
701C
E01C
E01C
E01C
E01C
E000
E000
E000
E000
E000
E0FC
E1FC
E1FC
E01C
E01C
E01C
E01C
E01C
E01C
E01C
701C
783C
3FF8
1FF0
0FC0
ENDCHAR
STARTCHAR 011F
ENCODING 287
SWIDTH 408 0
DWIDTH 17 0
BBX 13 36 2 -8
BITMAP
1020
3060
18E0
1FC0
0F80
0000
0000
1F38
3FF8
7FF8
7078
E038
E038
E038
E038
E038
E038
E038
E038
E038
E038
E038
E038
E038
F078
7FF8
3FB8
1F38
0038
0038
0038
0070
00F0
0FE0
0FC0
0F00
ENDCHAR
STARTCHAR 0120
ENCODING 288
SWIDTH 456 0
DWIDTH 19 0
BBX 14 38 2 0
BITMAP
0380
07C0
07C0
07C0
0380
0000
0000
0000
0000
0FC0
1FF0
3FF8
783C
701C
E01C
E01C
E01C
E01C
E000
E000
E000
E000
E000
E0FC
E1FC
E1FC
E01C
E01C
E01C
E01C
E01C
E01C
E01C
701C
783C
3FF8
1FF0
0FC0
ENDCHAR
STARTCHAR 0121
ENCODING 289
SWIDTH 408 0
DWIDTH 17 0
BBX 13 38 2 -8
BITMAP
0700
0F80
0F80
0F80
0700
0000
0000
0000
0000
1F38
3FF8
7FF8
7078
E038
E038
E038
E038
E038
E038
E038
E038
E038
E038
E038
E038
E038
F078
7FF8
3FB8
1F38
0038
0038
0038
0070
00F0
0FE0
0FC0
0F00
ENDCHAR
STARTCHAR 0122
ENCODING 290
SWIDTH 456 0
DWIDTH 19 0
BBX 14 37 2 -8
BITMAP
0FC0
1FF0
3FF8
783C
701C
E01C
E01C
E01C
E01C
E000
E000
E000
E000
E000
E0FC
E1FC
E1FC
E01C
E01C
E01C
E01C
E01C
E01C
E01C
701C
783C
3FF8
1FF0
0FC0
0000
0000
00C0
00C0
0180
0380
0300
0700
ENDCHAR
STARTCHAR 0123
ENCODING 291
SWIDTH 408 0
DWIDTH 17 0
BBX 13 37 2 -8
BITMAP
0380
0300
0700
0600
0E00
1C00
0000
0000
1F38
3FF8
7FF8
7078
E038
E038
E038
E038
E038
E038
E038
E038
E038
E038
E038
E038
E038
F078
7FF8
3FB8
1F38
0038
0038
0038
0070
00F0
0FE0
0FC0
0F00
ENDCHAR
STARTCHAR 0124
ENCODING 292
SWIDTH 480 0
DWIDTH 20 0
BBX 14 37 3 0
BITMAP
0780
0F80
1DC0
1CE0
38E0
0000
0000
0000
E01C
E01C
E01C
E01C
E01C
E01C
E01C
E01C
E01C
E01C
E01C
E01C
E01C
FFFC
FFFC
FFFC
E01C
E01C
E01C
E01C
E01C
E01C
E01C
E01C
E01C
E01C
E01C
E01C
E01C
ENDCHAR
STARTCHAR 0125
ENCODING 293
SWIDTH 432 0
DWIDTH 18 0
BBX 12 36 3 0
BITMAP
0F00
1F80
1D80
39C0
70E0
0000
0000
E000
E000
E000
E000
E000
E000
E000
E000
E780
FFE0
FFF0
F0F0
E070
E070
E070
E070
E070
E070
E070
E070
E070
E070
E070
E070
E070
E070
E070
E070
E070
ENDCHAR
STARTCHAR 0126
ENCODING 294
SWIDTH 480 0
DWIDTH 20 0
BBX 18 29 1 0
BITMAP
380700
380700
380700
380700
380700
380700
FFFFC0
FFFFC0
FFFF80
380700
380700
380700
380700
3FFF00
3FFF00
3FFF00
380700
380700
380700
380700
380700
380700
380700
380700
380700
380700
380700
380700
380700
ENDCHAR
STARTCHAR 0127
ENCODING 295
SWIDTH 432 0
DWIDTH 18 0
BBX 15 29 0 0
BITMAP
1C00
1C00
1C00
1C00
FFE0
FFE0
1C00
1C00
1CF0
1FFC
1FFE
1E1E
1C0E
1C0E
1C0E
1C0E
1C0E
1C0E
1C0E
1C0E
1C0E
1C0E
1C0E
1C0E
1C0E
1C0E
1C0E
1C0E
1C0E
ENDCHAR
STARTCHAR 0128
ENCODING 296
SWIDTH 216 0
DWIDTH 9 0
BBX 10 37 0 0
BITMAP
7840
FFC0
FFC0
8780
0000
0000
0000
0000
1C00
1C00
1C00
1C00
1C00
1C00
1C00
1C00
1C00
1C00
1C00
1C00
1C00
1C00
1C00
1C00
1C00
1C00
1C00
1C00
1C00
1C00
1C00
1C00
1C00
1C00
1C00
1C00
1C00
ENDCHAR
STARTCHAR 0129
ENCODING 297
SWIDTH 168 0
DWIDTH 7 0
BBX 10 29 -1 0
BITMAP
7840
FFC0
FFC0
8780
0000
0000
0000
0000
1C00
1C00
1C00
1C00
1C00
1C00
1C00
1C00
1C00
1C00
1C00
1C00
1C00
1C00
1C00
1C00
1C00
1C00
1C00
1C00
1C00
ENDCHAR
STARTCHAR 012A
ENCODING 298
SWIDTH 216 0
DWIDTH 9 0
BBX 9 35 0 0
BITMAP
7F00
FF80
FF80
0000
0000
0000
1C00
1C00
1C00
1C00
1C00
1C00
1C00
1C00
1C00
1C00
1C00
1C00
1C00
1C00
1C00
1C00
1C00
1C00
1C00
1C00
1C00
1C00
1C00
1C00
1C00
1C00
1C00
1C00
1C00
ENDCHAR
STARTCHAR 012B
ENCODING 299
SWIDTH 168 0
DWIDTH 7 0
BBX 9 27 -1 0
BITMAP
7F00
FF80
FF80
0000
0000
0000
1C00
1C00
1C00
1C00
1C00
1C00
1C00
1C00
1C00
1C00
1C00
1C00
1C00
1C00
1C00
1C00
1C00
1C00
1C00
1C00
1C00
ENDCHAR
STARTCHAR 012D
ENCODING 301
SWIDTH 168 0
DWIDTH 7 0
BBX 9 29 -1 0
BITMAP
4100
C180
6300
7F00
3E00
0000
0000
0000
1C00
1C00
1C00
1C00
1C00
1C00
1C00
1C00
1C00
1C00
1C00
1C00
1C00
1C00
1C00
1C00
1C00
1C00
1C00
1C00
1C00
ENDCHAR
STARTCHAR 012E
ENCODING 302
SWIDTH 192 0
DWIDTH 8 0
BBX 5 37 1 -8
BITMAP
70
70
70
70
70
70
70
70
70
70
70
70
70
70
70
70
70
70
70
70
70
70
70
70
70
70
70
70
70
30
60
60
C0
C0
C0
F8
78
ENDCHAR
STARTCHAR 012F
ENCODING 303
SWIDTH 216 0
DWIDTH 9 0
BBX 5 38 2 -8
BITMAP
30
78
78
78
30
00
00
00
00
38
38
38
38
38
38
38
38
38
38
38
38
38
38
38
38
38
38
38
38
38
10
70
60
C0
C0
E0
78
38
ENDCHAR
STARTCHAR 0130
ENCODING 304
SWIDTH 216 0
DWIDTH 9 0
BBX 5 38 2 0
BITMAP
70
F8
F8
F8
70
00
00
00
00
70
70
70
70
70
70
70
70
70
70
70
70
70
70
70
70
70
70
70
70
70
70
70
70
70
70
70
70
70
ENDCHAR
STARTCHAR 0131
ENCODING 305
SWIDTH 168 0
DWIDTH 7 0
BBX 3 21 2 0
BITMAP
E0
E0
E0
E0
E0
E0
E0
E0
E0
E0
E0
E0
E0
E0
E0
E0
E0
E0
E0
E0
E0
ENDCHAR
STARTCHAR 0133
ENCODING 307
SWIDTH 408 0
DWIDTH 17 0
BBX 13 37 2 -8
BITMAP
7070
F078
F8F8
F078
7070
0000
0000
0000
7070
7070
7070
7070
7070
7070
7070
7070
7070
7070
7070
7070
7070
7070
7070
7070
7070
7070
7070
7070
7070
0070
0070
0070
0070
00F0
03E0
07E0
0780
ENDCHAR
STARTCHAR 0134
ENCODING 308
SWIDTH 432 0
DWIDTH 18 0
BBX 17 37 1 0
BITMAP
003C00
003E00
007600
00E700
00C380
000000
000000
000000
001C00
001C00
001C00
001C00
001C00
001C00
001C00
001C00
001C00
001C00
001C00
001C00
001C00
001C00
001C00
001C00
001C00
001C00
E01C00
E01C00
E01C00
E01C00
E01C00
E01C00
E03800
707800
7FF000
3FE000
0FC000
ENDCHAR
STARTCHAR 0135
ENCODING 309
SWIDTH 192 0
DWIDTH 8 0
BBX 10 37 -1 -8
BITMAP
1E00
3F00
3300
7380
E1C0
0000
0000
0000
0E00
0E00
0E00
0E00
0E00
0E00
0E00
0E00
0E00
0E00
0E00
0E00
0E00
0E00
0E00
0E00
0E00
0E00
0E00
0E00
0E00
0E00
0C00
1C00
1C00
1C00
FC00
F800
E000
ENDCHAR
STARTCHAR 0136
ENCODING 310
SWIDTH 456 0
DWIDTH 19 0
BBX 15 37 3 -8
BITMAP
E01C
E03C
E038
E078
E070
E0E0
E0E0
E1C0
E3C0
E380
E780
E700
EF00
FF00
FF80
FB80
F1C0
F1C0
E1E0
E0E0
E0E0
E070
E070
E038
E038
E03C
E01C
E01E
E00E
0000
0000
00E0
00C0
01C0
0380
0300
0700
ENDCHAR
STARTCHAR 0137
ENCODING 311
SWIDTH 408 0
DWIDTH 17 0
BBX 13 37 3 -8
BITMAP
E000
E000
E000
E000
E000
E000
E000
E000
E070
E0E0
E1E0
E1C0
E380
E700
E700
EF00
FF00
FB80
FB80
F180
E1C0
E1C0
E0C0
E0E0
E0E0
E070
E070
E070
E038
0000
0000
0180
0380
0300
0600
0E00
0C00
ENDCHAR
STARTCHAR 0139
ENCODING 313
SWIDTH 408 0
DWIDTH 17 0
BBX 13 38 3 0
BITMAP
1800
3800
7000
6000
E000
C000
0000
0000
0000
E000
E000
E000
E000
E000
E000
E000
E000
E000
E000
E000
E000
E000
E000
E000
E000
E000
E000
E000
E000
E000
E000
E000
E000
E000
E000
FFF8
FFF8
FFF8
ENDCHAR
STARTCHAR 013A
ENCODING 314
SWIDTH 192 0
DWIDTH 8 0
BBX 5 38 2 0
BITMAP
18
38
30
70
60
C0
00
00
00
E0
E0
E0
E0
E0
E0
E0
E0
E0
E0
E0
E0
E0
E0
E0
E0
E0
E0
E0
E0
E0
E0
E0
E0
E0
E0
E0
E0
E0
ENDCHAR
STARTCHAR 013B
ENCODING 315
SWIDTH 408 0
DWIDTH 17 0
BBX 13 37 3 -8
BITMAP
E000
E000
E000
E000
E000
E000
E000
E000
E000
E000
E000
E000
E000
E000
E000
E000
E000
E000
E000
E000
E000
E000
E000
E000
E000
E000
FFF8
FFF8
FFF8
0000
0000
0300
0700
0600
0E00
0C00
1C00
ENDCHAR
STARTCHAR 013C
ENCODING 316
SWIDTH 192 0
DWIDTH 8 0
BBX 6 37 -1 -8
BITMAP
1C
1C
1C
1C
1C
1C
1C
1C
1C
1C
1C
1C
1C
1C
1C
1C
1C
1C
1C
1C
1C
1C
1C
1C
1C
1C
1C
1C
1C
00
00
0C
18
38
30
60
E0
ENDCHAR
STARTCHAR 013D
ENCODING 317
SWIDTH 408 0
DWIDTH 17 0
BBX 13 30 3 0
BITMAP
00C0
E1C0
E180
E380
E300
E600
E000
E000
E000
E000
E000
E000
E000
E000
E000
E000
E000
E000
E000
E000
E000
E000
E000
E000
E000
E000
E000
FFF8
FFF8
FFF8
ENDCHAR
STARTCHAR 013E
ENCODING 318
SWIDTH 336 0
DWIDTH 14 0
BBX 10 30 2 0
BITMAP
00C0
E1C0
E180
E380
E300
E600
E000
E000
E000
E000
E000
E000
E000
E000
E000
E000
E000
E000
E000
E000
E000
E000
E000
E000
E000
E000
E000
E000
E000
E000
ENDCHAR
STARTCHAR 0140
ENCODING 320
SWIDTH 216 0
DWIDTH 9 0
BBX 5 38 2 0
BITMAP
70
F8
F8
F8
70
00
00
00
00
70
70
70
70
70
70
70
70
70
70
70
70
70
70
70
70
70
70
70
70
70
70
70
70
70
70
70
70
70
ENDCHAR
STARTCHAR 0141
ENCODING 321
SWIDTH 432 0
DWIDTH 18 0
BBX 18 29 -1 0
BITMAP
070000
070000
070000
070000
070000
070000
070000
070000
070000
070300
070780
071E00
073C00
07F800
07E000
07C000
0F0000
1F0000
3F0000
F70000
670000
070000
070000
070000
070000
070000
07FFC0
07FFC0
07FFC0
ENDCHAR
STARTCHAR 0142
ENCODING 322
SWIDTH 288 0
DWIDTH 12 0
BBX 10 29 1 0
BITMAP
1C00
1C00
1C00
1C00
1C00
1C00
1C00
1C00
1C00
1C00
1C00
1C40
1DC0
1FC0
1F00
3E00
FC00
FC00
5C00
1C00
1C00
1C00
1C00
1C00
1C00
1C00
1C00
1C00
1C00
ENDCHAR
STARTCHAR 0143
ENCODING 323
SWIDTH 504 0
DWIDTH 21 0
BBX 15 38 3 0
BITMAP
0060
00C0
01C0
0180
0300
0700
0000
0000
0000
E00E
F00E
F00E
F80E
F80E
F80E
FC0E
FC0E
EC0E
EE0E
EE0E
E70E
E70E
E70E
E38E
E38E
E18E
E1CE
E1CE
E0EE
E0EE
E06E
E07E
E07E
E03E
E03E
E03E
E01E
E01E
ENDCHAR
STARTCHAR 0144
ENCODING 324
SWIDTH 432 0
DWIDTH 18 0
BBX 12 30 3 0
BITMAP
0180
0380
0300
0700
0600
0E00
0000
0000
0000
E780
FFE0
FFF0
F0F0
E070
E070
E070
E070
E070
E070
E070
E070
E070
E070
E070
E070
E070
E070
E070
E070
E070
ENDCHAR
STARTCHAR 0145
ENCODING 325
SWIDTH 504 0
DWIDTH 21 0
BBX 15 37 3 -8
BITMAP
E00E
F00E
F00E
F80E
F80E
F80E
FC0E
FC0E
EC0E
EE0E
EE0E
E70E
E70E
E70E
E38E
E38E
E18E
E1CE
E1CE
E0EE
E0EE
E06E
E07E
E07E
E03E
E03E
E03E
E01E
E01E
0000
0000
00C0
00C0
0180
0380
0300
0700
ENDCHAR
STARTCHAR 0146
ENCODING 326
SWIDTH 432 0
DWIDTH 18 0
BBX 12 29 3 -8
BITMAP
E780
FFE0
FFF0
F0F0
E070
E070
E070
E070
E070
E070
E070
E070
E070
E070
E070
E070
E070
E070
E070
E070
E070
0000
0000
0180
0380
0300
0700
0600
0C00
ENDCHAR
STARTCHAR 0147
ENCODING 327
SWIDTH 504 0
DWIDTH 21 0
BBX 15 37 3 0
BITMAP
1C70
1C60
0EE0
07C0
0780
0000
0000
0000
E00E
F00E
F00E
F80E
F80E
F80E
FC0E
FC0E
EC0E
EE0E
EE0E
E70E
E70E
E70E
E38E
E38E
E18E
E1CE
E1CE
E0EE
E0EE
E06E
E07E
E07E
E03E
E03E
E03E
E01E
E01E
ENDCHAR
STARTCHAR 0148
ENCODING 328
SWIDTH 432 0
DWIDTH 18 0
BBX 12 29 3 0
BITMAP
70E0
39C0
1980
1F80
0F00
0000
0000
0000
E780
FFE0
FFF0
F0F0
E070
E070
E070
E070
E070
E070
E070
E070
E070
E070
E070
E070
E070
E070
E070
E070
E070
ENDCHAR
STARTCHAR 014A
ENCODING 330
SWIDTH 504 0
DWIDTH 21 0
BBX 15 36 3 -7
BITMAP
E00E
F00E
F00E
F80E
F80E
F80E
FC0E
FC0E
EC0E
EE0E
EE1E
E71E
E71E
E71E
E39E
E39E
E19E
E1DE
E1DE
E0FE
E0FE
E0FE
E07E
E07E
E03E
E03E
E03E
E01E
E01E
001E
001E
001C
001C
007C
0078
0040
ENDCHAR
STARTCHAR 014B
ENCODING 331
SWIDTH 432 0
DWIDTH 18 0
BBX 12 28 3 -7
BITMAP
E780
FFE0
FFE0
F0F0
E070
E070
E070
E070
E070
E070
E070
E070
E070
E070
E070
E070
E070
E070
E070
E070
E070
0070
0070
0070
0070
01F0
03E0
03C0
ENDCHAR
STARTCHAR 014C
ENCODING 332
SWIDTH 456 0
DWIDTH 19 0
BBX 15 35 2 0
BITMAP
0FE0
1FF0
1FF0
0000
0000
0000
07C0
1FF0
3FF8
783C
701C
E00E
E00E
E00E
E00E
E00E
E00E
E00E
E00E
E00E
E00E
E00E
E00E
E00E
E00E
E00E
E00E
E00E
E00E
E00E
701C
783C
3FF8
1FF0
0FC0
ENDCHAR
STARTCHAR 014D
ENCODING 333
SWIDTH 408 0
DWIDTH 17 0
BBX 13 27 2 0
BITMAP
1FC0
3FE0
3FE0
0000
0000
0000
0FC0
3FE0
7FF0
7078
E038
E038
E038
E038
E038
E038
E038
E038
E038
E038
E038
E038
E038
7078
7FF0
3FE0
0F80
ENDCHAR
STARTCHAR 014F
ENCODING 335
SWIDTH 408 0
DWIDTH 17 0
BBX 13 29 2 0
BITMAP
1020
3060
18E0
1FC0
0F80
0000
0000
0000
0FC0
3FE0
7FF0
7078
E038
E038
E038
E038
E038
E038
E038
E038
E038
E038
E038
E038
E038
7078
7FF0
3FE0
0F80
ENDCHAR
STARTCHAR 0150
ENCODING 336
SWIDTH 456 0
DWIDTH 19 0
BBX 15 38 2 0
BITMAP
018C
039C
0718
0638
0E30
0C70
0000
0000
0000
07C0
1FF0
3FF8
783C
701C
E00E
E00E
E00E
E00E
E00E
E00E
E00E
E00E
E00E
E00E
E00E
E00E
E00E
E00E
E00E
E00E
E00E
E00E
E00E
701C
783C
3FF8
1FF0
0FC0
ENDCHAR
STARTCHAR 0151
ENCODING 337
SWIDTH 408 0
DWIDTH 17 0
BBX 13 30 2 0
BITMAP
0318
0738
0630
0E70
0C60
1CE0
0000
0000
0000
0FC0
3FE0
7FF0
7078
E038
E038
E038
E038
E038
E038
E038
E038
E038
E038
E038
E038
E038
7078
7FF0
3FE0
0F80
ENDCHAR
STARTCHAR 0152
ENCODING 338
SWIDTH 696 0
DWIDTH 29 0
BBX 25 29 2 0
BITMAP
0FCFFF80
1FEFFF80
3FFFFF80
783E0000
701E0000
E00E0000
E00E0000
E00E0000
E00E0000
E00E0000
E00E0000
E00E0000
E00E0000
E00FF800
E00FF800
E00FF800
E00E0000
E00E0000
E00E0000
E00E0000
E00E0000
E00E0000
E00E0000
E00E0000
701E0000
783E0000
3FFFFF80
1FEFFF80
0FCFFF80
ENDCHAR
STARTCHAR 0153
ENCODING 339
SWIDTH 648 0
DWIDTH 27 0
BBX 24 21 2 0
BITMAP
0F81F0
3FE7FC
7FFFFC
707E0E
E03C0E
E03C07
E03807
E03807
E03807
E03FFF
E03FFF
E03FFE
E03800
E03800
E03800
E03C06
E03C0E
707E0E
7FFFFC
3FE7FC
0F83F0
ENDCHAR
STARTCHAR 0154
ENCODING 340
SWIDTH 432 0
DWIDTH 18 0
BBX 14 38 3 0
BITMAP
00C0
0180
0380
0300
0600
0E00
0000
0000
0000
FFC0
FFE0
FFF0
E078
E03C
E01C
E01C
E01C
E01C
E01C
E01C
E038
E078
FFF0
FFE0
FFC0
E1C0
E1C0
E0E0
E0E0
E0E0
E070
E070
E070
E038
E038
E038
E01C
E01C
ENDCHAR
STARTCHAR 0155
ENCODING 341
SWIDTH 288 0
DWIDTH 12 0
BBX 9 30 3 0
BITMAP
0300
0600
0E00
0C00
1800
3800
0000
0000
0000
E780
FF00
FF00
F000
E000
E000
E000
E000
E000
E000
E000
E000
E000
E000
E000
E000
E000
E000
E000
E000
E000
ENDCHAR
STARTCHAR 0156
ENCODING 342
SWIDTH 432 0
DWIDTH 18 0
BBX 14 37 3 -8
BITMAP
FFC0
FFE0
FFF0
E078
E03C
E01C
E01C
E01C
E01C
E01C
E01C
E038
E078
FFF0
FFE0
FFC0
E1C0
E1C0
E0E0
E0E0
E0E0
E070
E070
E070
E038
E038
E038
E01C
E01C
0000
0000
00C0
01C0
0380
0300
0700
0600
ENDCHAR
STARTCHAR 0157
ENCODING 343
SWIDTH 288 0
DWIDTH 12 0
BBX 12 29 0 -8
BITMAP
1CF0
1FE0
1FE0
1E00
1C00
1C00
1C00
1C00
1C00
1C00
1C00
1C00
1C00
1C00
1C00
1C00
1C00
1C00
1C00
1C00
1C00
0000
0000
1800
3800
7000
6000
E000
C000
ENDCHAR
STARTCHAR 0158
ENCODING 344
SWIDTH 432 0
DWIDTH 18 0
BBX 14 37 3 0
BITMAP
38E0
18C0
1DC0
0F80
0F00
0000
0000
0000
FFC0
FFE0
FFF0
E078
E03C
E01C
E01C
E01C
E01C
E01C
E01C
E038
E078
FFF0
FFE0
FFC0
E1C0
E1C0
E0E0
E0E0
E0E0
E070
E070
E070
E038
E038
E038
E01C
E01C
ENDCHAR
STARTCHAR 0159
ENCODING 345
SWIDTH 288 0
DWIDTH 12 0
BBX 9 29 3 0
BITMAP
C380
E700
7600
3E00
3C00
0000
0000
0000
E780
FF00
FF00
F000
E000
E000
E000
E000
E000
E000
E000
E000
E000
E000
E000
E000
E000
E000
E000
E000
E000
ENDCHAR
STARTCHAR 015A
ENCODING 346
SWIDTH 408 0
DWIDTH 17 0
BBX 14 38 2 0
BITMAP
00C0
0180
0380
0300
0700
0600
0000
0000
0000
0F80
3FE0
7FF0
F078
E038
E038
E038
E038
E018
E000
7000
7800
3C00
1F00
0F80
03C0
01F0
00F0
0078
0038
C01C
E01C
E01C
E018
E038
7078
7FF0
3FE0
0FC0
ENDCHAR
STARTCHAR 015B
ENCODING 347
SWIDTH 384 0
DWIDTH 16 0
BBX 12 30 2 0
BITMAP
0180
0380
0300
0700
0600
0E00
0000
0000
0000
1F80
7FC0
7FE0
F0F0
E070
E070
E000
E000
7800
3E00
1F80
07E0
01E0
0070
0070
E070
E070
E070
7FF0
7FE0
1F80
ENDCHAR
STARTCHAR 015C
ENCODING 348
SWIDTH 408 0
DWIDTH 17 0
BBX 14 37 2 0
BITMAP
0F00
0F80
1DC0
18C0
38E0
0000
0000
0000
0F80
3FE0
7FF0
F078
E038
E038
E038
E038
E018
E000
7000
7800
3C00
1F00
0F80
03C0
01F0
00F0
0078
0038
C01C
E01C
E01C
E018
E038
7078
7FF0
3FE0
0FC0
ENDCHAR
STARTCHAR 015D
ENCODING 349
SWIDTH 384 0
DWIDTH 16 0
BBX 12 29 2 0
BITMAP
0F00
1F00
1980
39C0
70E0
0000
0000
0000
1F80
7FC0
7FE0
F0F0
E070
E070
E000
E000
7800
3E00
1F80
07E0
01E0
0070
0070
E070
E070
E070
7FF0
7FE0
1F80
ENDCHAR
STARTCHAR 015E
ENCODING 350
SWIDTH 408 0
DWIDTH 17 0
BBX 14 37 2 -8
BITMAP
0F80
3FE0
7FF0
F078
E038
E038
E038
E038
E038
E000
F000
7800
3C00
1F00
0F80
07C0
01E0
00F0
0078
0038
003C
E01C
E01C
E01C
E038
F038
78F0
3FF0
1FE0
0300
0180
0180
01C0
00C0
01C0
0780
0700
ENDCHAR
STARTCHAR 015F
ENCODING 351
SWIDTH 384 0
DWIDTH 16 0
BBX 12 29 2 -8
BITMAP
1F80
3FC0
7FE0
F0F0
E070
E070
E000
E000
F000
7E00
3F80
0FC0
03E0
00F0
0070
C070
E070
E070
F0F0
7FE0
3FC0
0600
0300
0180
0180
0180
0180
0F80
0E00
ENDCHAR
STARTCHAR 0160
ENCODING 352
SWIDTH 408 0
DWIDTH 17 0
BBX 14 37 2 0
BITMAP
38E0
18C0
1DC0
0F80
0700
0000
0000
0000
0F80
3FE0
7FF0
F078
E038
E038
E038
E038
E018
E000
7000
7800
3C00
1F00
0F80
03C0
01F0
00F0
0078
0038
C01C
E01C
E01C
E018
E038
7078
7FF0
3FE0
0FC0
ENDCHAR
STARTCHAR 0161
ENCODING 353
SWIDTH 384 0
DWIDTH 16 0
BBX 12 29 2 0
BITMAP
70E0
39C0
1980
1F80
0F00
0000
0000
0000
1F80
7FC0
7FE0
F0F0
E070
E070
E000
E000
7800
3E00
1F80
07E0
01E0
0070
0070
E070
E070
E070
7FF0
7FE0
1F80
ENDCHAR
STARTCHAR 0162
ENCODING 354
SWIDTH 432 0
DWIDTH 18 0
BBX 15 37 1 -8
BITMAP
FFFE
FFFE
7FFE
0380
0380
0380
0380
0380
0380
0380
0380
0380
0380
0380
0380
0380
0380
0380
0380
0380
0380
0380
0380
0380
0380
0380
0380
0380
0380
01C0
00C0
0060
0060
0060
0060
01E0
03C0
ENDCHAR
STARTCHAR 0163
ENCODING 355
SWIDTH 264 0
DWIDTH 11 0
BBX 9 33 1 -7
BITMAP
3800
3800
3800
3800
3800
FF80
FF80
FF80
3800
3800
3800
3800
3800
3800
3800
3800
3800
3800
3800
3800
3800
3800
3C00
1F00
1F80
0F80
0700
0300
0380
0380
0380
0F00
0E00
ENDCHAR
STARTCHAR 0164
ENCODING 356
SWIDTH 432 0
DWIDTH 18 0
BBX 15 37 1 0
BITMAP
1C30
0E70
06E0
07C0
03C0
0000
0000
0000
FFFE
FFFE
7FFE
0380
0380
0380
0380
0380
0380
0380
0380
0380
0380
0380
0380
0380
0380
0380
0380
0380
0380
0380
0380
0380
0380
0380
0380
0380
0380
ENDCHAR
STARTCHAR 0165
ENCODING 357
SWIDTH 264 0
DWIDTH 11 0
BBX 11 30 1 0
BITMAP
0060
00E0
00C0
01C0
3980
3B00
3800
3800
3800
FF80
FF80
FF80
3800
3800
3800
3800
3800
3800
3800
3800
3800
3800
3800
3800
3800
3800
3C00
1F00
1F80
0F80
ENDCHAR
STARTCHAR 0166
ENCODING 358
SWIDTH 432 0
DWIDTH 18 0
BBX 15 29 1 0
BITMAP
FFFE
FFFE
7FFE
0380
0380
0380
0380
0380
0380
0380
0380
3FF8
3FF8
3FF8
0380
0380
0380
0380
0380
0380
0380
0380
0380
0380
0380
0380
0380
0380
0380
ENDCHAR
STARTCHAR 0167
ENCODING 359
SWIDTH 264 0
DWIDTH 11 0
BBX 9 26 1 0
BITMAP
3800
3800
3800
3800
3800
FF80
FF80
FF80
3800
3800
3800
FF80
FF80
FF80
3800
3800
3800
3800
3800
3800
3800
3800
3C00
1F00
1F80
0F80
ENDCHAR
STARTCHAR 0168
ENCODING 360
SWIDTH 480 0
DWIDTH 20 0
BBX 14 37 3 0
BITMAP
0E10
1FF8
3FF0
10E0
0000
0000
0000
0000
E01C
E01C
E01C
E01C
E01C
E01C
E01C
E01C
E01C
E01C
E01C
E01C
E01C
E01C
E01C
E01C
E01C
E01C
E01C
E01C
E01C
E01C
E01C
E01C
E038
7038
7FF0
3FE0
0FC0
ENDCHAR
STARTCHAR 0169
ENCODING 361
SWIDTH 432 0
DWIDTH 18 0
BBX 13 29 2 0
BITMAP
1E10
3FF8
3FF0
20E0
0000
0000
0000
0000
E038
E038
E038
E038
E038
E038
E038
E038
E038
E038
E038
E038
E038
E038
E038
E038
F038
7078
7FF8
3FF8
1F38
ENDCHAR
STARTCHAR 016A
ENCODING 362
SWIDTH 480 0
DWIDTH 20 0
BBX 14 35 3 0
BITMAP
1FE0
1FE0
1FE0
0000
0000
0000
E01C
E01C
E01C
E01C
E01C
E01C
E01C
E01C
E01C
E01C
E01C
E01C
E01C
E01C
E01C
E01C
E01C
E01C
E01C
E01C
E01C
E01C
E01C
E01C
E038
7038
7FF0
3FE0
0FC0
ENDCHAR
STARTCHAR 016B
ENCODING 363
SWIDTH 432 0
DWIDTH 18 0
BBX 13 27 2 0
BITMAP
1FE0
3FE0
3FE0
0000
0000
0000
E038
E038
E038
E038
E038
E038
E038
E038
E038
E038
E038
E038
E038
E038
E038
E038
F038
7078
7FF8
3FF8
1F38
ENDCHAR
STARTCHAR 016C
ENCODING 364
SWIDTH 480 0
DWIDTH 20 0
BBX 14 37 3 0
BITMAP
3020
1860
1860
0FC0
0780
0000
0000
0000
E01C
E01C
E01C
E01C
E01C
E01C
E01C
E01C
E01C
E01C
E01C
E01C
E01C
E01C
E01C
E01C
E01C
E01C
E01C
E01C
E01C
E01C
E01C
E01C
E038
7038
7FF0
3FE0
0FC0
ENDCHAR
STARTCHAR 016D
ENCODING 365
SWIDTH 432 0
DWIDTH 18 0
BBX 13 29 2 0
BITMAP
1020
3060
18E0
1FC0
0780
0000
0000
0000
E038
E038
E038
E038
E038
E038
E038
E038
E038
E038
E038
E038
E038
E038
E038
E038
F038
7078
7FF8
3FF8
1F38
ENDCHAR
STARTCHAR 016E
ENCODING 366
SWIDTH 480 0
DWIDTH 20 0
BBX 14 41 3 0
BITMAP
0780
0FC0
1860
1060
3060
1060
1860
0FC0
0780
0000
0000
0000
E01C
E01C
E01C
E01C
E01C
E01C
E01C
E01C
E01C
E01C
E01C
E01C
E01C
E01C
E01C
E01C
E01C
E01C
E01C
E01C
E01C
E01C
E01C
E01C
E038
7038
7FF0
3FE0
0FC0
ENDCHAR
STARTCHAR 016F
ENCODING 367
SWIDTH 432 0
DWIDTH 18 0
BBX 13 33 2 0
BITMAP
0780
1FC0
18E0
3060
3060
3060
18E0
1FC0
0780
0000
0000
0000
E038
E038
E038
E038
E038
E038
E038
E038
E038
E038
E038
E038
E038
E038
E038
E038
F038
7078
7FF8
3FF8
1F38
ENDCHAR
STARTCHAR 0170
ENCODING 368
SWIDTH 480 0
DWIDTH 20 0
BBX 14 38 3 0
BITMAP
0318
0718
0638
0E30
0C70
1CE0
0000
0000
0000
E01C
E01C
E01C
E01C
E01C
E01C
E01C
E01C
E01C
E01C
E01C
E01C
E01C
E01C
E01C
E01C
E01C
E01C
E01C
E01C
E01C
E01C
E01C
E01C
E038
7038
7FF0
3FE0
0FC0
ENDCHAR
STARTCHAR 0171
ENCODING 369
SWIDTH 432 0
DWIDTH 18 0
BBX 13 30 2 0
BITMAP
0318
0738
0630
0E70
0C60
1CE0
0000
0000
0000
E038
E038
E038
E038
E038
E038
E038
E038
E038
E038
E038
E038
E038
E038
E038
E038
F038
7078
7FF8
3FF8
1F38
ENDCHAR
STARTCHAR 0172
ENCODING 370
SWIDTH 480 0
DWIDTH 20 0
BBX 14 36 3 -7
BITMAP
E01C
E01C
E01C
E01C
E01C
E01C
E01C
E01C
E01C
E01C
E01C
E01C
E01C
E01C
E01C
E01C
E01C
E01C
E01C
E01C
E01C
E01C
E01C
E01C
E038
7038
7FF0
3FE0
0FC0
0600
0600
0C00
0C00
0C00
0F80
0780
ENDCHAR
STARTCHAR 0173
ENCODING 371
SWIDTH 432 0
DWIDTH 18 0
BBX 14 28 2 -7
BITMAP
E038
E038
E038
E038
E038
E038
E038
E038
E038
E038
E038
E038
E038
E038
E038
E038
F038
7078
7FF8
3FF8
1F38
0038
0030
0060
0060
0060
0070
003C
ENDCHAR
STARTCHAR 0174
ENCODING 372
SWIDTH 624 0
DWIDTH 26 0
BBX 24 37 1 0
BITMAP
003C00
007C00
006E00
00E700
01C380
000000
000000
000000
E01807
E01C07
703C0E
703C0E
703C0E
703C0E
703C0E
383E0C
387E1C
38761C
38661C
38661C
18661C
1C6718
1C6738
1CE338
1CE338
0CC338
0EC330
0EC3B0
0EC3F0
0FC1F0
0FC1F0
0781F0
0781E0
0781E0
0781E0
0781E0
0380E0
ENDCHAR
STARTCHAR 0175
ENCODING 373
SWIDTH 552 0
DWIDTH 23 0
BBX 21 29 1 0
BITMAP
007000
00F800
01DC00
018C00
038E00
000000
000000
000000
E07038
E07038
E07038
607830
70F870
70F870
70D870
30D870
30D860
39DCE0
398CE0
398CE0
198CC0
198CC0
1F8FC0
1F07C0
0F07C0
0F0780
0F0780
0F0780
0E0380
ENDCHAR
STARTCHAR 0176
ENCODING 374
SWIDTH 432 0
DWIDTH 18 0
BBX 15 37 1 0
BITMAP
03C0
07C0
06E0
0E70
1C30
0000
0000
0000
F00E
700E
701C
381C
381C
3838
1C38
1C38
0C70
0E70
0E60
06E0
07E0
07C0
03C0
03C0
0380
0380
0380
0380
0380
0380
0380
0380
0380
0380
0380
0380
0380
ENDCHAR
STARTCHAR 0177
ENCODING 375
SWIDTH 360 0
DWIDTH 15 0
BBX 14 37 1 -8
BITMAP
0700
0F80
1DC0
18C0
38E0
0000
0000
0000
E03C
E038
E038
7038
7070
7070
7070
3870
3860
38E0
38E0
18E0
1CC0
1DC0
1DC0
0DC0
0F80
0F80
0780
0780
0700
0700
0700
0600
0E00
0E00
7C00
7C00
7000
ENDCHAR
STARTCHAR 0178
ENCODING 376
SWIDTH 432 0
DWIDTH 18 0
BBX 15 38 1 0
BITMAP
1C70
1E78
3E78
1E78
1C70
0000
0000
0000
0000
F00E
700E
701C
381C
381C
3838
1C38
1C38
0C70
0E70
0E60
06E0
07E0
07C0
03C0
03C0
0380
0380
0380
0380
0380
0380
0380
0380
0380
0380
0380
0380
0380
ENDCHAR
STARTCHAR 0179
ENCODING 377
SWIDTH 384 0
DWIDTH 16 0
BBX 14 38 1 0
BITMAP
0060
00C0
01C0
0180
0300
0700
0000
0000
0000
FFFC
FFFC
7FFC
0038
0038
0078
0070
00F0
00E0
00E0
01C0
01C0
03C0
0380
0380
0700
0700
0E00
0E00
1E00
1C00
1C00
3800
3800
7000
7000
FFF8
FFFC
FFFC
ENDCHAR
STARTCHAR 017A
ENCODING 378
SWIDTH 360 0
DWIDTH 15 0
BBX 13 30 1 0
BITMAP
00C0
01C0
0180
0300
0700
0600
0000
0000
0000
7FF8
7FF8
7FF8
0070
00F0
01E0
01C0
03C0
0380
0780
0700
0F00
0E00
1E00
1C00
3C00
7800
7000
FFF0
FFF8
FFF8
ENDCHAR
STARTCHAR 017B
ENCODING 379
SWIDTH 384 0
DWIDTH 16 0
BBX 14 38 1 0
BITMAP
0380
0780
07C0
0780
0380
0000
0000
0000
0000
FFFC
FFFC
7FFC
0038
0038
0078
0070
00F0
00E0
00E0
01C0
01C0
03C0
0380
0380
0700
0700
0E00
0E00
1E00
1C00
1C00
3800
3800
7000
7000
FFF8
FFFC
FFFC
ENDCHAR
STARTCHAR 017C
ENCODING 380
SWIDTH 360 0
DWIDTH 15 0
BBX 13 30 1 0
BITMAP
0700
0F80
0F80
0F80
0700
0000
0000
0000
0000
7FF8
7FF8
7FF8
0070
00F0
01E0
01C0
03C0
0380
0780
0700
0F00
0E00
1E00
1C00
3C00
7800
7000
FFF0
FFF8
FFF8
ENDCHAR
STARTCHAR 017D
ENCODING 381
SWIDTH 384 0
DWIDTH 16 0
BBX 14 37 1 0
BITMAP
1870
1CE0
0EC0
07C0
0780
0000
0000
0000
FFFC
FFFC
7FFC
0038
0038
0078
0070
00F0
00E0
00E0
01C0
01C0
03C0
0380
0380
0700
0700
0E00
0E00
1E00
1C00
1C00
3800
3800
7000
7000
FFF8
FFFC
FFFC
ENDCHAR
STARTCHAR 017E
ENCODING 382
SWIDTH 360 0
DWIDTH 15 0
BBX 13 29 1 0
BITMAP
38E0
18E0
1DC0
0F80
0780
0000
0000
0000
7FF8
7FF8
7FF8
0070
00F0
01E0
01C0
03C0
0380
0780
0700
0F00
0E00
1E00
1C00
3C00
7800
7000
FFF0
FFF8
FFF8
ENDCHAR
STARTCHAR 018F
ENCODING 399
SWIDTH 528 0
DWIDTH 22 0
BBX 17 29 2 0
BITMAP
07F000
1FFC00
3FFE00
780F00
780700
700380
E00380
000380
000380
000380
000380
000380
000380
FFFF80
FFFF80
FFFF80
E00380
E00380
E00380
E00380
E00380
E00380
E00380
F00380
700700
7C0F00
3FFE00
1FFC00
07F000
ENDCHAR
STARTCHAR 0192
ENCODING 402
SWIDTH 456 0
DWIDTH 19 0
BBX 17 37 1 -8
BITMAP
000780
001F80
003F80
003800
007800
007000
007000
007000
007000
007000
00E000
00E000
07FC00
07FE00
07FE00
00E000
01C000
01C000
01C000
01C000
01C000
01C000
038000
038000
038000
038000
038000
038000
070000
070000
070000
070000
0F0000
0E0000
7E0000
FC0000
F80000
ENDCHAR
STARTCHAR 01A0
ENCODING 416
SWIDTH 456 0
DWIDTH 19 0
BBX 15 33 2 0
BITMAP
0004
000C
000C
001C
07F8
1FF0
3FF8
783C
701C
E00E
E00E
E00E
E00E
E00E
E00E
E00E
E00E
E00E
E00E
E00E
E00E
E00E
E00E
E00E
E00E
E00E
E00E
E00E
701C
783C
3FF8
1FF0
0FC0
ENDCHAR
STARTCHAR 01A1
ENCODING 417
SWIDTH 408 0
DWIDTH 17 0
BBX 13 25 2 0
BITMAP
0008
0008
0018
0038
0FF0
3FE0
7FF0
7078
E038
E038
E038
E038
E038
E038
E038
E038
E038
E038
E038
E038
E038
7078
7FF0
3FE0
0F80
ENDCHAR
STARTCHAR 01AF
ENCODING 431
SWIDTH 480 0
DWIDTH 20 0
BBX 17 33 3 0
BITMAP
000080
000180
000180
000380
E01F00
E01E00
E01C00
E01C00
E01C00
E01C00
E01C00
E01C00
E01C00
E01C00
E01C00
E01C00
E01C00
E01C00
E01C00
E01C00
E01C00
E01C00
E01C00
E01C00
E01C00
E01C00
E01C00
E01C00
E03C00
703800
7FF000
3FE000
0FC000
ENDCHAR
STARTCHAR 01B0
ENCODING 432
SWIDTH 432 0
DWIDTH 18 0
BBX 16 25 2 0
BITMAP
0001
0003
0003
0007
E03E
E038
E038
E038
E038
E038
E038
E038
E038
E038
E038
E038
E038
E038
E038
E038
F038
7078
7FF8
3FF8
1F38
ENDCHAR
STARTCHAR 01CD
ENCODING 461
SWIDTH 408 0
DWIDTH 17 0
BBX 16 37 1 0
BITMAP
1C70
0C60
0EE0
07C0
0380
0000
0000
0000
0380
0380
07C0
07C0
07C0
06C0
0EE0
0EE0
0EE0
0C60
0C60
1C70
1C70
1C70
1830
3838
3838
3838
3838
301C
701C
7FFC
7FFC
701C
E00E
E00E
E00E
E00E
E007
ENDCHAR
STARTCHAR 01CE
ENCODING 462
SWIDTH 408 0
DWIDTH 17 0
BBX 13 29 2 0
BITMAP
38E0
18C0
1DC0
0F80
0700
0000
0000
0000
0F80
3FE0
7FF0
7070
F038
E038
0038
0038
03F8
1FF8
7FF8
F838
E038
E038
E038
E038
E038
F078
FFF8
7FF8
1F38
ENDCHAR
STARTCHAR 01D4
ENCODING 468
SWIDTH 432 0
DWIDTH 18 0
BBX 13 29 2 0
BITMAP
3860
1CE0
0DC0
0F80
0780
0000
0000
0000
E038
E038
E038
E038
E038
E038
E038
E038
E038
E038
E038
E038
E038
E038
E038
E038
F038
7078
7FF8
3FF8
1F38
ENDCHAR
STARTCHAR 01E5
ENCODING 485
SWIDTH 432 0
DWIDTH 18 0
BBX 15 29 2 -8
BITMAP
1F38
3FF8
7FF8
7078
E038
E038
E038
E038
E038
E3FE
E3FE
E3FE
E038
E038
E038
E038
E038
F078
7FF8
3FB8
1F38
0038
0038
0038
0070
00F0
0FE0
0FC0
0F00
ENDCHAR
STARTCHAR 01E7
ENCODING 487
SWIDTH 408 0
DWIDTH 17 0
BBX 13 37 2 -8
BITMAP
38E0
18E0
1DC0
0F80
0780
0000
0000
0000
1F38
3FF8
7FF8
7078
E038
E038
E038
E038
E038
E038
E038
E038
E038
E038
E038
E038
E038
F078
7FF8
3FB8
1F38
0038
0038
0038
0070
00F0
0FE0
0FC0
0F00
ENDCHAR
STARTCHAR 01E9
ENCODING 489
SWIDTH 408 0
DWIDTH 17 0
BBX 13 37 3 0
BITMAP
71C0
31C0
3B80
1F00
0F00
0000
0000
0000
E000
E000
E000
E000
E000
E000
E000
E000
E070
E0E0
E1E0
E1C0
E380
E700
E700
EF00
FF00
FB80
FB80
F180
E1C0
E1C0
E0C0
E0E0
E0E0
E070
E070
E070
E038
ENDCHAR
STARTCHAR 01EF
ENCODING 495
SWIDTH 432 0
DWIDTH 18 0
BBX 15 37 2 -8
BITMAP
1870
1CE0
0EC0
07C0
0780
0000
0000
0000
7FF8
7FF8
7FF8
00F0
01E0
03C0
0380
0700
0E00
1C00
3C00
7FC0
3FE0
00F0
0038
003C
001C
001C
000E
000E
000E
001C
001C
001C
0038
00F8
FFF0
FFC0
7F00
ENDCHAR
STARTCHAR 01FF
ENCODING 511
SWIDTH 408 0
DWIDTH 17 0
BBX 13 32 2 -2
BITMAP
00C0
01C0
0180
0300
0700
0600
0000
0010
0018
0FF8
3FF0
7FF0
7078
F0F8
E0F8
E1F8
E1F8
E3B8
E3B8
E338
E738
E638
EE38
EC38
FC38
F838
7878
7FF0
7FE0
7FC0
E000
2000
ENDCHAR
STARTCHAR 0218
ENCODING 536
SWIDTH 408 0
DWIDTH 17 0
BBX 14 37 2 -8
BITMAP
0F80
3FE0
7FF0
F078
E038
E038
E038
E038
E018
E000
7000
7800
3C00
1F00
0F80
03C0
01F0
00F0
0078
0038
C01C
E01C
E01C
E018
E038
7078
7FF0
3FE0
0FC0
0000
0000
00C0
0180
0380
0300
0700
0600
ENDCHAR
STARTCHAR 0219
ENCODING 537
SWIDTH 384 0
DWIDTH 16 0
BBX 12 29 2 -8
BITMAP
1F80
7FC0
7FE0
F0F0
E070
E070
E000
E000
7800
3E00
1F80
07E0
01E0
0070
0070
E070
E070
E070
7FF0
7FE0
1F80
0000
0000
0180
0380
0300
0700
0600
0C00
ENDCHAR
STARTCHAR 021A
ENCODING 538
SWIDTH 432 0
DWIDTH 18 0
BBX 15 37 1 -8
BITMAP
FFFE
FFFE
7FFE
0380
0380
0380
0380
0380
0380
0380
0380
0380
0380
0380
0380
0380
0380
0380
0380
0380
0380
0380
0380
0380
0380
0380
0380
0380
0380
0000
0000
0300
0700
0600
0E00
0C00
1800
ENDCHAR
STARTCHAR 021B
ENCODING 539
SWIDTH 264 0
DWIDTH 11 0
BBX 9 34 1 -8
BITMAP
3800
3800
3800
3800
3800
FF80
FF80
FF80
3800
3800
3800
3800
3800
3800
3800
3800
3800
3800
3800
3800
3800
3800
3C00
1F00
1F80
0F80
0000
0000
0180
0300
0700
0600
0E00
0C00
ENDCHAR
STARTCHAR 021F
ENCODING 543
SWIDTH 432 0
DWIDTH 18 0
BBX 12 37 3 0
BITMAP
30E0
39C0
1D80
0F80
0F00
0000
0000
0000
E000
E000
E000
E000
E000
E000
E000
E000
E780
FFE0
FFF0
F0F0
E070
E070
E070
E070
E070
E070
E070
E070
E070
E070
E070
E070
E070
E070
E070
E070
E070
ENDCHAR
STARTCHAR 0228
ENCODING 552
SWIDTH 432 0
DWIDTH 18 0
BBX 13 36 3 -7
BITMAP
FFF8
FFF8
FFF8
E000
E000
E000
E000
E000
E000
E000
E000
E000
E000
FF80
FFC0
FFC0
E000
E000
E000
E000
E000
E000
E000
E000
E000
E000
FFF8
FFF8
FFF8
0300
0180
0180
0180
0180
0780
0700
ENDCHAR
STARTCHAR 0229
ENCODING 553
SWIDTH 408 0
DWIDTH 17 0
BBX 13 28 2 -7
BITMAP
0F80
3FE0
7FF0
7078
F038
E038
E038
E038
E038
FFF8
FFF8
FFF8
E000
E000
E000
E000
E038
7078
78F0
3FF0
1FC0
0300
0180
0180
0180
0180
0780
0700
ENDCHAR
STARTCHAR 0237
ENCODING 567
SWIDTH 192 0
DWIDTH 8 0
BBX 7 29 -1 -8
BITMAP
0E
0E
0E
0E
0E
0E
0E
0E
0E
0E
0E
0E
0E
0E
0E
0E
0E
0E
0E
0E
0E
0E
0C
1C
1C
1C
FC
F8
E0
ENDCHAR
STARTCHAR 0259
ENCODING 601
SWIDTH 408 0
DWIDTH 17 0
BBX 13 21 2 0
BITMAP
1F80
3FE0
7FF0
F070
E038
0038
0038
0038
0038
FFF8
FFF8
FFF8
E038
E038
E038
E038
E038
F070
7FF0
3FE0
0F80
ENDCHAR
STARTCHAR 0292
ENCODING 658
SWIDTH 432 0
DWIDTH 18 0
BBX 15 29 2 -8
BITMAP
7FF8
7FF8
7FF8
00F0
01E0
03C0
0380
0700
0E00
1C00
3C00
7FC0
3FE0
00F0
0038
003C
001C
001C
000E
000E
000E
001C
001C
001C
0038
00F8
FFF0
FFC0
7F00
ENDCHAR
STARTCHAR 02BB
ENCODING 699
SWIDTH 120 0
DWIDTH 5 0
BBX 5 8 0 20
BITMAP
E0
60
70
70
30
30
38
18
ENDCHAR
STARTCHAR 02BC
ENCODING 700
SWIDTH 120 0
DWIDTH 5 0
BBX 5 8 0 21
BITMAP
38
38
70
70
70
60
E0
E0
ENDCHAR
STARTCHAR 02C6
ENCODING 710
SWIDTH 240 0
DWIDTH 10 0
BBX 9 5 1 24
BITMAP
1E00
3E00
3700
7380
E180
ENDCHAR
STARTCHAR 02C7
ENCODING 711
SWIDTH 288 0
DWIDTH 12 0
BBX 9 5 1 24
BITMAP
E180
7380
3700
3E00
1E00
ENDCHAR
STARTCHAR 02C9
ENCODING 713
SWIDTH 192 0
DWIDTH 8 0
BBX 8 3 0 27
BITMAP
FF
FF
FF
ENDCHAR
STARTCHAR 02D8
ENCODING 728
SWIDTH 264 0
DWIDTH 11 0
BBX 9 5 1 23
BITMAP
8100
C180
E300
7F00
3C00
ENDCHAR
STARTCHAR 02D9
ENCODING 729
SWIDTH 168 0
DWIDTH 7 0
BBX 5 5 1 25
BITMAP
70
F0
F8
F0
70
ENDCHAR
STARTCHAR 02DA
ENCODING 730
SWIDTH 264 0
DWIDTH 11 0
BBX 9 9 1 24
BITMAP
3C00
7F00
E300
C180
C180
C180
E300
7F00
3E00
ENDCHAR
STARTCHAR 02DB
ENCODING 731
SWIDTH 120 0
DWIDTH 5 0
BBX 5 8 0 -8
BITMAP
30
60
60
C0
C0
C0
F8
78
ENDCHAR
STARTCHAR 02DC
ENCODING 732
SWIDTH 312 0
DWIDTH 13 0
BBX 11 4 1 25
BITMAP
3840
7FE0
FFC0
4380
ENDCHAR
STARTCHAR 02DD
ENCODING 733
SWIDTH 312 0
DWIDTH 13 0
BBX 11 6 1 24
BITMAP
18E0
38C0
31C0
7380
6300
C700
ENDCHAR
STARTCHAR 0300
ENCODING 768
SWIDTH 0 0
DWIDTH 0 0
BBX 6 6 -6 24
BITMAP
E0
60
70
38
18
1C
ENDCHAR
STARTCHAR 0301
ENCODING 769
SWIDTH 0 0
DWIDTH 0 0
BBX 6 6 -6 24
BITMAP
0C
18
38
30
60
E0
ENDCHAR
STARTCHAR 0302
ENCODING 770
SWIDTH 0 0
DWIDTH 0 0
BBX 9 5 -10 24
BITMAP
3C00
3E00
7600
E700
C380
ENDCHAR
STARTCHAR 0303
ENCODING 771
SWIDTH 0 0
DWIDTH 0 0
BBX 11 4 -11 25
BITMAP
3840
7FE0
FFC0
4380
ENDCHAR
STARTCHAR 0304
ENCODING 772
SWIDTH 0 0
DWIDTH 0 0
BBX 8 3 -8 26
BITMAP
FF
FF
FF
ENDCHAR
STARTCHAR 0306
ENCODING 774
SWIDTH 0 0
DWIDTH 0 0
BBX 9 5 -10 24
BITMAP
4080
C180
6380
7F00
1E00
ENDCHAR
STARTCHAR 0307
ENCODING 775
SWIDTH 0 0
DWIDTH 0 0
BBX 5 5 -5 25
BITMAP
70
F8
F8
F8
70
ENDCHAR
STARTCHAR 0308
ENCODING 776
SWIDTH 0 0
DWIDTH 0 0
BBX 11 5 -11 25
BITMAP
71C0
FBE0
FBE0
FBE0
71C0
ENDCHAR
STARTCHAR 0309
ENCODING 777
SWIDTH 0 0
DWIDTH 0 0
BBX 8 8 -17 22
BITMAP
3C
7E
E6
43
06
06
0C
18
ENDCHAR
STARTCHAR 030A
ENCODING 778
SWIDTH 0 0
DWIDTH 0 0
BBX 9 9 -9 24
BITMAP
1E00
3F00
6180
4180
C180
4180
6180
3F00
1E00
ENDCHAR
STARTCHAR 030B
ENCODING 779
SWIDTH 0 0
DWIDTH 0 0
BBX 10 6 -11 24
BITMAP
18C0
31C0
7380
6300
E700
C600
ENDCHAR
STARTCHAR 030C
ENCODING 780
SWIDTH 0 0
DWIDTH 0 0
BBX 9 5 -10 24
BITMAP
C380
E700
7600
3E00
3C00
ENDCHAR
STARTCHAR 0312
ENCODING 786
SWIDTH 0 0
DWIDTH 0 0
BBX 5 6 -6 24
BITMAP
18
38
30
60
E0
C0
ENDCHAR
STARTCHAR 0313
ENCODING 787
SWIDTH 0 0
DWIDTH 0 0
BBX 6 6 -6 24
BITMAP
0C
18
38
30
60
E0
ENDCHAR
STARTCHAR 031B
ENCODING 795
SWIDTH 0 0
DWIDTH 0 0
BBX 4 5 -5 19
BITMAP
10
30
30
E0
C0
ENDCHAR
STARTCHAR 0323
ENCODING 803
SWIDTH 0 0
DWIDTH 0 0
BBX 5 4 -5 -8
BITMAP
70
F8
F8
70
ENDCHAR
STARTCHAR 0326
ENCODING 806
SWIDTH 0 0
DWIDTH 0 0
BBX 6 6 -7 -8
BITMAP
0C
18
38
30
60
E0
ENDCHAR
STARTCHAR 0327
ENCODING 807
SWIDTH 0 0
DWIDTH 0 0
BBX 5 8 -5 -8
BITMAP
60
30
18
18
18
18
F8
F0
ENDCHAR
STARTCHAR 0328
ENCODING 808
SWIDTH 0 0
DWIDTH 0 0
BBX 5 8 -5 -8
BITMAP
30
60
E0
C0
C0
C0
F8
78
ENDCHAR
STARTCHAR 0335
ENCODING 821
SWIDTH 0 0
DWIDTH 0 0
BBX 11 3 -11 23
BITMAP
FFE0
FFE0
FFE0
ENDCHAR
STARTCHAR 0336
ENCODING 822
SWIDTH 0 0
DWIDTH 0 0
BBX 18 3 -18 21
BITMAP
7FFFC0
FFFFC0
FFFFC0
ENDCHAR
STARTCHAR 0337
ENCODING 823
SWIDTH 0 0
DWIDTH 0 0
BBX 16 12 -13 6
BITMAP
0006
000F
003E
0078
00F0
03C0
0780
0F00
3C00
7800
F000
C000
ENDCHAR
STARTCHAR 0338
ENCODING 824
SWIDTH 0 0
DWIDTH 0 0
BBX 16 32 -16 -2
BITMAP
0003
0006
0006
000E
000C
001C
0018
0018
0030
0030
0070
0060
00E0
00C0
00C0
0180
0180
0380
0300
0300
0600
0600
0C00
0C00
1C00
1800
1800
3000
3000
6000
6000
E000
ENDCHAR
STARTCHAR 0394
ENCODING 916
SWIDTH 504 0
DWIDTH 21 0
BBX 20 29 0 0
BITMAP
007000
007000
00F000
00F800
00D800
01D800
01DC00
018C00
038C00
038E00
030600
070600
070700
060700
0E0300
0E0380
0C0380
1C0180
1C01C0
1801C0
3800C0
3800E0
3000E0
700060
700070
700070
FFFFF0
FFFFF0
FFFFF0
ENDCHAR
STARTCHAR 03A9
ENCODING 937
SWIDTH 480 0
DWIDTH 20 0
BBX 16 29 2 0
BITMAP
07E0
1FF8
3FFC
3C3C
781E
700E
700E
700E
700E
700E
700E
700E
700E
700E
700E
700E
700E
700E
700E
700E
700E
700E
700E
700E
300C
181C
FE7F
FE7F
FE7F
ENDCHAR
STARTCHAR 03BC
ENCODING 956
SWIDTH 432 0
DWIDTH 18 0
BBX 12 29 3 -8
BITMAP
E070
E070
E070
E070
E070
E070
E070
E070
E070
E070
E070
E070
E070
E070
E070
E070
E070
E0F0
FFF0
FFF0
FE70
E000
E000
E000
E000
E000
E000
E000
E000
ENDCHAR
STARTCHAR 03C0
ENCODING 960
SWIDTH 504 0
DWIDTH 21 0
BBX 19 21 1 0
BITMAP
FFFFE0
FFFFE0
FFFFE0
1C0700
1C0700
1C0700
1C0700
1C0700
1C0700
1C0700
1C0700
1C0700
1C0700
1C0700
1C0700
1C0700
1C0700
1C0700
1C07C0
1C07E0
1C01E0
ENDCHAR
STARTCHAR 1E80
ENCODING 7808
SWIDTH 624 0
DWIDTH 26 0
BBX 24 38 1 0
BITMAP
00C000
00E000
006000
007000
003000
001800
000000
000000
000000
E01807
E01C07
703C0E
703C0E
703C0E
703C0E
703C0E
383E0C
387E1C
38761C
38661C
38661C
18661C
1C6718
1C6738
1CE338
1CE338
0CC338
0EC330
0EC3B0
0EC3F0
0FC1F0
0FC1F0
0781F0
0781E0
0781E0
0781E0
0781E0
0380E0
ENDCHAR
STARTCHAR 1E81
ENCODING 7809
SWIDTH 552 0
DWIDTH 23 0
BBX 21 30 1 0
BITMAP
030000
018000
01C000
00C000
00E000
006000
000000
000000
000000
E07038
E07038
E07038
607830
70F870
70F870
70D870
30D870
30D860
39DCE0
398CE0
398CE0
198CC0
198CC0
1F8FC0
1F07C0
0F07C0
0F0780
0F0780
0F0780
0E0380
ENDCHAR
STARTCHAR 1E82
ENCODING 7810
SWIDTH 624 0
DWIDTH 26 0
BBX 24 38 1 0
BITMAP
000600
000E00
000C00
001C00
001800
003000
000000
000000
000000
E01807
E01C07
703C0E
703C0E
703C0E
703C0E
703C0E
383E0C
387E1C
38761C
38661C
38661C
18661C
1C6718
1C6738
1CE338
1CE338
0CC338
0EC330
0EC3B0
0EC3F0
0FC1F0
0FC1F0
0781F0
0781E0
0781E0
0781E0
0781E0
0380E0
ENDCHAR
STARTCHAR 1E83
ENCODING 7811
SWIDTH 552 0
DWIDTH 23 0
BBX 21 30 1 0
BITMAP
000C00
001C00
003800
003000
007000
006000
000000
000000
000000
E07038
E07038
E07038
607830
70F870
70F870
70D870
30D870
30D860
39DCE0
398CE0
398CE0
198CC0
198CC0
1F8FC0
1F07C0
0F07C0
0F0780
0F0780
0F0780
0E0380
ENDCHAR
STARTCHAR 1E84
ENCODING 7812
SWIDTH 624 0
DWIDTH 26 0
BBX 24 38 1 0
BITMAP
01C300
01E780
03E780
01E780
01C300
000000
000000
000000
000000
E01807
E01C07
703C0E
703C0E
703C0E
703C0E
703C0E
383E0C
387E1C
38761C
38661C
38661C
18661C
1C6718
1C6738
1CE338
1CE338
0CC338
0EC330
0EC3B0
0EC3F0
0FC1F0
0FC1F0
0781F0
0781E0
0781E0
0781E0
0781E0
0380E0
ENDCHAR
STARTCHAR 1E85
ENCODING 7813
SWIDTH 552 0
DWIDTH 23 0
BBX 21 30 1 0
BITMAP
038E00
07DF00
07DF00
07DF00
038E00
000000
000000
000000
000000
E07038
E07038
E07038
607830
70F870
70F870
70D870
30D870
30D860
39DCE0
398CE0
398CE0
198CC0
198CC0
1F8FC0
1F07C0
0F07C0
0F0780
0F0780
0F0780
0E0380
ENDCHAR
STARTCHAR 1EA0
ENCODING 7840
SWIDTH 408 0
DWIDTH 17 0
BBX 16 37 1 -8
BITMAP
0380
0380
07C0
07C0
07C0
06C0
0EE0
0EE0
0EE0
0C60
0C60
1C70
1C70
1C70
1830
3838
3838
3838
3838
301C
701C
7FFC
7FFC
701C
E00E
E00E
E00E
E00E
E007
0000
0000
0000
0000
0380
07C0
07C0
0380
ENDCHAR
STARTCHAR 1EA1
ENCODING 7841
SWIDTH 408 0
DWIDTH 17 0
BBX 13 29 2 -8
BITMAP
0F80
3FE0
7FF0
7070
F038
E038
0038
0038
03F8
1FF8
7FF8
F838
E038
E038
E038
E038
E038
F078
FFF8
7FF8
1F38
0000
0000
0000
0000
0700
0F80
0F80
0700
ENDCHAR
STARTCHAR 1EA2
ENCODING 7842
SWIDTH 408 0
DWIDTH 17 0
BBX 16 38 1 0
BITMAP
0380
07E0
0C60
0460
0060
00C0
01C0
0180
0000
0380
0380
07C0
07C0
07C0
06C0
0EE0
0EE0
0EE0
0C60
0C60
1C70
1C70
1C70
1830
3838
3838
3838
3838
301C
701C
7FFC
7FFC
701C
E00E
E00E
E00E
E00E
E007
ENDCHAR
STARTCHAR 1EA3
ENCODING 7843
SWIDTH 408 0
DWIDTH 17 0
BBX 13 30 2 0
BITMAP
0700
0FC0
18C0
08C0
00C0
01C0
0180
0300
0000
0F80
3FE0
7FF0
7070
F038
E038
0038
0038
03F8
1FF8
7FF8
F838
E038
E038
E038
E038
E038
F078
FFF8
7FF8
1F38
ENDCHAR
STARTCHAR 1EA4
ENCODING 7844
SWIDTH 408 0
DWIDTH 17 0
BBX 17 41 1 0
BITMAP
000180
000380
000300
000700
038600
07CC00
0EE000
0C6000
1C7000
000000
000000
000000
038000
038000
07C000
07C000
07C000
06C000
0EE000
0EE000
0EE000
0C6000
0C6000
1C7000
1C7000
1C7000
183000
383800
383800
383800
383800
301C00
701C00
7FFC00
7FFC00
701C00
E00E00
E00E00
E00E00
E00E00
E00700
ENDCHAR
STARTCHAR 1EA5
ENCODING 7845
SWIDTH 408 0
DWIDTH 17 0
BBX 16 33 2 0
BITMAP
0003
0007
0006
000E
070C
0F98
1DC0
18C0
38E0
0000
0000
0000
0F80
3FE0
7FF0
7070
F038
E038
0038
0038
03F8
1FF8
7FF8
F838
E038
E038
E038
E038
E038
F078
FFF8
7FF8
1F38
ENDCHAR
STARTCHAR 1EA6
ENCODING 7846
SWIDTH 408 0
DWIDTH 17 0
BBX 16 43 1 0
BITMAP
0060
0030
0038
0018
001C
000C
0380
07C0
0EE0
0C60
1C70
0000
0000
0000
0380
0380
07C0
07C0
07C0
06C0
0EE0
0EE0
0EE0
0C60
0C60
1C70
1C70
1C70
1830
3838
3838
3838
3838
301C
701C
7FFC
7FFC
701C
E00E
E00E
E00E
E00E
E007
ENDCHAR
STARTCHAR 1EA7
ENCODING 7847
SWIDTH 408 0
DWIDTH 17 0
BBX 13 35 2 0
BITMAP
00C0
0060
0070
0030
0038
0018
0700
0F80
1DC0
18C0
38E0
0000
0000
0000
0F80
3FE0
7FF0
7070
F038
E038
0038
0038
03F8
1FF8
7FF8
F838
E038
E038
E038
E038
E038
F078
FFF8
7FF8
1F38
ENDCHAR
STARTCHAR 1EA8
ENCODING 7848
SWIDTH 408 0
DWIDTH 17 0
BBX 16 43 1 0
BITMAP
001E
003F
0063
0003
0003
0006
038C
07CC
0EE0
0C60
1C70
0000
0000
0000
0380
0380
07C0
07C0
07C0
06C0
0EE0
0EE0
0EE0
0C60
0C60
1C70
1C70
1C70
1830
3838
3838
3838
3838
301C
701C
7FFC
7FFC
701C
E00E
E00E
E00E
E00E
E007
ENDCHAR
STARTCHAR 1EA9
ENCODING 7849
SWIDTH 408 0
DWIDTH 17 0
BBX 15 35 2 0
BITMAP
003C
007E
00C6
0006
0006
000C
0718
0F98
1DC0
18C0
38E0
0000
0000
0000
0F80
3FE0
7FF0
7070
F038
E038
0038
0038
03F8
1FF8
7FF8
F838
E038
E038
E038
E038
E038
F078
FFF8
7FF8
1F38
ENDCHAR
STARTCHAR 1EAA
ENCODING 7850
SWIDTH 408 0
DWIDTH 17 0
BBX 16 42 1 0
BITMAP
0E18
1FF8
3FF0
10E0
0000
0380
07C0
0EE0
0C60
1C70
0000
0000
0000
0380
0380
07C0
07C0
07C0
06C0
0EE0
0EE0
0EE0
0C60
0C60
1C70
1C70
1C70
1830
3838
3838
3838
3838
301C
701C
7FFC
7FFC
701C
E00E
E00E
E00E
E00E
E007
ENDCHAR
STARTCHAR 1EAB
ENCODING 7851
SWIDTH 408 0
DWIDTH 17 0
BBX 13 34 2 0
BITMAP
1C10
3FF0
7FE0
21C0
0000
0700
0F80
1DC0
18C0
38E0
0000
0000
0000
0F80
3FE0
7FF0
7070
F038
E038
0038
0038
03F8
1FF8
7FF8
F838
E038
E038
E038
E038
E038
F078
FFF8
7FF8
1F38
ENDCHAR
STARTCHAR 1EAC
ENCODING 7852
SWIDTH 408 0
DWIDTH 17 0
BBX 16 45 1 -8
BITMAP
0380
07C0
0EE0
0C60
1C70
0000
0000
0000
0380
0380
07C0
07C0
07C0
06C0
0EE0
0EE0
0EE0
0C60
0C60
1C70
1C70
1C70
1830
3838
3838
3838
3838
301C
701C
7FFC
7FFC
701C
E00E
E00E
E00E
E00E
E007
0000
0000
0000
0000
0380
07C0
07C0
0380
ENDCHAR
STARTCHAR 1EAD
ENCODING 7853
SWIDTH 408 0
DWIDTH 17 0
BBX 13 37 2 -8
BITMAP
0700
0F80
1DC0
18C0
38E0
0000
0000
0000
0F80
3FE0
7FF0
7070
F038
E038
0038
0038
03F8
1FF8
7FF8
F838
E038
E038
E038
E038
E038
F078
FFF8
7FF8
1F38
0000
0000
0000
0000
0700
0F80
0F80
0700
ENDCHAR
STARTCHAR 1EAE
ENCODING 7854
SWIDTH 408 0
DWIDTH 17 0
BBX 16 45 1 0
BITMAP
0060
00E0
01C0
0180
0380
0300
0000
0000
0810
1830
0C70
0FE0
07C0
0000
0000
0000
0380
0380
07C0
07C0
07C0
06C0
0EE0
0EE0
0EE0
0C60
0C60
1C70
1C70
1C70
1830
3838
3838
3838
3838
301C
701C
7FFC
7FFC
701C
E00E
E00E
E00E
E00E
E007
ENDCHAR
STARTCHAR 1EAF
ENCODING 7855
SWIDTH 408 0
DWIDTH 17 0
BBX 13 37 2 0
BITMAP
00C0
01C0
0380
0300
0700
0600
0000
0000
1020
3060
18E0
1FC0
0F80
0000
0000
0000
0F80
3FE0
7FF0
7070
F038
E038
0038
0038
03F8
1FF8
7FF8
F838
E038
E038
E038
E038
E038
F078
FFF8
7FF8
1F38
ENDCHAR
STARTCHAR 1EB0
ENCODING 7856
SWIDTH 408 0
DWIDTH 17 0
BBX 16 45 1 0
BITMAP
1800
0C00
0E00
0600
0300
0380
0000
0000
0810
1830
0C70
0FE0
07C0
0000
0000
0000
0380
0380
07C0
07C0
07C0
06C0
0EE0
0EE0
0EE0
0C60
0C60
1C70
1C70
1C70
1830
3838
3838
3838
3838
301C
701C
7FFC
7FFC
701C
E00E
E00E
E00E
E00E
E007
ENDCHAR
STARTCHAR 1EB1
ENCODING 7857
SWIDTH 408 0
DWIDTH 17 0
BBX 13 37 2 0
BITMAP
3000
1800
1C00
0C00
0600
0700
0000
0000
1020
3060
18E0
1FC0
0F80
0000
0000
0000
0F80
3FE0
7FF0
7070
F038
E038
0038
0038
03F8
1FF8
7FF8
F838
E038
E038
E038
E038
E038
F078
FFF8
7FF8
1F38
ENDCHAR
STARTCHAR 1EB2
ENCODING 7858
SWIDTH 408 0
DWIDTH 17 0
BBX 16 45 1 0
BITMAP
0380
07C0
0C60
0460
0060
00C0
0180
0180
1830
1830
0C60
0FE0
07C0
0000
0000
0000
0380
0380
07C0
07C0
07C0
06C0
0EE0
0EE0
0EE0
0C60
0C60
1C70
1C70
1C70
1830
3838
3838
3838
3838
301C
701C
7FFC
7FFC
701C
E00E
E00E
E00E
E00E
E007
ENDCHAR
STARTCHAR 1EB3
ENCODING 7859
SWIDTH 408 0
DWIDTH 17 0
BBX 13 37 2 0
BITMAP
0700
0F80
18C0
08C0
00C0
0180
0300
0300
1060
3060
18E0
1FC0
0F80
0000
0000
0000
0F80
3FE0
7FF0
7070
F038
E038
0038
0038
03F8
1FF8
7FF8
F838
E038
E038
E038
E038
E038
F078
FFF8
7FF8
1F38
ENDCHAR
STARTCHAR 1EB4
ENCODING 7860
SWIDTH 408 0
DWIDTH 17 0
BBX 16 42 1 0
BITMAP
0E18
1FF8
3FF0
10E0
0000
0810
1830
0C70
0FE0
07C0
0000
0000
0000
0380
0380
07C0
07C0
07C0
06C0
0EE0
0EE0
0EE0
0C60
0C60
1C70
1C70
1C70
1830
3838
3838
3838
3838
301C
701C
7FFC
7FFC
701C
E00E
E00E
E00E
E00E
E007
ENDCHAR
STARTCHAR 1EB5
ENCODING 7861
SWIDTH 408 0
DWIDTH 17 0
BBX 13 34 2 0
BITMAP
1C30
3FF0
7FE0
21C0
0000
1020
3060
18E0
1FC0
0F80
0000
0000
0000
0F80
3FE0
7FF0
7070
F038
E038
0038
0038
03F8
1FF8
7FF8
F838
E038
E038
E038
E038
E038
F078
FFF8
7FF8
1F38
ENDCHAR
STARTCHAR 1EB6
ENCODING 7862
SWIDTH 408 0
DWIDTH 17 0
BBX 16 45 1 -8
BITMAP
0810
1830
0C70
0FE0
07C0
0000
0000
0000
0380
0380
07C0
07C0
07C0
06C0
0EE0
0EE0
0EE0
0C60
0C60
1C70
1C70
1C70
1830
3838
3838
3838
3838
301C
701C
7FFC
7FFC
701C
E00E
E00E
E00E
E00E
E007
0000
0000
0000
0000
0380
07C0
07C0
0380
ENDCHAR
STARTCHAR 1EB7
ENCODING 7863
SWIDTH 408 0
DWIDTH 17 0
BBX 13 37 2 -8
BITMAP
1020
3060
18E0
1FC0
0F80
0000
0000
0000
0F80
3FE0
7FF0
7070
F038
E038
0038
0038
03F8
1FF8
7FF8
F838
E038
E038
E038
E038
E038
F078
FFF8
7FF8
1F38
0000
0000
0000
0000
0700
0F80
0F80
0700
ENDCHAR
STARTCHAR 1EB8
ENCODING 7864
SWIDTH 432 0
DWIDTH 18 0
BBX 13 37 3 -8
BITMAP
FFF8
FFF8
FFF8
E000
E000
E000
E000
E000
E000
E000
E000
E000
E000
FF80
FFC0
FFC0
E000
E000
E000
E000
E000
E000
E000
E000
E000
E000
FFF8
FFF8
FFF8
0000
0000
0000
0000
0700
0F80
0F80
0700
ENDCHAR
STARTCHAR 1EB9
ENCODING 7865
SWIDTH 408 0
DWIDTH 17 0
BBX 13 29 2 -8
BITMAP
0FC0
3FE0
7FF0
7078
E038
E038
E038
E038
E038
FFF8
FFF8
FFF8
E000
E000
E000
E038
E038
7078
7FF0
3FE0
0F80
0000
0000
0000
0000
0700
0F80
0F80
0700
ENDCHAR
STARTCHAR 1EBA
ENCODING 7866
SWIDTH 432 0
DWIDTH 18 0
BBX 13 38 3 0
BITMAP
0700
0FC0
18C0
08C0
00C0
01C0
0180
0300
0000
FFF8
FFF8
FFF8
E000
E000
E000
E000
E000
E000
E000
E000
E000
E000
FF80
FFC0
FFC0
E000
E000
E000
E000
E000
E000
E000
E000
E000
E000
FFF8
FFF8
FFF8
ENDCHAR
STARTCHAR 1EBB
ENCODING 7867
SWIDTH 408 0
DWIDTH 17 0
BBX 13 30 2 0
BITMAP
0700
0FC0
18C0
08C0
00C0
0180
0380
0300
0000
0FC0
3FE0
7FF0
7078
E038
E038
E038
E038
E038
FFF8
FFF8
FFF8
E000
E000
E000
E038
E038
7078
7FF0
3FE0
0F80
ENDCHAR
STARTCHAR 1EBC
ENCODING 7868
SWIDTH 432 0
DWIDTH 18 0
BBX 13 37 3 0
BITMAP
1E10
3FF8
3FF0
21E0
0000
0000
0000
0000
FFF8
FFF8
FFF8
E000
E000
E000
E000
E000
E000
E000
E000
E000
E000
FF80
FFC0
FFC0
E000
E000
E000
E000
E000
E000
E000
E000
E000
E000
FFF8
FFF8
FFF8
ENDCHAR
STARTCHAR 1EBD
ENCODING 7869
SWIDTH 408 0
DWIDTH 17 0
BBX 13 29 2 0
BITMAP
1E10
3FF0
3FF0
21E0
0000
0000
0000
0000
0FC0
3FE0
7FF0
7078
E038
E038
E038
E038
E038
FFF8
FFF8
FFF8
E000
E000
E000
E038
E038
7078
7FF0
3FE0
0F80
ENDCHAR
STARTCHAR 1EBE
ENCODING 7870
SWIDTH 432 0
DWIDTH 18 0
BBX 16 41 3 0
BITMAP
0003
0007
0006
000E
070C
0F9C
1DC0
18C0
38E0
0000
0000
0000
FFF8
FFF8
FFF8
E000
E000
E000
E000
E000
E000
E000
E000
E000
E000
FF80
FFC0
FFC0
E000
E000
E000
E000
E000
E000
E000
E000
E000
E000
FFF8
FFF8
FFF8
ENDCHAR
STARTCHAR 1EBF
ENCODING 7871
SWIDTH 408 0
DWIDTH 17 0
BBX 16 33 2 0
BITMAP
0003
0007
0006
000E
070C
0F98
1DC0
18C0
38E0
0000
0000
0000
0FC0
3FE0
7FF0
7078
E038
E038
E038
E038
E038
FFF8
FFF8
FFF8
E000
E000
E000
E038
E038
7078
7FF0
3FE0
0F80
ENDCHAR
STARTCHAR 1EC0
ENCODING 7872
SWIDTH 432 0
DWIDTH 18 0
BBX 13 43 3 0
BITMAP
00C0
0060
0070
0030
0038
0018
0700
0F80
1DC0
18C0
38E0
0000
0000
0000
FFF8
FFF8
FFF8
E000
E000
E000
E000
E000
E000
E000
E000
E000
E000
FF80
FFC0
FFC0
E000
E000
E000
E000
E000
E000
E000
E000
E000
E000
FFF8
FFF8
FFF8
ENDCHAR
STARTCHAR 1EC1
ENCODING 7873
SWIDTH 408 0
DWIDTH 17 0
BBX 13 35 2 0
BITMAP
00C0
0060
0070
0030
0038
0018
0700
0F80
1DC0
18C0
38E0
0000
0000
0000
0FC0
3FE0
7FF0
7078
E038
E038
E038
E038
E038
FFF8
FFF8
FFF8
E000
E000
E000
E038
E038
7078
7FF0
3FE0
0F80
ENDCHAR
STARTCHAR 1EC2
ENCODING 7874
SWIDTH 432 0
DWIDTH 18 0
BBX 15 43 3 0
BITMAP
003C
007E
00C6
0006
0006
000C
0718
0F98
1DC0
18C0
38E0
0000
0000
0000
FFF8
FFF8
FFF8
E000
E000
E000
E000
E000
E000
E000
E000
E000
E000
FF80
FFC0
FFC0
E000
E000
E000
E000
E000
E000
E000
E000
E000
E000
FFF8
FFF8
FFF8
ENDCHAR
STARTCHAR 1EC3
ENCODING 7875
SWIDTH 408 0
DWIDTH 17 0
BBX 15 35 2 0
BITMAP
003C
007E
00C6
0006
0006
000C
0718
0F90
1DC0
18C0
38E0
0000
0000
0000
0FC0
3FE0
7FF0
7078
E038
E038
E038
E038
E038
FFF8
FFF8
FFF8
E000
E000
E000
E038
E038
7078
7FF0
3FE0
0F80
ENDCHAR
STARTCHAR 1EC4
ENCODING 7876
SWIDTH 432 0
DWIDTH 18 0
BBX 13 42 3 0
BITMAP
1E10
3FF0
7FE0
21C0
0000
0700
0F80
1DC0
18C0
38E0
0000
0000
0000
FFF8
FFF8
FFF8
E000
E000
E000
E000
E000
E000
E000
E000
E000
E000
FF80
FFC0
FFC0
E000
E000
E000
E000
E000
E000
E000
E000
E000
E000
FFF8
FFF8
FFF8
ENDCHAR
STARTCHAR 1EC5
ENCODING 7877
SWIDTH 408 0
DWIDTH 17 0
BBX 13 34 2 0
BITMAP
1C30
3FF0
7FE0
21C0
0000
0700
0F80
1DC0
18C0
38E0
0000
0000
0000
0FC0
3FE0
7FF0
7078
E038
E038
E038
E038
E038
FFF8
FFF8
FFF8
E000
E000
E000
E038
E038
7078
7FF0
3FE0
0F80
ENDCHAR
STARTCHAR 1EC6
ENCODING 7878
SWIDTH 432 0
DWIDTH 18 0
BBX 13 45 3 -8
BITMAP
0700
0F80
1DC0
18C0
38E0
0000
0000
0000
FFF8
FFF8
FFF8
E000
E000
E000
E000
E000
E000
E000
E000
E000
E000
FF80
FFC0
FFC0
E000
E000
E000
E000
E000
E000
E000
E000
E000
E000
FFF8
FFF8
FFF8
0000
0000
0000
0000
0700
0F80
0F80
0700
ENDCHAR
STARTCHAR 1EC7
ENCODING 7879
SWIDTH 408 0
DWIDTH 17 0
BBX 13 37 2 -8
BITMAP
0700
0F80
1DC0
18C0
38E0
0000
0000
0000
0FC0
3FE0
7FF0
7078
E038
E038
E038
E038
E038
FFF8
FFF8
FFF8
E000
E000
E000
E038
E038
7078
7FF0
3FE0
0F80
0000
0000
0000
0000
0700
0F80
0F80
0700
ENDCHAR
STARTCHAR 1EC8
ENCODING 7880
SWIDTH 216 0
DWIDTH 9 0
BBX 7 38 1 0
BITMAP
38
7C
C6
86
06
0C
1C
18
00
38
38
38
38
38
38
38
38
38
38
38
38
38
38
38
38
38
38
38
38
38
38
38
38
38
38
38
38
38
ENDCHAR
STARTCHAR 1EC9
ENCODING 7881
SWIDTH 168 0
DWIDTH 7 0
BBX 7 30 0 0
BITMAP
38
7E
C6
46
06
0C
1C
18
00
38
38
38
38
38
38
38
38
38
38
38
38
38
38
38
38
38
38
38
38
38
ENDCHAR
STARTCHAR 1ECA
ENCODING 7882
SWIDTH 216 0
DWIDTH 9 0
BBX 5 37 2 -8
BITMAP
70
70
70
70
70
70
70
70
70
70
70
70
70
70
70
70
70
70
70
70
70
70
70
70
70
70
70
70
70
00
00
00
00
70
F8
F8
70
ENDCHAR
STARTCHAR 1ECB
ENCODING 7883
SWIDTH 216 0
DWIDTH 9 0
BBX 5 37 2 -8
BITMAP
70
F0
F8
F0
70
00
00
00
70
70
70
70
70
70
70
70
70
70
70
70
70
70
70
70
70
70
70
70
70
00
00
00
00
70
F0
F8
70
ENDCHAR
STARTCHAR 1ECC
ENCODING 7884
SWIDTH 456 0
DWIDTH 19 0
BBX 15 37 2 -8
BITMAP
07C0
1FF0
3FF8
783C
701C
E00E
E00E
E00E
E00E
E00E
E00E
E00E
E00E
E00E
E00E
E00E
E00E
E00E
E00E
E00E
E00E
E00E
E00E
E00E
701C
783C
3FF8
1FF0
0FC0
0000
0000
0000
0000
0380
07C0
07C0
0380
ENDCHAR
STARTCHAR 1ECD
ENCODING 7885
SWIDTH 408 0
DWIDTH 17 0
BBX 13 29 2 -8
BITMAP
0FC0
3FE0
7FF0
7078
E038
E038
E038
E038
E038
E038
E038
E038
E038
E038
E038
E038
E038
7078
7FF0
3FE0
0F80
0000
0000
0000
0000
0700
0F80
0780
0700
ENDCHAR
STARTCHAR 1ECE
ENCODING 7886
SWIDTH 456 0
DWIDTH 19 0
BBX 15 38 2 0
BITMAP
0380
07C0
0C60
0860
0060
00C0
01C0
0180
0000
07C0
1FF0
3FF8
783C
701C
E00E
E00E
E00E
E00E
E00E
E00E
E00E
E00E
E00E
E00E
E00E
E00E
E00E
E00E
E00E
E00E
E00E
E00E
E00E
701C
783C
3FF8
1FF0
0FC0
ENDCHAR
STARTCHAR 1ECF
ENCODING 7887
SWIDTH 408 0
DWIDTH 17 0
BBX 13 30 2 0
BITMAP
0700
0FC0
18C0
08C0
00C0
01C0
0180
0300
0000
0FC0
3FE0
7FF0
7078
E038
E038
E038
E038
E038
E038
E038
E038
E038
E038
E038
E038
E038
7078
7FF0
3FE0
0F80
ENDCHAR
STARTCHAR 1ED0
ENCODING 7888
SWIDTH 456 0
DWIDTH 19 0
BBX 17 41 2 0
BITMAP
000180
000380
000300
000700
078600
07CC00
0EE000
0C6000
1C7000
000000
000000
000000
07C000
1FF000
3FF800
783C00
701C00
E00E00
E00E00
E00E00
E00E00
E00E00
E00E00
E00E00
E00E00
E00E00
E00E00
E00E00
E00E00
E00E00
E00E00
E00E00
E00E00
E00E00
E00E00
E00E00
701C00
783C00
3FF800
1FF000
0FC000
ENDCHAR
STARTCHAR 1ED1
ENCODING 7889
SWIDTH 408 0
DWIDTH 17 0
BBX 16 33 2 0
BITMAP
0003
0007
0006
000E
070C
0F9C
1DC0
18C0
38E0
0000
0000
0000
0FC0
3FE0
7FF0
7078
E038
E038
E038
E038
E038
E038
E038
E038
E038
E038
E038
E038
E038
7078
7FF0
3FE0
0F80
ENDCHAR
STARTCHAR 1ED2
ENCODING 7890
SWIDTH 456 0
DWIDTH 19 0
BBX 15 43 2 0
BITMAP
0060
0070
0038
0018
001C
000C
0780
07C0
0EE0
0C60
1C70
0000
0000
0000
07C0
1FF0
3FF8
783C
701C
E00E
E00E
E00E
E00E
E00E
E00E
E00E
E00E
E00E
E00E
E00E
E00E
E00E
E00E
E00E
E00E
E00E
E00E
E00E
701C
783C
3FF8
1FF0
0FC0
ENDCHAR
STARTCHAR 1ED3
ENCODING 7891
SWIDTH 408 0
DWIDTH 17 0
BBX 13 35 2 0
BITMAP
00C0
0060
0070
0030
0038
0018
0700
0F80
1DC0
18C0
38E0
0000
0000
0000
0FC0
3FE0
7FF0
7078
E038
E038
E038
E038
E038
E038
E038
E038
E038
E038
E038
E038
E038
7078
7FF0
3FE0
0F80
ENDCHAR
STARTCHAR 1ED4
ENCODING 7892
SWIDTH 456 0
DWIDTH 19 0
BBX 16 43 2 0
BITMAP
001E
003F
0063
0003
0003
0006
078C
07C8
0EE0
0C60
1C70
0000
0000
0000
07C0
1FF0
3FF8
783C
701C
E00E
E00E
E00E
E00E
E00E
E00E
E00E
E00E
E00E
E00E
E00E
E00E
E00E
E00E
E00E
E00E
E00E
E00E
E00E
701C
783C
3FF8
1FF0
0FC0
ENDCHAR
STARTCHAR 1ED5
ENCODING 7893
SWIDTH 408 0
DWIDTH 17 0
BBX 15 35 2 0
BITMAP
003C
007E
00C6
0006
0006
000C
0718
0F98
1DC0
18C0
38E0
0000
0000
0000
0FC0
3FE0
7FF0
7078
E038
E038
E038
E038
E038
E038
E038
E038
E038
E038
E038
E038
E038
7078
7FF0
3FE0
0F80
ENDCHAR
STARTCHAR 1ED6
ENCODING 7894
SWIDTH 456 0
DWIDTH 19 0
BBX 15 42 2 0
BITMAP
0E18
1FF8
3FF0
10E0
0000
0780
07C0
0EE0
0C60
1C70
0000
0000
0000
07C0
1FF0
3FF8
783C
701C
E00E
E00E
E00E
E00E
E00E
E00E
E00E
E00E
E00E
E00E
E00E
E00E
E00E
E00E
E00E
E00E
E00E
E00E
E00E
701C
783C
3FF8
1FF0
0FC0
ENDCHAR
STARTCHAR 1ED7
ENCODING 7895
SWIDTH 408 0
DWIDTH 17 0
BBX 13 34 2 0
BITMAP
1E10
3FF0
7FE0
21C0
0000
0700
0F80
1DC0
18C0
38E0
0000
0000
0000
0FC0
3FE0
7FF0
7078
E038
E038
E038
E038
E038
E038
E038
E038
E038
E038
E038
E038
E038
7078
7FF0
3FE0
0F80
ENDCHAR
STARTCHAR 1ED8
ENCODING 7896
SWIDTH 456 0
DWIDTH 19 0
BBX 15 45 2 -8
BITMAP
0380
07C0
0EE0
0C60
1C70
0000
0000
0000
07C0
1FF0
3FF8
783C
701C
E00E
E00E
E00E
E00E
E00E
E00E
E00E
E00E
E00E
E00E
E00E
E00E
E00E
E00E
E00E
E00E
E00E
E00E
E00E
701C
783C
3FF8
1FF0
0FC0
0000
0000
0000
0000
0380
07C0
07C0
0380
ENDCHAR
STARTCHAR 1ED9
ENCODING 7897
SWIDTH 408 0
DWIDTH 17 0
BBX 13 37 2 -8
BITMAP
0700
0F80
1DC0
18C0
38E0
0000
0000
0000
0FC0
3FE0
7FF0
7078
E038
E038
E038
E038
E038
E038
E038
E038
E038
E038
E038
E038
E038
7078
7FF0
3FE0
0F80
0000
0000
0000
0000
0700
0F80
0780
0700
ENDCHAR
STARTCHAR 1EDA
ENCODING 7898
SWIDTH 456 0
DWIDTH 19 0
BBX 15 38 2 0
BITMAP
0060
00E0
01C0
0180
0380
0304
000C
000C
001C
07F8
1FF0
3FF8
783C
701C
E00E
E00E
E00E
E00E
E00E
E00E
E00E
E00E
E00E
E00E
E00E
E00E
E00E
E00E
E00E
E00E
E00E
E00E
E00E
701C
783C
3FF8
1FF0
0FC0
ENDCHAR
STARTCHAR 1EDB
ENCODING 7899
SWIDTH 408 0
DWIDTH 17 0
BBX 13 30 2 0
BITMAP
00C0
01C0
0180
0300
0700
0608
0008
0018
0038
0FF0
3FE0
7FF0
7078
E038
E038
E038
E038
E038
E038
E038
E038
E038
E038
E038
E038
E038
7078
7FF0
3FE0
0F80
ENDCHAR
STARTCHAR 1EDC
ENCODING 7900
SWIDTH 456 0
DWIDTH 19 0
BBX 15 38 2 0
BITMAP
1800
0C00
0E00
0600
0700
0304
000C
000C
001C
07F8
1FF0
3FF8
783C
701C
E00E
E00E
E00E
E00E
E00E
E00E
E00E
E00E
E00E
E00E
E00E
E00E
E00E
E00E
E00E
E00E
E00E
E00E
E00E
701C
783C
3FF8
1FF0
0FC0
ENDCHAR
STARTCHAR 1EDD
ENCODING 7901
SWIDTH 408 0
DWIDTH 17 0
BBX 13 30 2 0
BITMAP
3000
1800
1C00
0C00
0600
0708
0008
0018
0038
0FF0
3FE0
7FF0
7078
E038
E038
E038
E038
E038
E038
E038
E038
E038
E038
E038
E038
E038
7078
7FF0
3FE0
0F80
ENDCHAR
STARTCHAR 1EDE
ENCODING 7902
SWIDTH 456 0
DWIDTH 19 0
BBX 15 38 2 0
BITMAP
0380
07C0
0C60
0860
0060
00C4
01CC
018C
001C
07F8
1FF0
3FF8
783C
701C
E00E
E00E
E00E
E00E
E00E
E00E
E00E
E00E
E00E
E00E
E00E
E00E
E00E
E00E
E00E
E00E
E00E
E00E
E00E
701C
783C
3FF8
1FF0
0FC0
ENDCHAR
STARTCHAR 1EDF
ENCODING 7903
SWIDTH 408 0
DWIDTH 17 0
BBX 13 30 2 0
BITMAP
0700
0FC0
18C0
08C0
00C0
01C8
0188
0318
0038
0FF0
3FE0
7FF0
7078
E038
E038
E038
E038
E038
E038
E038
E038
E038
E038
E038
E038
E038
7078
7FF0
3FE0
0F80
ENDCHAR
STARTCHAR 1EE0
ENCODING 7904
SWIDTH 456 0
DWIDTH 19 0
BBX 15 37 2 0
BITMAP
0F08
1FF8
1FF8
10F0
0004
000C
000C
001C
07F8
1FF0
3FF8
783C
701C
E00E
E00E
E00E
E00E
E00E
E00E
E00E
E00E
E00E
E00E
E00E
E00E
E00E
E00E
E00E
E00E
E00E
E00E
E00E
701C
783C
3FF8
1FF0
0FC0
ENDCHAR
STARTCHAR 1EE1
ENCODING 7905
SWIDTH 408 0
DWIDTH 17 0
BBX 13 29 2 0
BITMAP
1C30
3FF0
7FE0
21C0
0008
0008
0018
0038
0FF0
3FE0
7FF0
7078
E038
E038
E038
E038
E038
E038
E038
E038
E038
E038
E038
E038
E038
7078
7FF0
3FE0
0F80
ENDCHAR
STARTCHAR 1EE2
ENCODING 7906
SWIDTH 456 0
DWIDTH 19 0
BBX 15 41 2 -8
BITMAP
0004
000C
000C
001C
07F8
1FF0
3FF8
783C
701C
E00E
E00E
E00E
E00E
E00E
E00E
E00E
E00E
E00E
E00E
E00E
E00E
E00E
E00E
E00E
E00E
E00E
E00E
E00E
701C
783C
3FF8
1FF0
0FC0
0000
0000
0000
0000
0380
07C0
07C0
0380
ENDCHAR
STARTCHAR 1EE3
ENCODING 7907
SWIDTH 408 0
DWIDTH 17 0
BBX 13 33 2 -8
BITMAP
0008
0008
0018
0038
0FF0
3FE0
7FF0
7078
E038
E038
E038
E038
E038
E038
E038
E038
E038
E038
E038
E038
E038
7078
7FF0
3FE0
0F80
0000
0000
0000
0000
0700
0F80
0780
0700
ENDCHAR
STARTCHAR 1EE4
ENCODING 7908
SWIDTH 480 0
DWIDTH 20 0
BBX 14 37 3 -8
BITMAP
E01C
E01C
E01C
E01C
E01C
E01C
E01C
E01C
E01C
E01C
E01C
E01C
E01C
E01C
E01C
E01C
E01C
E01C
E01C
E01C
E01C
E01C
E01C
E01C
E038
7038
7FF0
3FE0
0FC0
0000
0000
0000
0000
0700
0780
0780
0700
ENDCHAR
STARTCHAR 1EE5
ENCODING 7909
SWIDTH 432 0
DWIDTH 18 0
BBX 13 29 2 -8
BITMAP
E038
E038
E038
E038
E038
E038
E038
E038
E038
E038
E038
E038
E038
E038
E038
E038
F038
7078
7FF8
3FF8
1F38
0000
0000
0000
0000
0700
0780
0F80
0700
ENDCHAR
STARTCHAR 1EE6
ENCODING 7910
SWIDTH 480 0
DWIDTH 20 0
BBX 14 38 3 0
BITMAP
0780
0FC0
1CC0
0860
0040
00C0
0180
0300
0000
E01C
E01C
E01C
E01C
E01C
E01C
E01C
E01C
E01C
E01C
E01C
E01C
E01C
E01C
E01C
E01C
E01C
E01C
E01C
E01C
E01C
E01C
E01C
E01C
E038
7038
7FF0
3FE0
0FC0
ENDCHAR
STARTCHAR 1EE7
ENCODING 7911
SWIDTH 432 0
DWIDTH 18 0
BBX 13 30 2 0
BITMAP
0780
0FC0
18C0
0840
00C0
01C0
0180
0300
0000
E038
E038
E038
E038
E038
E038
E038
E038
E038
E038
E038
E038
E038
E038
E038
E038
F038
7078
7FF8
3FF8
1F38
ENDCHAR
STARTCHAR 1EE8
ENCODING 7912
SWIDTH 480 0
DWIDTH 20 0
BBX 17 38 3 0
BITMAP
00C000
01C000
018000
038000
030000
060080
000180
000180
000380
E01F00
E01E00
E01C00
E01C00
E01C00
E01C00
E01C00
E01C00
E01C00
E01C00
E01C00
E01C00
E01C00
E01C00
E01C00
E01C00
E01C00
E01C00
E01C00
E01C00
E01C00
E01C00
E01C00
E01C00
E03C00
703800
7FF000
3FE000
0FC000
ENDCHAR
STARTCHAR 1EE9
ENCODING 7913
SWIDTH 432 0
DWIDTH 18 0
BBX 16 30 2 0
BITMAP
00C0
01C0
0180
0300
0700
0601
0003
0003
0007
E03E
E038
E038
E038
E038
E038
E038
E038
E038
E038
E038
E038
E038
E038
E038
E038
F038
7078
7FF8
3FF8
1F38
ENDCHAR
STARTCHAR 1EEA
ENCODING 7914
SWIDTH 480 0
DWIDTH 20 0
BBX 17 38 3 0
BITMAP
180000
1C0000
0C0000
0E0000
060000
030080
000180
000180
000380
E01F00
E01E00
E01C00
E01C00
E01C00
E01C00
E01C00
E01C00
E01C00
E01C00
E01C00
E01C00
E01C00
E01C00
E01C00
E01C00
E01C00
E01C00
E01C00
E01C00
E01C00
E01C00
E01C00
E01C00
E03C00
703800
7FF000
3FE000
0FC000
ENDCHAR
STARTCHAR 1EEB
ENCODING 7915
SWIDTH 432 0
DWIDTH 18 0
BBX 16 30 2 0
BITMAP
3800
1800
1C00
0E00
0600
0701
0003
0003
0007
E03E
E038
E038
E038
E038
E038
E038
E038
E038
E038
E038
E038
E038
E038
E038
E038
F038
7078
7FF8
3FF8
1F38
ENDCHAR
STARTCHAR 1EEC
ENCODING 7916
SWIDTH 480 0
DWIDTH 20 0
BBX 17 38 3 0
BITMAP
078000
0FC000
1CC000
086000
004000
00C080
018180
030180
000380
E01F00
E01E00
E01C00
E01C00
E01C00
E01C00
E01C00
E01C00
E01C00
E01C00
E01C00
E01C00
E01C00
E01C00
E01C00
E01C00
E01C00
E01C00
E01C00
E01C00
E01C00
E01C00
E01C00
E01C00
E03C00
703800
7FF000
3FE000
0FC000
ENDCHAR
STARTCHAR 1EED
ENCODING 7917
SWIDTH 432 0
DWIDTH 18 0
BBX 16 30 2 0
BITMAP
0780
0FC0
18C0
0840
00C0
01C1
0183
0303
0007
E03E
E038
E038
E038
E038
E038
E038
E038
E038
E038
E038
E038
E038
E038
E038
E038
F038
7078
7FF8
3FF8
1F38
ENDCHAR
STARTCHAR 1EEE
ENCODING 7918
SWIDTH 480 0
DWIDTH 20 0
BBX 17 37 3 0
BITMAP
0E1000
1FF800
3FF000
10E000
000080
000180
000180
000380
E01F00
E01E00
E01C00
E01C00
E01C00
E01C00
E01C00
E01C00
E01C00
E01C00
E01C00
E01C00
E01C00
E01C00
E01C00
E01C00
E01C00
E01C00
E01C00
E01C00
E01C00
E01C00
E01C00
E01C00
E03C00
703800
7FF000
3FE000
0FC000
ENDCHAR
STARTCHAR 1EEF
ENCODING 7919
SWIDTH 432 0
DWIDTH 18 0
BBX 16 29 2 0
BITMAP
1E10
3FF8
3FF0
20E0
0001
0003
0003
0007
E03E
E038
E038
E038
E038
E038
E038
E038
E038
E038
E038
E038
E038
E038
E038
E038
F038
7078
7FF8
3FF8
1F38
ENDCHAR
STARTCHAR 1EF0
ENCODING 7920
SWIDTH 480 0
DWIDTH 20 0
BBX 17 41 3 -8
BITMAP
000080
000180
000180
000380
E01F00
E01E00
E01C00
E01C00
E01C00
E01C00
E01C00
E01C00
E01C00
E01C00
E01C00
E01C00
E01C00
E01C00
E01C00
E01C00
E01C00
E01C00
E01C00
E01C00
E01C00
E01C00
E01C00
E01C00
E03C00
703800
7FF000
3FE000
0FC000
000000
000000
000000
000000
070000
078000
078000
070000
ENDCHAR
STARTCHAR 1EF1
ENCODING 7921
SWIDTH 432 0
DWIDTH 18 0
BBX 16 33 2 -8
BITMAP
0001
0003
0003
0007
E03E
E038
E038
E038
E038
E038
E038
E038
E038
E038
E038
E038
E038
E038
E038
E038
F038
7078
7FF8
3FF8
1F38
0000
0000
0000
0000
0700
0780
0F80
0700
ENDCHAR
STARTCHAR 1EF2
ENCODING 7922
SWIDTH 432 0
DWIDTH 18 0
BBX 15 38 1 0
BITMAP
0C00
0E00
0600
0700
0300
0380
0000
0000
0000
F00E
700E
701C
381C
381C
3838
1C38
1C38
0C70
0E70
0E60
06E0
07E0
07C0
03C0
03C0
0380
0380
0380
0380
0380
0380
0380
0380
0380
0380
0380
0380
0380
ENDCHAR
STARTCHAR 1EF3
ENCODING 7923
SWIDTH 360 0
DWIDTH 15 0
BBX 14 38 1 -8
BITMAP
3800
1800
1C00
0C00
0600
0700
0000
0000
0000
E03C
E038
E038
7038
7070
7070
7070
3870
3860
38E0
38E0
18E0
1CC0
1DC0
1DC0
0DC0
0F80
0F80
0780
0780
0700
0700
0700
0600
0E00
0E00
7C00
7C00
7000
ENDCHAR
STARTCHAR 1EF4
ENCODING 7924
SWIDTH 432 0
DWIDTH 18 0
BBX 15 37 1 -8
BITMAP
F00E
700E
701C
381C
381C
3838
1C38
1C38
0C70
0E70
0E60
06E0
07E0
07C0
03C0
03C0
0380
0380
0380
0380
0380
0380
0380
0380
0380
0380
0380
0380
0380
0000
0000
0000
0000
0380
03C0
03C0
0380
ENDCHAR
STARTCHAR 1EF5
ENCODING 7925
SWIDTH 360 0
DWIDTH 15 0
BBX 14 29 1 -8
BITMAP
E03C
E038
E038
7038
7070
7070
7070
3870
3860
38E0
38E0
18E0
1CC0
1DC0
1DC0
0DC0
0F80
0F80
0780
0780
0700
0700
0700
0600
0E00
0E38
7C7C
7C7C
7038
ENDCHAR
STARTCHAR 1EF6
ENCODING 7926
SWIDTH 432 0
DWIDTH 18 0
BBX 15 38 1 0
BITMAP
03C0
07E0
0E60
0430
0060
0060
00C0
0180
0000
F00E
700E
701C
381C
381C
3838
1C38
1C38
0C70
0E70
0E60
06E0
07E0
07C0
03C0
03C0
0380
0380
0380
0380
0380
0380
0380
0380
0380
0380
0380
0380
0380
ENDCHAR
STARTCHAR 1EF7
ENCODING 7927
SWIDTH 360 0
DWIDTH 15 0
BBX 14 38 1 -8
BITMAP
0780
0FC0
18C0
0840
00C0
01C0
0180
0300
0000
E03C
E038
E038
7038
7070
7070
7070
3870
3860
38E0
38E0
18E0
1CC0
1DC0
1DC0
0DC0
0F80
0F80
0780
0780
0700
0700
0700
0600
0E00
0E00
7C00
7C00
7000
ENDCHAR
STARTCHAR 1EF8
ENCODING 7928
SWIDTH 432 0
DWIDTH 18 0
BBX 15 37 1 0
BITMAP
0708
0FFC
1FF8
0870
0000
0000
0000
0000
F00E
700E
701C
381C
381C
3838
1C38
1C38
0C70
0E70
0E60
06E0
07E0
07C0
03C0
03C0
0380
0380
0380
0380
0380
0380
0380
0380
0380
0380
0380
0380
0380
ENDCHAR
STARTCHAR 1EF9
ENCODING 7929
SWIDTH 360 0
DWIDTH 15 0
BBX 14 37 1 -8
BITMAP
1E10
3FF8
3FF0
21E0
0000
0000
0000
0000
E03C
E038
E038
7038
7070
7070
7070
3870
3860
38E0
38E0
18E0
1CC0
1DC0
1DC0
0DC0
0F80
0F80
0780
0780
0700
0700
0700
0600
0E00
0E00
7C00
7C00
7000
ENDCHAR
STARTCHAR 2010
ENCODING 8208
SWIDTH 312 0
DWIDTH 13 0
BBX 11 3 1 12
BITMAP
7FC0
FFE0
FFE0
ENDCHAR
STARTCHAR 2013
ENCODING 8211
SWIDTH 384 0
DWIDTH 16 0
BBX 13 3 1 10
BITMAP
7FF8
FFF8
FFF8
ENDCHAR
STARTCHAR 2014
ENCODING 8212
SWIDTH 600 0
DWIDTH 25 0
BBX 22 3 1 10
BITMAP
7FFFFC
FFFFFC
FFFFFC
ENDCHAR
STARTCHAR 2018
ENCODING 8216
SWIDTH 120 0
DWIDTH 5 0
BBX 5 8 0 21
BITMAP
18
38
30
30
70
70
60
E0
ENDCHAR
STARTCHAR 2019
ENCODING 8217
SWIDTH 120 0
DWIDTH 5 0
BBX 5 8 0 21
BITMAP
38
38
70
70
70
60
E0
E0
ENDCHAR
STARTCHAR 201A
ENCODING 8218
SWIDTH 600 0
DWIDTH 25 0
BBX 4 10 2 -3
BITMAP
70
60
60
E0
E0
E0
C0
C0
C0
C0
ENDCHAR
STARTCHAR 201C
ENCODING 8220
SWIDTH 240 0
DWIDTH 10 0
BBX 10 8 0 21
BITMAP
18C0
38C0
39C0
3180
7180
7380
7380
E700
ENDCHAR
STARTCHAR 201D
ENCODING 8221
SWIDTH 240 0
DWIDTH 10 0
BBX 10 8 0 21
BITMAP
39C0
39C0
31C0
7380
7380
6380
6300
E700
ENDCHAR
STARTCHAR 201E
ENCODING 8222
SWIDTH 240 0
DWIDTH 10 0
BBX 10 8 0 -3
BITMAP
39C0
39C0
31C0
7380
7380
6380
6300
E700
ENDCHAR
STARTCHAR 2020
ENCODING 8224
SWIDTH 336 0
DWIDTH 14 0
BBX 12 37 1 -8
BITMAP
0700
0700
0700
0700
0700
0700
0700
0700
0700
0700
FFF0
FFF0
7FE0
0700
0700
0700
0700
0700
0700
0700
0700
0700
0700
0700
0700
0700
0700
0700
0700
0700
0700
0700
0700
0700
0700
0700
0700
ENDCHAR
STARTCHAR 2021
ENCODING 8225
SWIDTH 336 0
DWIDTH 14 0
BBX 12 37 1 -8
BITMAP
0700
0700
0700
0700
0700
0700
0700
0700
0700
0700
FFF0
FFF0
7FE0
0700
0700
0700
0700
0700
0700
0700
0700
0700
0700
0700
7FE0
FFF0
FFF0
0700
0700
0700
0700
0700
0700
0700
0700
0700
0700
ENDCHAR
STARTCHAR 2022
ENCODING 8226
SWIDTH 288 0
DWIDTH 12 0
BBX 10 9 1 6
BITMAP
1E00
3F80
7F80
FFC0
FFC0
FFC0
7F80
3F80
1E00
ENDCHAR
STARTCHAR 2026
ENCODING 8230
SWIDTH 624 0
DWIDTH 26 0
BBX 22 5 2 0
BITMAP
E0301C
F0783C
F0783C
F0783C
E03018
ENDCHAR
STARTCHAR 2030
ENCODING 8240
SWIDTH 1008 0
DWIDTH 42 0
BBX 40 30 1 0
BITMAP
1C00000000
7F00038000
6300030000
C180060000
C1800E0000
C1800C0000
C180180000
C180380000
C180300000
C180700000
C180600000
C180C00000
C181C3C038
C18187F0FE
C1830E30C6
63870C3983
7F060C1983
3E0C0C1983
001C0C1983
00180C1983
00300C1983
00300C1983
00600C1983
00E00C1983
00C00C1983
01800C1983
03800C3983
03000E31C6
060007F0FE
0E0003C07C
ENDCHAR
STARTCHAR 2032
ENCODING 8242
SWIDTH 240 0
DWIDTH 10 0
BBX 5 9 0 20
BITMAP
38
38
70
70
70
60
60
E0
E0
ENDCHAR
STARTCHAR 2033
ENCODING 8243
SWIDTH 288 0
DWIDTH 12 0
BBX 10 9 1 20
BITMAP
39C0
39C0
31C0
7380
7380
6380
6300
E700
C700
ENDCHAR
STARTCHAR 2039
ENCODING 8249
SWIDTH 312 0
DWIDTH 13 0
BBX 8 14 2 4
BITMAP
07
0E
1C
1C
38
70
60
E0
70
38
18
1C
0E
07
ENDCHAR
STARTCHAR 203A
ENCODING 8250
SWIDTH 336 0
DWIDTH 14 0
BBX 8 14 3 4
BITMAP
E0
70
38
38
1C
0E
0E
0F
0E
1C
38
38
70
E0
ENDCHAR
STARTCHAR 2044
ENCODING 8260
SWIDTH 216 0
DWIDTH 9 0
BBX 20 29 -5 0
BITMAP
000030
000060
0000E0
0000C0
000180
000380
000300
000600
000600
000C00
001C00
001800
003000
007000
006000
00C000
01C000
018000
030000
030000
060000
0E0000
0C0000
180000
380000
300000
600000
E00000
C00000
ENDCHAR
STARTCHAR 2074
ENCODING 8308
SWIDTH 240 0
DWIDTH 10 0
BBX 10 18 0 18
BITMAP
0400
0C00
0C00
1C00
1800
1800
3800
3000
7180
6180
6180
7FC0
FFC0
0180
0180
0180
0180
0180
ENDCHAR
STARTCHAR 2075
ENCODING 8309
SWIDTH 240 0
DWIDTH 10 0
BBX 8 18 1 18
BITMAP
FF
FF
C0
C0
C0
C0
C0
DC
FE
C7
C3
03
03
C3
C3
E7
7E
3C
ENDCHAR
STARTCHAR 2076
ENCODING 8310
SWIDTH 240 0
DWIDTH 10 0
BBX 9 18 1 18
BITMAP
1C00
7E00
6700
E300
C300
C000
C000
DE00
FF00
E300
E300
C380
C380
C300
E300
6300
7F00
3C00
ENDCHAR
STARTCHAR 2077
ENCODING 8311
SWIDTH 216 0
DWIDTH 9 0
BBX 9 17 0 18
BITMAP
FF80
FF80
C380
4300
0300
0300
0600
0600
0600
0E00
0C00
0C00
0C00
1800
1800
1800
3800
ENDCHAR
STARTCHAR 2078
ENCODING 8312
SWIDTH 264 0
DWIDTH 11 0
BBX 9 18 1 18
BITMAP
1C00
7E00
6300
C300
C380
C300
C300
6300
3E00
7E00
6300
C300
C300
C300
C300
6300
7E00
3C00
ENDCHAR
STARTCHAR 2079
ENCODING 8313
SWIDTH 240 0
DWIDTH 10 0
BBX 8 18 1 18
BITMAP
3C
7E
E7
C3
C3
C3
C3
C3
C3
E7
7F
3B
03
C3
C3
E7
7E
3C
ENDCHAR
STARTCHAR 20A3
ENCODING 8355
SWIDTH 480 0
DWIDTH 20 0
BBX 16 29 3 0
BITMAP
1FFF
1FFF
1FFF
1C00
1C00
1C00
1C00
1C00
1C00
1C00
1C00
1C00
1C00
1FF0
1FF8
1FF8
1C00
1C00
1C00
1C00
1C00
FFE0
FFE0
FFE0
1C00
1C00
1C00
1C00
1C00
ENDCHAR
STARTCHAR 20AC
ENCODING 8364
SWIDTH 480 0
DWIDTH 20 0
BBX 16 29 2 0
BITMAP
01F0
07FC
0FFE
0E0F
1E07
1C07
1C04
1C00
1C00
1C00
1C00
FFFC
FFF8
1C00
1C00
1C00
FFF0
FFF0
1C00
1C00
1C00
1C00
1C06
1C07
1E07
0E0E
0FFE
07FC
01F0
ENDCHAR
STARTCHAR 20BA
ENCODING 8378
SWIDTH 552 0
DWIDTH 23 0
BBX 19 29 2 0
BITMAP
070000
070000
070000
070000
070000
070000
070000
073C00
07FC00
0FC000
FF0000
770400
073C00
07F800
1F8000
FF0000
670000
070000
0700E0
0700E0
0700E0
0700E0
0701C0
0701C0
070380
070F00
07FE00
07FC00
07E000
ENDCHAR
STARTCHAR 20BD
ENCODING 8381
SWIDTH 504 0
DWIDTH 21 0
BBX 17 29 3 0
BITMAP
1FF800
1FFC00
1FFE00
1C0F00
1C0700
1C0380
1C0380
1C0380
1C0380
1C0380
1C0380
1C0700
1C0F00
FFFE00
FFFC00
FFF800
1C0000
1C0000
1C0000
1C0000
FFF800
FFF800
1C0000
1C0000
1C0000
1C0000
1C0000
1C0000
1C0000
ENDCHAR
STARTCHAR 2113
ENCODING 8467
SWIDTH 432 0
DWIDTH 18 0
BBX 13 30 2 0
BITMAP
01E0
03F0
0638
0E38
0C18
1C18
1C18
1C18
1C38
1C30
1C70
1CE0
1CC0
1DC0
1F80
1F00
1E00
3C00
7C00
FC00
5C00
1C00
1C00
1C00
1C00
1C00
1C00
0E18
07F8
03E0
ENDCHAR
STARTCHAR 2122
ENCODING 8482
SWIDTH 504 0
DWIDTH 21 0
BBX 19 15 1 15
BITMAP
FF3060
FF38E0
1838E0
183CE0
1835E0
183760
183360
183260
183060
183060
183060
183060
183060
183060
183060
ENDCHAR
STARTCHAR 2126
ENCODING 8486
SWIDTH 480 0
DWIDTH 20 0
BBX 16 29 2 0
BITMAP
07E0
1FF8
3FFC
3C3C
781E
700E
700E
700E
700E
700E
700E
700E
700E
700E
700E
700E
700E
700E
700E
700E
700E
700E
700E
700E
300C
181C
FE7F
FE7F
FE7F
ENDCHAR
STARTCHAR 212E
ENCODING 8494
SWIDTH 840 0
DWIDTH 35 0
BBX 31 30 2 0
BITMAP
001FF000
00601E00
01800300
060000C0
0C000060
18000030
10000010
30000018
30000018
7000001C
7000001C
7000001C
F000001E
F000001E
FFFFFFFE
F0000000
F0000000
F0000000
70000000
70000000
70000000
30000008
30000018
10000010
18000020
0C000060
06000080
01800300
00F01C00
001FF000
ENDCHAR
STARTCHAR 215B
ENCODING 8539
SWIDTH 672 0
DWIDTH 28 0
BBX 26 29 1 0
BITMAP
70000C00
F0001800
30003800
30003000
30006000
30006000
3000C000
3001C000
30018000
30030000
30070000
30060F00
300C1F80
301C39C0
301830C0
303030C0
307030C0
006030C0
00E019C0
00C01F80
01801F80
038039C0
030030C0
060030C0
0E0030C0
0C0030C0
180039C0
38001F80
30000F00
ENDCHAR
STARTCHAR 215C
ENCODING 8540
SWIDTH 744 0
DWIDTH 31 0
BBX 29 30 1 0
BITMAP
FF000000
FF000180
07000300
06000700
0E000600
1C000C00
18001C00
3E001800
07003000
03007000
03006000
0300C000
C300C1E0
C30183F0
C3038738
E3030618
7E060618
3C0E0618
000C0618
00180730
003803F0
003003F0
00600738
00600618
00C00618
01C00618
01800618
03000738
070003F0
060001E0
ENDCHAR
STARTCHAR 215D
ENCODING 8541
SWIDTH 696 0
DWIDTH 29 0
BBX 27 30 1 0
BITMAP
FF000000
FF000600
C0000C00
C0001C00
C0001800
C0003000
C0007000
DC006000
FE00C000
C700C000
C3018000
03038000
03030780
C3060FC0
C30E1CE0
E70C1860
7E181860
3C381860
00301860
00600CE0
00600FC0
00C00FC0
01C01CE0
01801860
03001860
07001860
06001860
0C001CE0
1C000FC0
18000780
ENDCHAR
STARTCHAR 215E
ENCODING 8542
SWIDTH 672 0
DWIDTH 28 0
BBX 27 29 0 0
BITMAP
FF800E00
FF800C00
C3801800
43003800
03003000
03006000
0600E000
0600C000
06018000
0E038000
0C030000
0C060700
0C060FC0
180C18C0
181C18E0
18183860
38303860
007018E0
006018C0
00C00F80
01C00FC0
018018C0
030018E0
03001860
06003860
0E001860
0C0018C0
18000FC0
38000780
ENDCHAR
STARTCHAR 2202
ENCODING 8706
SWIDTH 528 0
DWIDTH 22 0
BBX 18 29 2 0
BITMAP
0FE000
1FF800
183C00
001E00
000E00
000700
000700
000380
000380
000380
000380
07F180
1FFDC0
3E1FC0
3807C0
7003C0
7003C0
E00180
E00180
E00180
E00380
E00380
E00300
700700
700700
380E00
3E3C00
1FF800
07F000
ENDCHAR
STARTCHAR 2206
ENCODING 8710
SWIDTH 504 0
DWIDTH 21 0
BBX 20 29 0 0
BITMAP
007000
007000
00F000
00F800
00D800
01D800
01DC00
018C00
038C00
038E00
030E00
070600
070700
060700
0E0300
0E0380
0C0380
1C0180
1C01C0
1801C0
3800C0
3800E0
3800E0
700060
700070
700070
FFFFF0
FFFFF0
FFFFF0
ENDCHAR
STARTCHAR 220F
ENCODING 8719
SWIDTH 480 0
DWIDTH 20 0
BBX 14 42 3 -8
BITMAP
FFFC
FFFC
FFFC
E01C
E01C
E01C
E01C
E01C
E01C
E01C
E01C
E01C
E01C
E01C
E01C
E01C
E01C
E01C
E01C
E01C
E01C
E01C
E01C
E01C
E01C
E01C
E01C
E01C
E01C
E01C
E01C
E01C
E01C
E01C
E01C
E01C
E01C
E01C
E01C
E01C
E01C
E01C
ENDCHAR
STARTCHAR 2211
ENCODING 8721
SWIDTH 504 0
DWIDTH 21 0
BBX 17 39 3 -8
BITMAP
FFFF00
FFFF80
FFFF80
E00000
700000
700000
380000
1C0000
1C0000
0E0000
0E0000
070000
038000
038000
01C000
01C000
00E000
00F000
007000
00E000
00E000
01C000
01C000
038000
038000
070000
070000
0E0000
0E0000
1C0000
1C0000
380000
380000
700000
700000
E00000
FFFF00
FFFF80
FFFF80
ENDCHAR
STARTCHAR 2212
ENCODING 8722
SWIDTH 432 0
DWIDTH 18 0
BBX 16 2 1 12
BITMAP
FFFF
FFFF
ENDCHAR
STARTCHAR 2215
ENCODING 8725
SWIDTH 456 0
DWIDTH 19 0
BBX 15 29 1 0
BITMAP
000E
000E
001C
001C
0038
0038
0030
0070
0070
00E0
00E0
01C0
01C0
0180
0380
0380
0700
0700
0E00
0E00
0C00
1C00
1C00
3800
3800
7000
7000
6000
E000
ENDCHAR
STARTCHAR 2219
ENCODING 8729
SWIDTH 288 0
DWIDTH 12 0
BBX 10 10 1 8
BITMAP
1E00
3F80
7F80
7FC0
FFC0
FFC0
7FC0
7F80
3F80
1E00
ENDCHAR
STARTCHAR 221A
ENCODING 8730
SWIDTH 648 0
DWIDTH 27 0
BBX 24 41 1 -8
BITMAP
0001FE
0003FF
0003FF
000380
000380
000300
000700
000700
000700
000700
000E00
000E00
000E00
000E00
001C00
001C00
001C00
001C00
001800
003800
003800
003800
003000
007000
007000
207000
E07000
E0E000
70E000
70E000
70E000
38C000
39C000
39C000
1DC000
1D8000
1F8000
0F8000
0F8000
0F0000
070000
ENDCHAR
STARTCHAR 221E
ENCODING 8734
SWIDTH 648 0
DWIDTH 27 0
BBX 24 13 1 7
BITMAP
1F00F8
3FC1FC
70E38E
607707
607E03
E03C03
E01C03
E03C03
607E03
70E707
79E38E
3FC1FC
0F00F8
ENDCHAR
STARTCHAR 222B
ENCODING 8747
SWIDTH 312 0
DWIDTH 13 0
BBX 11 38 1 -9
BITMAP
01E0
07E0
07E0
0F00
0F00
0E00
0E00
0E00
0E00
0E00
0E00
0E00
0E00
0E00
0E00
0E00
0E00
0E00
0E00
0E00
0E00
0E00
0E00
0E00
0E00
0E00
0E00
0E00
0E00
0E00
0E00
0E00
0E00
0E00
1E00
FC00
FC00
F000
ENDCHAR
STARTCHAR 2248
ENCODING 8776
SWIDTH 456 0
DWIDTH 19 0
BBX 17 13 1 7
BITMAP
1E0000
3F8380
7FFF00
E0FF00
203C00
000000
000000
000000
1E0000
3F8380
7FFF00
E0FF00
203C00
ENDCHAR
STARTCHAR 2260
ENCODING 8800
SWIDTH 432 0
DWIDTH 18 0
BBX 16 19 1 4
BITMAP
0018
0018
0030
0030
FFFF
FFFF
00C0
00C0
0180
0180
0380
0300
0300
FFFF
FFFF
0C00
0C00
1800
1800
ENDCHAR
STARTCHAR 2264
ENCODING 8804
SWIDTH 432 0
DWIDTH 18 0
BBX 16 21 1 1
BITMAP
0003
000F
003F
00FC
03F0
0FC0
3F00
FC00
E000
F800
7E00
1F80
07E0
01F8
007F
001F
0007
0001
0000
FFFF
FFFF
ENDCHAR
STARTCHAR 2265
ENCODING 8805
SWIDTH 432 0
DWIDTH 18 0
BBX 16 21 1 1
BITMAP
E000
F800
7E00
1F80
07E0
01F8
007E
001F
0007
001F
007E
01F8
07E0
1F80
7E00
F800
E000
0000
0000
FFFF
FFFF
ENDCHAR
STARTCHAR 25CA
ENCODING 9674
SWIDTH 408 0
DWIDTH 17 0
BBX 14 33 1 -2
BITMAP
0380
0380
0780
06C0
06C0
0EE0
0C60
0C60
1C70
1830
3830
3838
3018
7018
701C
600C
E00C
600C
701C
7018
3018
3838
3830
1830
1C70
0C60
0C60
0EE0
06C0
06C0
0780
0380
0380
ENDCHAR
STARTCHAR 27E9
ENCODING 10217
SWIDTH 312 0
DWIDTH 13 0
BBX 7 31 3 -4
BITMAP
E0
E0
60
70
70
30
38
38
18
1C
1C
0C
0C
0E
06
06
06
0E
0E
0C
1C
1C
18
38
38
30
70
70
60
E0
E0
ENDCHAR
STARTCHAR FB01
ENCODING 64257
SWIDTH 480 0
DWIDTH 20 0
BBX 17 29 1 0
BITMAP
078700
0F8780
1F8F80
1C0780
1C0700
380000
380000
380000
FF8700
FF8700
7F8700
380700
380700
380700
380700
380700
380700
380700
380700
380700
380700
380700
380700
380700
380700
380700
380700
380700
380700
ENDCHAR
STARTCHAR FB02
ENCODING 64258
SWIDTH 456 0
DWIDTH 19 0
BBX 16 29 1 0
BITMAP
0787
0F87
1F87
1C07
1C07
3807
3807
3807
FF87
FF87
7F87
3807
3807
3807
3807
3807
3807
3807
3807
3807
3807
3807
3807
3807
3807
3807
3807
3807
3807
ENDCHAR
ENDFONT
